SplineFontDB: 3.0
FontName: Vaigai-BoldItalic
FullName: Vaigai Bold Italic
FamilyName: Vaigai
Weight: Bold
Copyright: Copyright (c) 1995-2015, NLCI (http://www.nlci.in/fonts/) Derived from SAU Vaigai Bold Italic by ttfbuilder v0.33
Version: 1.0 Sat Jul 20 09:51:16 1996
ItalicAngle: 12
UnderlinePosition: -260
UnderlineWidth: 20
Ascent: 800
Descent: 200
InvalidEm: 0
sfntRevision: 0x00010000
LayerCount: 2
Layer: 0 0 "Back" 1
Layer: 1 0 "Fore" 0
XUID: [1021 147 528227747 700516]
StyleMap: 0x0021
FSType: 0
OS2Version: 1
OS2_WeightWidthSlopeOnly: 0
OS2_UseTypoMetrics: 0
CreationTime: 1547921071
ModificationTime: 1547921084
PfmFamily: 17
TTFWeight: 700
TTFWidth: 5
LineGap: 0
VLineGap: 0
Panose: 2 0 0 3 0 0 0 0 0 0
OS2TypoAscent: 1052
OS2TypoAOffset: 0
OS2TypoDescent: -367
OS2TypoDOffset: 0
OS2TypoLinegap: 0
OS2WinAscent: 1052
OS2WinAOffset: 0
OS2WinDescent: 367
OS2WinDOffset: 0
HheadAscent: 1052
HheadAOffset: 0
HheadDescent: -367
HheadDOffset: 0
OS2SubXSize: 700
OS2SubYSize: 650
OS2SubXOff: 0
OS2SubYOff: 143
OS2SupXSize: 700
OS2SupYSize: 650
OS2SupXOff: 0
OS2SupYOff: 453
OS2StrikeYSize: 50
OS2StrikeYPos: 259
OS2Vendor: 'Alts'
OS2CodePages: 20000001.00000000
OS2UnicodeRanges: a01080ff.520021cb.08000028.00000000
Lookup: 260 0 0 "_holdAnchorsbase" { "_someAnchorsbase"  } []
DEI: 91125
ShortTable: maxp 16
  1
  0
  243
  193
  12
  308
  16
  1
  0
  0
  0
  0
  3
  0
  3
  2
EndShort

StartChar: .notdef
Encoding: 0 -1 0
Width: 500
Flags: HW
LayerCount: 2
Fore
SplineSet
31 0 m 1
 31 750 l 1
 469 750 l 1
 469 0 l 1
 31 0 l 1
438 31 m 1
 438 719 l 1
 62 719 l 1
 62 31 l 1
 438 31 l 1
EndSplineSet
EndChar

StartChar: exclam.taml
Encoding: 4 -1 4
Width: 334
Flags: HW
LayerCount: 2
Fore
SplineSet
316 370 m 0
 304 336 288 290 268 232 c 0
 263 217 263 217 228 112 c 0
 222 95.3333333333 216.333333333 78.6666666667 211 62 c 1
 185 62 l 1
 190.333333333 104.666666667 194.333333333 139.333333333 197 166 c 0
 205.666666667 250.666666667 210 318.333333333 210 369 c 0
 210 391.666666667 216.833333333 411.166666667 230.5 427.5 c 128
 244.166666667 443.833333333 260.666666667 452 280 452 c 0
 306.666666667 452 320 436.333333333 320 405 c 0
 320 399 320 399 320 393 c 0
 318 383 316.666666667 375.333333333 316 370 c 0
231 -25 m 0
 227.666666667 -40.3333333333 220 -53 208 -63 c 128
 196 -73 182.333333333 -78 167 -78 c 0
 155 -78 145.333333333 -74.3333333333 138 -67 c 128
 130.666666667 -59.6666666667 127 -49.6666666667 127 -37 c 0
 127 -31.6666666667 127.833333333 -25 129.5 -17 c 128
 131.166666667 -9 137.833333333 -0.333333333333 149.5 9 c 128
 161.166666667 18.3333333333 174 23 188 23 c 256
 202 23 213.333333333 18.3333333333 222 9 c 128
 230.666666667 -0.333333333333 233.666666667 -11.6666666667 231 -25 c 0
EndSplineSet
EndChar

StartChar: quoteleft.taml
Encoding: 5 -1 5
Width: 279
Flags: HW
LayerCount: 2
Fore
SplineSet
357 641 m 1
 317.666666667 629 284.333333333 609 257 581 c 1
 244 558 244 558 231 535 c 0
 232.333333333 533.666666667 234.166666667 532.666666667 236.5 532 c 128
 238.833333333 531.333333333 240.666666667 531 242 531 c 0
 246.666666667 531 254.333333333 533.833333333 265 539.5 c 128
 275.666666667 545.166666667 284 548 290 548 c 0
 297.333333333 548 303.333333333 546 308 542 c 0
 323.333333333 531.333333333 331 515.666666667 331 495 c 0
 331 485.666666667 329.5 477 326.5 469 c 128
 323.5 461 318.166666667 452.5 310.5 443.5 c 128
 302.833333333 434.5 293.333333333 427.5 282 422.5 c 128
 270.666666667 417.5 258.333333333 415 245 415 c 0
 240.333333333 415 231.166666667 415.833333333 217.5 417.5 c 128
 203.833333333 419.166666667 192.5 426.666666667 183.5 440 c 128
 174.5 453.333333333 170 469.666666667 170 489 c 0
 170 506.333333333 173.666666667 523 181 539 c 0
 201 586.333333333 237.666666667 623.666666667 291 651 c 0
 308.333333333 659.666666667 333 668.666666667 365 678 c 1
 357 641 l 1
EndSplineSet
EndChar

StartChar: u20A8
Encoding: 6 8360 6
Width: 812
Flags: HW
LayerCount: 2
Fore
SplineSet
754 90 m 0
 748 62 731.5 37.8333333333 704.5 17.5 c 128
 677.5 -2.83333333333 649.333333333 -13 620 -13 c 0
 608 -13 594.166666667 -10.5 578.5 -5.5 c 128
 562.833333333 -0.5 553.666666667 2 551 2 c 0
 543.666666667 2 538 -1.33333333333 534 -8 c 1
 507 -8 l 1
 535 120 l 1
 563 120 l 1
 563 85.3333333333 569.333333333 60.6666666667 582 46 c 0
 592.666666667 33.3333333333 608.666666667 27 630 27 c 0
 642 27 652.666666667 30.6666666667 662 38 c 128
 671.333333333 45.3333333333 677 54 679 64 c 0
 682.333333333 80 674.666666667 94 656 106 c 0
 653.333333333 107.333333333 641.333333333 113.666666667 620 125 c 0
 596.666666667 138.333333333 580.666666667 149.333333333 572 158 c 0
 559.333333333 170.666666667 553 185.666666667 553 203 c 0
 553 207 553.666666667 213.666666667 555 223 c 0
 561.666666667 251 576.333333333 274 599 292 c 128
 621.666666667 310 647.333333333 319 676 319 c 0
 687.333333333 319 700.333333333 316.333333333 715 311 c 0
 724.333333333 307.666666667 730 306 732 306 c 0
 738.666666667 306 744.333333333 310.333333333 749 319 c 1
 780 319 l 1
 754 198 l 1
 723 198 l 1
 723 228.666666667 718.5 250 709.5 262 c 128
 700.5 274 686.333333333 280 667 280 c 0
 657 280 647.5 277.5 638.5 272.5 c 128
 629.5 267.5 623.666666667 260.333333333 621 251 c 0
 617.666666667 234.333333333 627 220 649 208 c 0
 666.333333333 199.333333333 679.333333333 192.666666667 688 188 c 0
 709.333333333 176 725 165 735 155 c 0
 749 141 756 124.666666667 756 106 c 0
 756 103.333333333 755.333333333 98 754 90 c 0
476 -3 m 1
 341 -2 l 1
 232 201 l 1
 202 201 l 1
 177 85 l 2
 174.333333333 72.3333333333 173 61.3333333333 173 52 c 0
 173 36 181.666666667 28 199 28 c 2
 229 28 l 1
 222 -3 l 1
 9 -3 l 1
 16 28 l 1
 42 28 l 2
 54.6666666667 28 64.8333333333 31.8333333333 72.5 39.5 c 128
 80.1666666667 47.1666666667 86.3333333333 62.3333333333 91 85 c 2
 151 369 l 2
 153.666666667 379 155 387.666666667 155 395 c 0
 155 405 152.5 411.833333333 147.5 415.5 c 128
 142.5 419.166666667 135 421 125 421 c 2
 99 421 l 1
 106 452 l 1
 277 452 l 2
 337.666666667 452 382.5 445.333333333 411.5 432 c 128
 440.5 418.666666667 455 395.333333333 455 362 c 0
 455 352.666666667 454 343 452 333 c 0
 446 305.666666667 433 282.333333333 413 263 c 0
 390.333333333 241 359 224.666666667 319 214 c 1
 341.666666667 174 360 142 374 118 c 0
 400 73.3333333333 415.833333333 49.5 421.5 46.5 c 128
 427.166666667 43.5 435 40.1666666667 445 36.5 c 128
 455 32.8333333333 467.666666667 29.6666666667 483 27 c 1
 476 -3 l 1
353 322 m 0
 355 329.333333333 356 336.666666667 356 344 c 0
 356 361.333333333 350.333333333 375.333333333 339 386 c 0
 325 398.666666667 304 405 276 405 c 0
 263.333333333 405 253 404.333333333 245 403 c 1
 211 243 l 1
 248.333333333 243 280.166666667 250.333333333 306.5 265 c 128
 332.833333333 279.666666667 348.333333333 298.666666667 353 322 c 0
EndSplineSet
EndChar

StartChar: percent.taml
Encoding: 7 -1 7
Width: 593
Flags: HW
LayerCount: 2
Fore
SplineSet
549 159 m 0
 538.333333333 109 517.333333333 70.6666666667 486 44 c 0
 460.666666667 22 433.666666667 11 405 11 c 0
 382.333333333 11 365 17.6666666667 353 31 c 128
 341 44.3333333333 335 63.6666666667 335 89 c 0
 335 102.333333333 337 119 341 139 c 0
 352.333333333 193 374.333333333 233.666666667 407 261 c 0
 431.666666667 281.666666667 456.333333333 292 481 292 c 0
 500.333333333 292 516.333333333 287 529 277 c 0
 546.333333333 263 555 240 555 208 c 0
 555 194.666666667 553 178.333333333 549 159 c 0
557 506 m 1
 151 9 l 1
 87 8 l 1
 492 505 l 1
 557 506 l 1
309 378 m 0
 297.666666667 323.333333333 275.666666667 282.333333333 243 255 c 0
 218.333333333 234.333333333 193.333333333 224 168 224 c 0
 148.666666667 224 133 229 121 239 c 0
 104.333333333 253 96 275.666666667 96 307 c 0
 96 321 98 337.666666667 102 357 c 0
 112.666666667 407.666666667 133.333333333 446.333333333 164 473 c 0
 188.666666667 494.333333333 215 505 243 505 c 0
 267 505 285 498.333333333 297 485 c 128
 309 471.666666667 315 452.333333333 315 427 c 0
 315 413.666666667 313 397.333333333 309 378 c 0
480 124 m 0
 482 131.333333333 483.333333333 138.666666667 484 146 c 128
 484.666666667 153.333333333 485 160.666666667 485 168 c 0
 485 186 481 199.5 473 208.5 c 128
 465 217.5 454.666666667 222 442 222 c 0
 427.333333333 222 417.666666667 211 413 189 c 128
 408.333333333 167 406 149.666666667 406 137 c 0
 406 99 420.333333333 80 449 80 c 0
 463.666666667 80 474 94.6666666667 480 124 c 0
239 332 m 0
 241 339.333333333 242.333333333 346.833333333 243 354.5 c 128
 243.666666667 362.166666667 244 370 244 378 c 0
 244 416.666666667 229.666666667 436 201 436 c 0
 187 436 177.5 424.5 172.5 401.5 c 128
 167.5 378.5 165 360.666666667 165 348 c 0
 165 329.333333333 168.833333333 315.5 176.5 306.5 c 128
 184.166666667 297.5 194 293 206 293 c 0
 222 293 233 306 239 332 c 0
EndSplineSet
EndChar

StartChar: ampersand.taml
Encoding: 8 -1 8
Width: 503
Flags: HW
LayerCount: 2
Fore
SplineSet
501 95 m 1
 485 63 466.333333333 38.8333333333 445 22.5 c 128
 423.666666667 6.16666666667 400.666666667 -2 376 -2 c 0
 356 -2 337.666666667 2.66666666667 321 12 c 0
 306.333333333 22.6666666667 291.666666667 36.6666666667 277 54 c 1
 224.333333333 16.6666666667 175.333333333 -2 130 -2 c 0
 97.3333333333 -2 71.3333333333 8 52 28 c 0
 39.3333333333 44 33 61.3333333333 33 80 c 0
 33 111.333333333 48.6666666667 144 80 178 c 0
 90.6666666667 189.333333333 105.666666667 201.666666667 125 215 c 128
 144.333333333 228.333333333 167 241 193 253 c 1
 187.666666667 275 185 295 185 313 c 0
 185 319 185 319 185 326 c 0
 186.333333333 332.666666667 187 337.333333333 187 340 c 0
 194.333333333 373.333333333 211.333333333 400.166666667 238 420.5 c 128
 264.666666667 440.833333333 294.666666667 451 328 451 c 0
 351.333333333 451 369.666666667 445 383 433 c 128
 396.333333333 421 403 405 403 385 c 0
 403 381.666666667 402.333333333 376 401 368 c 0
 396.333333333 344.666666667 385.333333333 324.333333333 368 307 c 128
 350.666666667 289.666666667 321 271.333333333 279 252 c 1
 294.333333333 210 310 174 326 144 c 1
 344.666666667 164 359.333333333 181.5 370 196.5 c 128
 380.666666667 211.5 387.333333333 225.333333333 390 238 c 0
 391.333333333 244.666666667 390.5 250.333333333 387.5 255 c 128
 384.5 259.666666667 377.333333333 263 366 265 c 1
 372 293 l 1
 519 293 l 1
 513 264 l 1
 493 264 478 260.666666667 468 254 c 128
 458 247.333333333 442 229.166666667 420 199.5 c 128
 398 169.833333333 372.666666667 140.666666667 344 112 c 1
 348.666666667 104.666666667 354.333333333 97.6666666667 361 91 c 0
 364.333333333 87 370 81.6666666667 378 75 c 0
 388.666666667 68.3333333333 400 65 412 65 c 0
 438.666666667 65 460 81.6666666667 476 115 c 1
 501 95 l 1
348 369 m 0
 350.666666667 379.666666667 349 389 343 397 c 128
 337 405 328.666666667 409.666666667 318 411 c 0
 304.666666667 411 293 406 283 396 c 128
 273 386 267 375.833333333 265 365.5 c 128
 263 355.166666667 262 347 262 341 c 0
 262 330.333333333 262.333333333 322.5 263 317.5 c 128
 263.666666667 312.5 266 303.333333333 270 290 c 1
 292.666666667 301.333333333 310.5 313.166666667 323.5 325.5 c 128
 336.5 337.833333333 344.666666667 352.333333333 348 369 c 0
256 87 m 1
 239.333333333 121.666666667 227.833333333 146.666666667 221.5 162 c 128
 215.166666667 177.333333333 208.666666667 195 202 215 c 1
 190 208.333333333 179.666666667 202.166666667 171 196.5 c 128
 162.333333333 190.833333333 155.333333333 184.666666667 150 178 c 0
 130 156 120 133.333333333 120 110 c 0
 120 102.666666667 120.5 97 121.5 93 c 128
 122.5 89 125.666666667 83.1666666667 131 75.5 c 128
 136.333333333 67.8333333333 142.333333333 61.8333333333 149 57.5 c 128
 155.666666667 53.1666666667 164 51 174 51 c 256
 184 51 195.5 53.8333333333 208.5 59.5 c 128
 221.5 65.1666666667 237.333333333 74.3333333333 256 87 c 1
EndSplineSet
EndChar

StartChar: quoteright.taml
Encoding: 9 -1 9
Width: 279
Flags: HW
LayerCount: 2
Fore
SplineSet
314 546 m 0
 294 498.666666667 257.333333333 461 204 433 c 0
 186.666666667 423.666666667 162.333333333 414.333333333 131 405 c 1
 139 442 l 1
 177.666666667 454 210.666666667 474.333333333 238 503 c 0
 262 527.666666667 270.666666667 543 264 549 c 0
 260.666666667 551.666666667 256.666666667 553 252 553 c 0
 248 553 240.666666667 550 230 544 c 128
 219.333333333 538 210.666666667 535 204 535 c 0
 198 535 192 537 186 541 c 0
 170.666666667 551.666666667 163 567.333333333 163 588 c 0
 163 606.666666667 170 623.666666667 184 639 c 0
 192 649 201.666666667 656.333333333 213 661 c 128
 224.333333333 665.666666667 236.333333333 668 249 668 c 0
 253.666666667 668 262.666666667 667.333333333 276 666 c 128
 289.333333333 664.666666667 300.666666667 657.166666667 310 643.5 c 128
 319.333333333 629.833333333 324 613.333333333 324 594 c 0
 324 575.333333333 320.666666667 559.333333333 314 546 c 0
EndSplineSet
EndChar

StartChar: parenleft.taml
Encoding: 10 -1 10
Width: 294
Flags: HW
LayerCount: 2
Fore
SplineSet
454 613 m 1
 369.333333333 557 301.166666667 476 249.5 370 c 128
 197.833333333 264 172 158 172 52 c 0
 172 -6 180.333333333 -59.3333333333 197 -108 c 128
 213.666666667 -156.666666667 239.333333333 -198 274 -232 c 1
 250 -256 l 1
 190.666666667 -218.666666667 146.333333333 -171.666666667 117 -115 c 128
 87.6666666667 -58.3333333333 73 4 73 72 c 0
 73 107.333333333 77.3333333333 146 86 188 c 0
 106 282 144.333333333 366.333333333 201 441 c 0
 262.333333333 521.666666667 341.333333333 586 438 634 c 1
 454 613 l 1
EndSplineSet
EndChar

StartChar: parenright.taml
Encoding: 11 -1 11
Width: 294
Flags: HW
LayerCount: 2
Fore
SplineSet
248 188 m 0
 228 94.6666666667 189.333333333 10.6666666667 132 -64 c 0
 70.6666666667 -144 -8.33333333333 -208 -105 -256 c 1
 -121 -235 l 1
 -34.3333333333 -174.333333333 35.3333333333 -89.3333333333 88 20 c 0
 137.333333333 123.333333333 162 227.333333333 162 332 c 0
 162 390.666666667 153.5 444.333333333 136.5 493 c 128
 119.5 541.666666667 94 581.666666667 60 613 c 1
 84 633 l 1
 143.333333333 596.333333333 187.666666667 549.5 217 492.5 c 128
 246.333333333 435.5 261 372.666666667 261 304 c 0
 261 270 256.666666667 231.333333333 248 188 c 0
EndSplineSet
EndChar

StartChar: asterisk.taml
Encoding: 12 -1 12
Width: 613
Flags: HW
LayerCount: 2
Fore
SplineSet
522 327 m 0
 510.666666667 313.666666667 496.666666667 307 480 307 c 0
 470.666666667 307 463.166666667 310 457.5 316 c 128
 451.833333333 322 441.666666667 333.666666667 427 351 c 0
 417.666666667 362.333333333 409 371.333333333 401 378 c 1
 401 369.333333333 401.833333333 355.333333333 403.5 336 c 128
 405.166666667 316.666666667 406 301.333333333 406 290 c 0
 403.333333333 276.666666667 397 265.333333333 387 256 c 128
 377 246.666666667 366.666666667 242 356 242 c 0
 334.666666667 244.666666667 324 256.333333333 324 277 c 0
 324 279 324.666666667 283.333333333 326 290 c 0
 332 305.333333333 339.333333333 321.833333333 348 339.5 c 128
 356.666666667 357.166666667 362.666666667 370.333333333 366 379 c 1
 356 372.333333333 341.333333333 360.833333333 322 344.5 c 128
 302.666666667 328.166666667 291 318.666666667 287 316 c 0
 277.666666667 309.333333333 267 306 255 306 c 0
 239 306 228.666666667 312.333333333 224 325 c 0
 222 329 221 333 221 337 c 0
 221 346.333333333 224.5 355.5 231.5 364.5 c 128
 238.5 373.5 247 379.5 257 382.5 c 128
 267 385.5 289 391 323 399 c 0
 334.333333333 401.666666667 344.333333333 404.666666667 353 408 c 1
 344.333333333 411.333333333 331.166666667 415.166666667 313.5 419.5 c 128
 295.833333333 423.833333333 281.333333333 428 270 432 c 0
 256.666666667 438 250 448.333333333 250 463 c 0
 250 473 252.666666667 482.333333333 258 491 c 0
 268.666666667 503.666666667 282.666666667 510 300 510 c 0
 310.666666667 510 319.5 506.166666667 326.5 498.5 c 128
 333.5 490.833333333 343 479.333333333 355 464 c 0
 363.666666667 452.666666667 371.333333333 443.666666667 378 437 c 1
 378 446.333333333 377.666666667 462.333333333 377 485 c 128
 376.333333333 507.666666667 376 522 376 528 c 0
 378.666666667 541.333333333 385 552 395 560 c 128
 405 568 415.666666667 572 427 572 c 0
 447 572 457 561 457 539 c 0
 457 533.666666667 456.666666667 529.333333333 456 526 c 0
 443 500 443 500 431.5 477 c 128
 423.833333333 461.666666667 418 448.333333333 414 437 c 1
 424 443 436 452 450 464 c 0
 472.666666667 482.666666667 487.666666667 494.666666667 495 500 c 128
 502.333333333 505.333333333 511 508 521 508 c 0
 539 508 550.666666667 502 556 490 c 0
 559.333333333 478 557.333333333 466 550 454 c 128
 542.666666667 442 534.5 435 525.5 433 c 128
 516.5 431 496.666666667 426.333333333 466 419 c 0
 452 415.666666667 439.333333333 412 428 408 c 1
 435.333333333 404.666666667 447.5 400.666666667 464.5 396 c 128
 481.5 391.333333333 496.666666667 387 510 383 c 0
 516.666666667 381 521.666666667 377.5 525 372.5 c 128
 528.333333333 367.5 530 361 530 353 c 0
 530 343.666666667 527.333333333 335 522 327 c 0
EndSplineSet
EndChar

StartChar: plus.taml
Encoding: 13 -1 13
Width: 433
Flags: HW
LayerCount: 2
Fore
SplineSet
367 182 m 1
 292 182 l 1
 276 106 l 1
 187 106 l 1
 203 182 l 1
 129 182 l 1
 147 266 l 1
 221 266 l 1
 237 343 l 1
 326 343 l 1
 310 266 l 1
 385 266 l 1
 367 182 l 1
EndSplineSet
EndChar

StartChar: comma.taml
Encoding: 14 -1 14
Width: 279
Flags: HW
LayerCount: 2
Fore
SplineSet
238 33 m 0
 230 -5.66666666667 208.333333333 -39 173 -67 c 0
 126.333333333 -104.333333333 86 -123 52 -123 c 1
 60 -87 l 1
 69.3333333333 -86.3333333333 83.6666666667 -80 103 -68 c 0
 146.333333333 -41.3333333333 171 -14 177 14 c 1
 167 11.3333333333 159.333333333 8.66666666667 154 6 c 0
 142.666666667 0 134 -3 128 -3 c 0
 117.333333333 -3 107.333333333 2.66666666667 98 14 c 128
 88.6666666667 25.3333333333 84 38.3333333333 84 53 c 0
 84 57.6666666667 84.3333333333 61.3333333333 85 64 c 0
 88.3333333333 81.3333333333 98.1666666667 96.5 114.5 109.5 c 128
 130.833333333 122.5 148 129 166 129 c 0
 188.666666667 129 206.666666667 121.333333333 220 106 c 128
 233.333333333 90.6666666667 240 72.3333333333 240 51 c 0
 240 47 239.333333333 41 238 33 c 0
EndSplineSet
EndChar

StartChar: hyphen.taml
Encoding: 15 -1 15
Width: 433
Flags: HW
LayerCount: 2
Fore
SplineSet
356 181 m 1
 59 181 l 1
 78 269 l 1
 375 269 l 1
 356 181 l 1
EndSplineSet
EndChar

StartChar: period.taml
Encoding: 16 -1 16
Width: 246
Flags: HW
LayerCount: 2
Fore
SplineSet
191 61 m 0
 187.666666667 43.6666666667 177 28.6666666667 159 16 c 128
 141 3.33333333333 122 -3 102 -3 c 0
 84 -3 69.6666666667 2 59 12 c 128
 48.3333333333 22 43 34.6666666667 43 50 c 0
 43 54.6666666667 43.3333333333 58.3333333333 44 61 c 0
 48 79 58.5 94.5 75.5 107.5 c 128
 92.5 120.5 110.666666667 127 130 127 c 0
 147.333333333 127 162 121.666666667 174 111 c 128
 186 100.333333333 192 87.3333333333 192 72 c 0
 192 67.3333333333 191.666666667 63.6666666667 191 61 c 0
EndSplineSet
EndChar

StartChar: slash.taml
Encoding: 18 -1 18
Width: 274
Flags: HW
LayerCount: 2
Fore
SplineSet
412 615 m 1
 15 -97 l 1
 -48 -97 l 1
 351 615 l 1
 412 615 l 1
EndSplineSet
EndChar

StartChar: zero.taml
Encoding: 19 -1 19
Width: 345
Flags: HW
LayerCount: 2
Fore
SplineSet
381 219 m 0
 364.333333333 143 334 83.3333333333 290 40 c 0
 254.666666667 5.33333333333 214.666666667 -12 170 -12 c 0
 127.333333333 -12 95.6666666667 4.33333333333 75 37 c 0
 58.3333333333 63.6666666667 50 98.6666666667 50 142 c 0
 50 158.666666667 50.6666666667 171.666666667 52 181 c 128
 53.3333333333 190.333333333 55.6666666667 203 59 219 c 0
 71 275 91.6666666667 324 121 366 c 0
 161.666666667 423.333333333 211 452 269 452 c 0
 311.666666667 452 343.333333333 435 364 401 c 0
 380.666666667 373 389 337.333333333 389 294 c 0
 389 278.666666667 388.5 266.666666667 387.5 258 c 128
 386.5 249.333333333 384.333333333 236.333333333 381 219 c 0
296 219 m 0
 301.333333333 244.333333333 304.333333333 260 305 266 c 0
 309 291.333333333 311 313 311 331 c 0
 311 355.666666667 307.666666667 374.666666667 301 388 c 0
 292.333333333 404.666666667 279 413 261 413 c 0
 227 413 198.666666667 386 176 332 c 0
 164.666666667 304.666666667 154.333333333 267 145 219 c 0
 140.333333333 199.666666667 136.666666667 182.333333333 134 167 c 0
 129.333333333 140.333333333 127 118.333333333 127 101 c 0
 127 77.6666666667 130.833333333 59.1666666667 138.5 45.5 c 128
 146.166666667 31.8333333333 159.333333333 25 178 25 c 0
 211.333333333 25 239.333333333 51.3333333333 262 104 c 0
 274.666666667 132.666666667 286 171 296 219 c 0
EndSplineSet
EndChar

StartChar: one.taml
Encoding: 20 -1 20
Width: 345
Flags: HW
LayerCount: 2
Fore
SplineSet
278 -3 m 1
 74 -3 l 1
 81 27 l 1
 99.6666666667 27 112.333333333 27.6666666667 119 29 c 0
 136.333333333 32.3333333333 147.333333333 44.6666666667 152 66 c 2
 213 355 l 2
 214.333333333 360.333333333 215 364.333333333 215 367 c 0
 215 372.333333333 211.666666667 375 205 375 c 0
 201 375 197 374.333333333 193 373 c 0
 179.666666667 368.333333333 164.333333333 363 147 357 c 1
 153 388 l 1
 296 452 l 1
 312 445 l 1
 229 55 l 2
 228.333333333 53 228 50.8333333333 228 48.5 c 128
 228 45 228 45 228 44 c 0
 228 36.6666666667 231.833333333 32 239.5 30 c 128
 247.166666667 28 262.333333333 27 285 27 c 1
 278 -3 l 1
EndSplineSet
EndChar

StartChar: two.taml
Encoding: 21 -1 21
Width: 345
Flags: HW
LayerCount: 2
Fore
SplineSet
359 102 m 1
 291 -3 l 1
 15 -3 l 1
 21 20 l 1
 168 144 l 2
 236 202 275 254.666666667 285 302 c 0
 286.333333333 310 287 316.333333333 287 321 c 0
 287 338.333333333 282.666666667 352 274 362 c 0
 262.666666667 375.333333333 243.666666667 382 217 382 c 0
 192.333333333 382 171 373.333333333 153 356 c 0
 143 346.666666667 129.666666667 328 113 300 c 1
 82 306 l 1
 103.333333333 358 131.333333333 396.333333333 166 421 c 0
 195.333333333 441.666666667 228 452 264 452 c 0
 294 452 319.333333333 443 340 425 c 128
 360.666666667 407 371 383 371 353 c 0
 371 344.333333333 370 335 368 325 c 0
 361.333333333 294.333333333 343.666666667 262.333333333 315 229 c 0
 297.666666667 209 274.333333333 186.666666667 245 162 c 2
 130 67 l 1
 264 67 l 2
 276.666666667 67 286.666666667 69.1666666667 294 73.5 c 128
 301.333333333 77.8333333333 314.333333333 90 333 110 c 1
 359 102 l 1
EndSplineSet
EndChar

StartChar: three.taml
Encoding: 22 -1 22
Width: 345
Flags: HW
LayerCount: 2
Fore
SplineSet
335 146 m 0
 325 98.6666666667 298.5 60.5 255.5 31.5 c 128
 212.5 2.5 163 -12 107 -12 c 0
 89 -12 73.3333333333 -9.33333333333 60 -4 c 0
 38.6666666667 4.66666666667 29.6666666667 17.6666666667 33 35 c 0
 35.6666666667 47 41 55.5 49 60.5 c 128
 57 65.5 65.6666666667 68 75 68 c 256
 84.3333333333 68 94.6666666667 64.3333333333 106 57 c 0
 132.666666667 40.3333333333 151.666666667 32 163 32 c 0
 188.333333333 32 210.333333333 41.3333333333 229 60 c 0
 245 76 255.666666667 96 261 120 c 0
 262.333333333 128 263 134.333333333 263 139 c 0
 263 158.333333333 255.666666667 173.666666667 241 185 c 0
 220.333333333 201 187 209 141 209 c 1
 147 236 l 1
 185.666666667 246.666666667 214.666666667 258.666666667 234 272 c 0
 258 288.666666667 272.666666667 309.666666667 278 335 c 0
 278.666666667 337.666666667 279 342 279 348 c 0
 279 360.666666667 274.833333333 371.166666667 266.5 379.5 c 128
 258.166666667 387.833333333 245.333333333 392 228 392 c 0
 204 392 181.666666667 383.666666667 161 367 c 0
 154.333333333 361.666666667 141 347.333333333 121 324 c 1
 94 331 l 1
 118 376.333333333 147 409 181 429 c 0
 206.333333333 444.333333333 233.333333333 452 262 452 c 0
 298 452 324 443 340 425 c 0
 352.666666667 411 359 393.333333333 359 372 c 0
 359 367 359 367 359 362 c 0
 357.666666667 358 357 355.333333333 357 354 c 0
 353.666666667 338 346.5 322.833333333 335.5 308.5 c 128
 324.5 294.166666667 308.666666667 280 288 266 c 1
 302 258.666666667 313 249.333333333 321 238 c 0
 333 222 339 203 339 181 c 0
 339 173 339 173 339 165 c 0
 337 156.333333333 335.666666667 150 335 146 c 0
EndSplineSet
EndChar

StartChar: four.taml
Encoding: 23 -1 23
Width: 345
Flags: HW
LayerCount: 2
Fore
SplineSet
353 103 m 1
 285 103 l 1
 262 -3 l 1
 190 -3 l 1
 213 103 l 1
 27 103 l 1
 39 159 l 1
 313 451 l 1
 359 452 l 1
 298 167 l 1
 366 167 l 1
 353 103 l 1
285 364 m 1
 281.666666667 364 245 326.333333333 175 251 c 0
 143.666666667 217.666666667 117.333333333 189.666666667 96 167 c 1
 225 167 l 1
 269 372 l 2
 269 374 269.166666667 376.333333333 269.5 379 c 128
 269.833333333 381.666666667 276.333333333 383 289 383 c 1
 285 364 l 1
EndSplineSet
EndChar

StartChar: five.taml
Encoding: 24 -1 24
Width: 345
Flags: HW
LayerCount: 2
Fore
SplineSet
407 445 m 1
 363 382 l 2
 357.666666667 372 348.333333333 367 335 367 c 2
 212 367 l 1
 185 331 l 1
 216.333333333 326.333333333 241.333333333 320 260 312 c 0
 285.333333333 301.333333333 304.666666667 286 318 266 c 0
 332 242.666666667 339 222 339 204 c 0
 339 189.333333333 336.666666667 171.333333333 332 150 c 0
 322 104 296 65.5 254 34.5 c 128
 212 3.5 163.333333333 -12 108 -12 c 0
 78.6666666667 -12 56.6666666667 -7.33333333333 42 2 c 128
 27.3333333333 11.3333333333 21.6666666667 23 25 37 c 0
 27.6666666667 49.6666666667 32.5 58.6666666667 39.5 64 c 128
 46.5 69.3333333333 56.6666666667 72 70 72 c 0
 82.6666666667 72 94.6666666667 68 106 60 c 0
 132 41.3333333333 149 32 157 32 c 0
 179 32 199.333333333 40.3333333333 218 57 c 0
 239.333333333 75.6666666667 253.666666667 101.666666667 261 135 c 0
 262.333333333 140.333333333 263 148.333333333 263 159 c 0
 263 193.666666667 245 220 209 238 c 0
 179.666666667 252.666666667 146.333333333 260 109 260 c 0
 100.333333333 260 96 263.666666667 96 271 c 0
 96 275 97.3333333333 278.666666667 100 282 c 2
 208 438 l 1
 354 438 l 2
 359.333333333 438 364.666666667 440 370 444 c 0
 376.666666667 450.666666667 382.666666667 456.333333333 388 461 c 1
 407 445 l 1
EndSplineSet
EndChar

StartChar: six.taml
Encoding: 25 -1 25
Width: 345
Flags: HW
LayerCount: 2
Fore
SplineSet
359 148 m 0
 349 98 324 57.3333333333 284 26 c 0
 251.333333333 0.666666666667 214 -12 172 -12 c 0
 136 -12 107.666666667 -1.33333333333 87 20 c 0
 64.3333333333 43.3333333333 53 78 53 124 c 0
 53 142.666666667 55.6666666667 166 61 194 c 0
 76.3333333333 264.666666667 115.666666667 325.333333333 179 376 c 0
 246.333333333 430 323.333333333 457 410 457 c 1
 407 427 l 1
 352.333333333 418.333333333 304.666666667 399 264 369 c 0
 228 342.333333333 200.666666667 310 182 272 c 1
 206 285.333333333 231 292 257 292 c 0
 289 292 314.833333333 282.833333333 334.5 264.5 c 128
 354.166666667 246.166666667 364 220.666666667 364 188 c 0
 364 176.666666667 362.333333333 163.333333333 359 148 c 0
273 121 m 0
 277 139 279 156.333333333 279 173 c 0
 279 194.333333333 274.333333333 211 265 223 c 128
 255.666666667 235 240.333333333 241 219 241 c 0
 194.333333333 241 174.666666667 236 160 226 c 0
 156 222 152.166666667 215.666666667 148.5 207 c 128
 144.833333333 198.333333333 141 184.833333333 137 166.5 c 128
 133 148.166666667 131 129.333333333 131 110 c 0
 131 82.6666666667 136.5 62 147.5 48 c 128
 158.5 34 173 27 191 27 c 0
 210.333333333 27 227 34.6666666667 241 50 c 128
 255 65.3333333333 265.666666667 89 273 121 c 0
EndSplineSet
EndChar

StartChar: seven.taml
Encoding: 26 -1 26
Width: 345
Flags: HW
LayerCount: 2
Fore
SplineSet
410 442 m 1
 405 422 l 1
 170 -8 l 1
 103 -8 l 2
 103.666666667 -8 119.666666667 20.1666666667 151 76.5 c 128
 182.333333333 132.833333333 214 189.333333333 246 246 c 0
 286.666666667 319.333333333 310.333333333 362 317 374 c 1
 188 374 l 2
 167.333333333 374 149.666666667 367.333333333 135 354 c 0
 122.333333333 340 112 328.666666667 104 320 c 1
 78 332 l 1
 146 442 l 1
 410 442 l 1
EndSplineSet
EndChar

StartChar: eight.taml
Encoding: 27 -1 27
Width: 345
Flags: HW
LayerCount: 2
Fore
SplineSet
335 104 m 0
 329 76 315.333333333 52 294 32 c 0
 262.666666667 2.66666666667 220.333333333 -12 167 -12 c 0
 129.666666667 -12 101.166666667 -3 81.5 15 c 128
 61.8333333333 33 52 55 52 81 c 0
 52 85.6666666667 52.6666666667 92 54 100 c 0
 60 127.333333333 71.3333333333 149.666666667 88 167 c 0
 100 179.666666667 124.333333333 197.333333333 161 220 c 1
 141.666666667 240 128.333333333 256 121 268 c 0
 111.666666667 283.333333333 107 299.333333333 107 316 c 0
 107 323.333333333 108 332 110 342 c 0
 117.333333333 374.666666667 137 401.166666667 169 421.5 c 128
 201 441.833333333 234.333333333 452 269 452 c 0
 303 452 329.166666667 444.5 347.5 429.5 c 128
 365.833333333 414.5 375 394.666666667 375 370 c 0
 375 360.666666667 374.333333333 353.666666667 373 349 c 0
 369 331 360.333333333 314 347 298 c 0
 330.333333333 278.666666667 305.333333333 260.666666667 272 244 c 1
 296.666666667 222.666666667 314 203.166666667 324 185.5 c 128
 334 167.833333333 339 150.333333333 339 133 c 0
 339 128.333333333 338.5 123.166666667 337.5 117.5 c 128
 336.5 111.833333333 335.666666667 107.333333333 335 104 c 0
307 353 m 0
 307.666666667 356.333333333 308 361 308 367 c 0
 308 379.666666667 303.666666667 390.333333333 295 399 c 128
 286.333333333 407.666666667 273.333333333 412 256 412 c 0
 236 412 219.833333333 406.833333333 207.5 396.5 c 128
 195.166666667 386.166666667 187.333333333 373.666666667 184 359 c 0
 183.333333333 356.333333333 183 352 183 346 c 0
 183 330 189.666666667 314.333333333 203 299 c 0
 211 290.333333333 222.333333333 280.333333333 237 269 c 1
 254.333333333 279 268 289 278 299 c 0
 292.666666667 314.333333333 302.333333333 332.333333333 307 353 c 0
260 89 m 0
 261.333333333 97 262 102.666666667 262 106 c 0
 262 122.666666667 252.666666667 139.666666667 234 157 c 0
 230.666666667 159.666666667 216 172 190 194 c 1
 176 184.666666667 164.333333333 174.333333333 155 163 c 0
 142.333333333 147 133.666666667 128.666666667 129 108 c 0
 127.666666667 102.666666667 127 95.3333333333 127 86 c 0
 127 68 131.666666667 53.6666666667 141 43 c 128
 150.333333333 32.3333333333 164.666666667 27 184 27 c 0
 202.666666667 27 219 32.6666666667 233 44 c 128
 247 55.3333333333 256 70.3333333333 260 89 c 0
EndSplineSet
EndChar

StartChar: nine.taml
Encoding: 28 -1 28
Width: 345
Flags: HW
LayerCount: 2
Fore
SplineSet
377 261 m 0
 361.666666667 185 324.333333333 120.666666667 265 68 c 0
 200.333333333 10 123 -19 33 -19 c 1
 36 15 l 1
 107.333333333 26.3333333333 167.666666667 57.6666666667 217 109 c 0
 225.666666667 118.333333333 245.666666667 146.333333333 277 193 c 1
 291 187 l 1
 253.666666667 161.666666667 216 149 178 149 c 0
 142 149 115 160 97 182 c 0
 82.3333333333 200 75 224 75 254 c 0
 75 265.333333333 76 276 78 286 c 0
 88 333.333333333 109.833333333 372.833333333 143.5 404.5 c 128
 177.166666667 436.166666667 216.666666667 452 262 452 c 0
 298 452 327.166666667 439.5 349.5 414.5 c 128
 371.833333333 389.5 383 356 383 314 c 0
 383 298 381 280.333333333 377 261 c 0
287 235 m 2
 292 260 l 2
 295.333333333 272.666666667 298 285.5 300 298.5 c 128
 302 311.5 303 324.666666667 303 338 c 0
 303 360 299.333333333 377 292 389 c 0
 282.666666667 404.333333333 267.666666667 412 247 412 c 0
 224.333333333 412 205.666666667 401 191 379 c 0
 179.666666667 361.666666667 171 338.666666667 165 310 c 0
 161.666666667 295.333333333 160 280.333333333 160 265 c 0
 160 245 164.166666667 228.666666667 172.5 216 c 128
 180.833333333 203.333333333 195 197 215 197 c 0
 225 197 235.166666667 198.833333333 245.5 202.5 c 128
 255.833333333 206.166666667 264.833333333 210.5 272.5 215.5 c 128
 280.166666667 220.5 285 227 287 235 c 2
EndSplineSet
EndChar

StartChar: colon.taml
Encoding: 29 -1 29
Width: 246
Flags: HW
LayerCount: 2
Fore
SplineSet
233 325 m 0
 229 306.333333333 218.166666667 290.166666667 200.5 276.5 c 128
 182.833333333 262.833333333 164 256 144 256 c 0
 127.333333333 256 113.333333333 261.333333333 102 272 c 128
 90.6666666667 282.666666667 85 296 85 312 c 0
 85 318 85.3333333333 322.333333333 86 325 c 0
 90 344.333333333 100.666666667 361 118 375 c 128
 135.333333333 389 154 396 174 396 c 0
 191.333333333 396 205.666666667 390.666666667 217 380 c 128
 228.333333333 369.333333333 234 355.333333333 234 338 c 0
 234 332 233.666666667 327.666666667 233 325 c 0
176 56 m 0
 172 37.3333333333 161.166666667 21.1666666667 143.5 7.5 c 128
 125.833333333 -6.16666666667 107 -13 87 -13 c 0
 70.3333333333 -13 56.3333333333 -7.66666666667 45 3 c 128
 33.6666666667 13.6666666667 28 27 28 43 c 0
 28 49 28.3333333333 53.3333333333 29 56 c 0
 33 75.3333333333 43.6666666667 92 61 106 c 128
 78.3333333333 120 97 127 117 127 c 0
 134.333333333 127 148.666666667 121.666666667 160 111 c 128
 171.333333333 100.333333333 177 86.3333333333 177 69 c 0
 177 63 176.666666667 58.6666666667 176 56 c 0
EndSplineSet
EndChar

StartChar: semicolon.taml
Encoding: 30 -1 30
Width: 246
Flags: HW
LayerCount: 2
Fore
SplineSet
261 325 m 0
 257 305 246.166666667 288.333333333 228.5 275 c 128
 210.833333333 261.666666667 191.333333333 255 170 255 c 0
 153.333333333 255 139.666666667 260.333333333 129 271 c 128
 118.333333333 281.666666667 113 295.333333333 113 312 c 0
 113 317.333333333 113.333333333 321.666666667 114 325 c 0
 118 344.333333333 128.333333333 361 145 375 c 128
 161.666666667 389 180 396 200 396 c 0
 218 396 232.833333333 390.5 244.5 379.5 c 128
 256.166666667 368.5 262 354.666666667 262 338 c 0
 262 332 261.666666667 327.666666667 261 325 c 0
200 37 m 0
 191.333333333 -3 169.666666667 -37.3333333333 135 -66 c 0
 88.3333333333 -104 48 -123 14 -123 c 1
 22 -86 l 1
 36 -86 56.6666666667 -75.3333333333 84 -54 c 0
 116 -29.3333333333 134.333333333 -5.33333333333 139 18 c 1
 134.333333333 18 126.666666667 15 116 9 c 128
 105.333333333 3 96.6666666667 0 90 0 c 0
 79.3333333333 0 69.3333333333 5.83333333333 60 17.5 c 128
 50.6666666667 29.1666666667 46 42.3333333333 46 57 c 0
 46 62.3333333333 46.3333333333 66.3333333333 47 69 c 0
 50.3333333333 87 60.3333333333 102.833333333 77 116.5 c 128
 93.6666666667 130.166666667 111 137 129 137 c 0
 151.666666667 137 169.5 129.166666667 182.5 113.5 c 128
 195.5 97.8333333333 202 79 202 57 c 0
 202 53 201.333333333 46.3333333333 200 37 c 0
EndSplineSet
EndChar

StartChar: less.taml
Encoding: 31 -1 31
Width: 540
Flags: HW
LayerCount: 2
Fore
SplineSet
440 -12 m 1
 57 172 l 1
 69 232 l 1
 531 414 l 1
 515 339 l 1
 166 201 l 1
 456 63 l 1
 440 -12 l 1
EndSplineSet
EndChar

StartChar: equal.taml
Encoding: 32 -1 32
Width: 577
Flags: HW
LayerCount: 2
Fore
SplineSet
562 291 m 1
 138 291 l 1
 153 361 l 1
 577 361 l 1
 562 291 l 1
530 143 m 1
 106 143 l 1
 121 212 l 1
 545 212 l 1
 530 143 l 1
EndSplineSet
EndChar

StartChar: greater.taml
Encoding: 33 -1 33
Width: 540
Flags: HW
LayerCount: 2
Fore
SplineSet
480 172 m 1
 17 -12 l 1
 33 63 l 1
 382 201 l 1
 92 339 l 1
 108 414 l 1
 492 232 l 1
 480 172 l 1
EndSplineSet
EndChar

StartChar: question.taml
Encoding: 34 -1 34
Width: 412
Flags: HW
LayerCount: 2
Fore
SplineSet
392 314 m 0
 388 295.333333333 375.666666667 272.333333333 355 245 c 0
 338.333333333 223 320.333333333 203 301 185 c 0
 275 160.333333333 255 138.666666667 241 120 c 0
 224.333333333 97.3333333333 209 69 195 35 c 1
 162 35 l 1
 168 61.6666666667 177 88.3333333333 189 115 c 0
 194.333333333 126.333333333 202.333333333 141.333333333 213 160 c 2
 247 211 l 2
 259 229 269.333333333 247 278 265 c 0
 289.333333333 287.666666667 296.166666667 304.5 298.5 315.5 c 128
 300.833333333 326.5 302 336 302 344 c 0
 302 362 297 377.166666667 287 389.5 c 128
 277 401.833333333 261.666666667 408 241 408 c 0
 226.333333333 408 211.5 404.5 196.5 397.5 c 128
 181.5 390.5 172.666666667 382 170 372 c 0
 169.333333333 367.333333333 173.666666667 356.666666667 183 340 c 0
 188.333333333 330.666666667 190 322 188 314 c 0
 185.333333333 302.666666667 180.333333333 293.333333333 173 286 c 0
 163 276 151 271 137 271 c 256
 123 271 112.666666667 274.666666667 106 282 c 128
 99.3333333333 289.333333333 96 299.333333333 96 312 c 0
 96 316 96.6666666667 322 98 330 c 0
 106.666666667 369.333333333 129.333333333 400.333333333 166 423 c 0
 197.333333333 442.333333333 230.333333333 452 265 452 c 0
 288.333333333 452 311 447.166666667 333 437.5 c 128
 355 427.833333333 370.333333333 417 379 405 c 0
 391 385.666666667 397 367.666666667 397 351 c 0
 397 343 395.333333333 330.666666667 392 314 c 0
218 -46 m 0
 214.666666667 -62 206.333333333 -74.6666666667 193 -84 c 128
 179.666666667 -93.3333333333 166.333333333 -98 153 -98 c 0
 141.666666667 -98 132.333333333 -95.3333333333 125 -90 c 0
 115 -82.6666666667 110 -72 110 -58 c 0
 110 -53.3333333333 110.833333333 -46.8333333333 112.5 -38.5 c 128
 114.166666667 -30.1666666667 121.333333333 -21 134 -11 c 128
 146.666666667 -1 160.333333333 4 175 4 c 0
 187.666666667 4 198.166666667 0.166666666667 206.5 -7.5 c 128
 214.833333333 -15.1666666667 219 -25 219 -37 c 0
 219 -41 218.666666667 -44 218 -46 c 0
EndSplineSet
EndChar

StartChar: u0952
Encoding: 38 2386 38
Width: 10
Flags: HW
LayerCount: 2
Fore
SplineSet
-183 -367 m 1
 -632 -365 l 1
 -662 -292 l 1
 -214 -293 l 1
 -183 -367 l 1
2 0 m 1
 0 2 l 1
 2 0 l 1
2 0 m 1
 0 2 l 1
 2 0 l 1
EndSplineSet
EndChar

StartChar: u0B83
Encoding: 40 2947 40
Width: 509
Flags: HW
LayerCount: 2
Fore
SplineSet
350 382 m 0
 346.666666667 364 337.5 348.666666667 322.5 336 c 128
 307.5 323.333333333 290.666666667 317 272 317 c 0
 256 317 243.333333333 322 234 332 c 128
 224.666666667 342 220 354.666666667 220 370 c 0
 220 375.333333333 220.333333333 379.333333333 221 382 c 0
 224.333333333 399.333333333 233.666666667 414.333333333 249 427 c 128
 264.333333333 439.666666667 281.333333333 446 300 446 c 0
 314.666666667 446 326.833333333 441.166666667 336.5 431.5 c 128
 346.166666667 421.833333333 351 409.666666667 351 395 c 0
 351 389 350.666666667 384.666666667 350 382 c 0
427 66 m 0
 423.666666667 49.3333333333 414.166666667 34.5 398.5 21.5 c 128
 382.833333333 8.5 366.333333333 2 349 2 c 0
 333.666666667 2 321.166666667 6.83333333333 311.5 16.5 c 128
 301.833333333 26.1666666667 297 38.6666666667 297 54 c 0
 297 59.3333333333 297.333333333 63.3333333333 298 66 c 0
 301.333333333 83.3333333333 311 98.6666666667 327 112 c 128
 343 125.333333333 359.666666667 132 377 132 c 0
 392.333333333 132 404.666666667 127 414 117 c 128
 423.333333333 107 428 94 428 78 c 0
 428 72.6666666667 427.666666667 68.6666666667 427 66 c 0
140 66 m 0
 136.666666667 48.6666666667 127 33.6666666667 111 21 c 128
 95 8.33333333333 78.3333333333 2 61 2 c 0
 45.6666666667 2 33.3333333333 7 24 17 c 128
 14.6666666667 27 10 39.6666666667 10 55 c 0
 10 59.6666666667 10.3333333333 63.3333333333 11 66 c 0
 14.3333333333 83.3333333333 24 98.6666666667 40 112 c 128
 56 125.333333333 72.3333333333 132 89 132 c 0
 104.333333333 132 116.833333333 126.833333333 126.5 116.5 c 128
 136.166666667 106.166666667 141 93.3333333333 141 78 c 0
 141 72.6666666667 140.666666667 68.6666666667 140 66 c 0
EndSplineSet
EndChar

StartChar: u0B85
Encoding: 41 2949 41
Width: 815
Flags: HW
AnchorPoint: "V" 421 453 basechar 0
AnchorPoint: "N" 421 -76 basechar 0
LayerCount: 2
Fore
SplineSet
703 -76 m 1
 611 -76 l 1
 654 128 l 1
 575 128 l 1
 539.666666667 86.6666666667 494.833333333 54.5 440.5 31.5 c 128
 386.166666667 8.5 327.666666667 -3 265 -3 c 0
 189.666666667 -3 131.666666667 11.6666666667 91 41 c 0
 62.3333333333 61.6666666667 41.6666666667 90.3333333333 29 127 c 0
 27.6666666667 131 27 134.666666667 27 138 c 0
 27 148.666666667 31.1666666667 158.166666667 39.5 166.5 c 128
 47.8333333333 174.833333333 60 179 76 179 c 2
 519 179 l 1
 541.666666667 209.666666667 556.333333333 241 563 273 c 0
 565.666666667 283.666666667 567 294.666666667 567 306 c 0
 567 323.333333333 563 338.166666667 555 350.5 c 128
 547 362.833333333 535.666666667 372.666666667 521 380 c 1
 525 370 527 358.333333333 527 345 c 0
 527 334 527 334 527 324 c 0
 525 316.666666667 523.666666667 311.666666667 523 309 c 0
 515.666666667 276.333333333 502.333333333 250.666666667 483 232 c 0
 460.333333333 210 429.666666667 199 391 199 c 0
 363.666666667 199 343.166666667 207.333333333 329.5 224 c 128
 315.833333333 240.666666667 309 262.333333333 309 289 c 0
 309 302.333333333 310.333333333 314.333333333 313 325 c 0
 321 361 339 390.666666667 367 414 c 0
 397.666666667 439.333333333 434.666666667 452 478 452 c 0
 530.666666667 452 571.666666667 439.666666667 601 415 c 128
 630.333333333 390.333333333 645 354.666666667 645 308 c 0
 645 291.333333333 642.666666667 271.833333333 638 249.5 c 128
 633.333333333 227.166666667 624.666666667 203.666666667 612 179 c 1
 665 179 l 1
 723 452 l 1
 815 452 l 1
 703 -76 l 1
450 317 m 0
 452 325 453 332.666666667 453 340 c 0
 453 364.666666667 446.333333333 380.333333333 433 387 c 1
 417.666666667 389.666666667 403.5 384.5 390.5 371.5 c 128
 377.5 358.5 369 342.666666667 365 324 c 0
 363.666666667 316 363 310.333333333 363 307 c 0
 363 294.333333333 366.333333333 284.666666667 373 278 c 128
 379.666666667 271.333333333 387.666666667 268 397 268 c 0
 411 268 422.833333333 273 432.5 283 c 128
 442.166666667 293 448 304.333333333 450 317 c 0
471 128 m 1
 95 128 l 2
 86.3333333333 128 82.6666666667 125.666666667 84 121 c 0
 94.6666666667 99.6666666667 112.666666667 83 138 71 c 0
 168.666666667 56.3333333333 208.666666667 49 258 49 c 0
 340 49 411 75.3333333333 471 128 c 1
EndSplineSet
EndChar

StartChar: u0B86
Encoding: 42 2950 42
Width: 994
Flags: HW
AnchorPoint: "V" 471 453 basechar 0
AnchorPoint: "N" 471 -246 basechar 0
LayerCount: 2
Fore
SplineSet
909 51 m 0
 889 -43.6666666667 842.333333333 -117.666666667 769 -171 c 0
 700.333333333 -221 618 -246 522 -246 c 0
 443.333333333 -246 382.5 -235.666666667 339.5 -215 c 128
 296.5 -194.333333333 275 -166 275 -130 c 0
 275 -126.666666667 275.666666667 -120.333333333 277 -111 c 0
 283.666666667 -81.6666666667 301.5 -58.8333333333 330.5 -42.5 c 128
 359.5 -26.1666666667 392.666666667 -18 430 -18 c 0
 456 -18 480.666666667 -22.8333333333 504 -32.5 c 128
 527.333333333 -42.1666666667 547 -55.3333333333 563 -72 c 1
 537 -105 l 1
 521 -90.3333333333 502.5 -79.5 481.5 -72.5 c 128
 460.5 -65.5 438.666666667 -62 416 -62 c 0
 391.333333333 -62 371.5 -66.1666666667 356.5 -74.5 c 128
 341.5 -82.8333333333 332.333333333 -94.6666666667 329 -110 c 0
 328.333333333 -112.666666667 328 -117 328 -123 c 0
 328 -148.333333333 346.333333333 -167 383 -179 c 0
 413.666666667 -189 453.666666667 -194 503 -194 c 0
 580.333333333 -194 648.333333333 -170.833333333 707 -124.5 c 128
 765.666666667 -78.1666666667 802.333333333 -21.3333333333 817 46 c 0
 820.333333333 64 822 78 822 88 c 0
 822 111.333333333 817.333333333 128.666666667 808 140 c 128
 798.666666667 151.333333333 786.666666667 157 772 157 c 0
 765.333333333 157 758.333333333 155 751 151 c 1
 703 -76 l 1
 611 -76 l 1
 654 128 l 1
 575 128 l 1
 539.666666667 86.6666666667 494.833333333 54.5 440.5 31.5 c 128
 386.166666667 8.5 327.666666667 -3 265 -3 c 0
 189.666666667 -3 131.666666667 11.6666666667 91 41 c 0
 62.3333333333 61.6666666667 41.6666666667 90.3333333333 29 127 c 0
 27.6666666667 131 27 134.666666667 27 138 c 0
 27 148.666666667 31.1666666667 158.166666667 39.5 166.5 c 128
 47.8333333333 174.833333333 60 179 76 179 c 2
 519 179 l 1
 541.666666667 209.666666667 556.333333333 241 563 273 c 0
 565.666666667 283.666666667 567 294.666666667 567 306 c 0
 567 323.333333333 563 338.166666667 555 350.5 c 128
 547 362.833333333 535.666666667 372.666666667 521 380 c 1
 525 370 527 358.333333333 527 345 c 0
 527 334 527 334 527 324 c 0
 525 316.666666667 523.666666667 311.666666667 523 309 c 0
 515.666666667 276.333333333 502.333333333 250.666666667 483 232 c 0
 460.333333333 210 429.666666667 199 391 199 c 0
 363.666666667 199 343.166666667 207.333333333 329.5 224 c 128
 315.833333333 240.666666667 309 262.333333333 309 289 c 0
 309 302.333333333 310.333333333 314.333333333 313 325 c 0
 321 361 339 390.666666667 367 414 c 0
 397.666666667 439.333333333 434.666666667 452 478 452 c 0
 530.666666667 452 571.666666667 439.666666667 601 415 c 128
 630.333333333 390.333333333 645 354.666666667 645 308 c 0
 645 291.333333333 642.666666667 271.833333333 638 249.5 c 128
 633.333333333 227.166666667 624.666666667 203.666666667 612 179 c 1
 665 179 l 1
 723 452 l 1
 815 452 l 1
 763 207 l 1
 778.333333333 215 795 219 813 219 c 0
 843 219 867.5 208.833333333 886.5 188.5 c 128
 905.5 168.166666667 915 139 915 101 c 0
 915 85.6666666667 913 69 909 51 c 0
450 317 m 0
 452 325 453 332.666666667 453 340 c 0
 453 364.666666667 446.333333333 380.333333333 433 387 c 1
 417.666666667 389.666666667 403.5 384.5 390.5 371.5 c 128
 377.5 358.5 369 342.666666667 365 324 c 0
 363.666666667 316 363 310.333333333 363 307 c 0
 363 294.333333333 366.333333333 284.666666667 373 278 c 128
 379.666666667 271.333333333 387.666666667 268 397 268 c 0
 411 268 422.833333333 273 432.5 283 c 128
 442.166666667 293 448 304.333333333 450 317 c 0
471 128 m 1
 95 128 l 2
 86.3333333333 128 82.6666666667 125.666666667 84 121 c 0
 94.6666666667 99.6666666667 112.666666667 83 138 71 c 0
 168.666666667 56.3333333333 208.666666667 49 258 49 c 0
 340 49 411 75.3333333333 471 128 c 1
EndSplineSet
EndChar

StartChar: u0B87
Encoding: 43 2951 43
Width: 771
Flags: HW
AnchorPoint: "V" 369 631.126 basechar 0
AnchorPoint: "N" 369 -94 basechar 0
LayerCount: 2
Fore
SplineSet
727 246 m 0
 712.333333333 177.333333333 687 106.333333333 651 33 c 0
 627 -15.6666666667 602.333333333 -58 577 -94 c 1
 538 -76 l 1
 561.333333333 -44.6666666667 584 -6 606 40 c 0
 636 102 657.666666667 163.333333333 671 224 c 0
 677.666666667 254.666666667 681 285 681 315 c 0
 681 389 659.833333333 447.166666667 617.5 489.5 c 128
 575.166666667 531.833333333 518 553 446 553 c 0
 366.666666667 553 295.5 530.833333333 232.5 486.5 c 128
 169.5 442.166666667 131 386.666666667 117 320 c 0
 113 300.666666667 111 280 111 258 c 0
 111 237.333333333 112.333333333 218.333333333 115 201 c 128
 117.666666667 183.666666667 122.666666667 164.666666667 130 144 c 1
 198.666666667 175.333333333 268 191 338 191 c 0
 348 191 359.5 190.333333333 372.5 189 c 128
 385.5 187.666666667 397.666666667 186.333333333 409 185 c 1
 420.333333333 208.333333333 428.333333333 231 433 253 c 0
 435 261.666666667 436.333333333 271.666666667 437 283 c 128
 437.666666667 294.333333333 438 300.333333333 438 301 c 0
 438 339.666666667 423.666666667 366.333333333 395 381 c 1
 399 371 401 358.666666667 401 344 c 0
 401 335 401 335 401 327 c 0
 399 319 397.666666667 313 397 309 c 0
 389.666666667 276.333333333 376.333333333 250.666666667 357 232 c 0
 333.666666667 210 303 199 265 199 c 0
 238.333333333 199 218 207.333333333 204 224 c 128
 190 240.666666667 183 262.333333333 183 289 c 0
 183 302.333333333 184.333333333 314.333333333 187 325 c 0
 195 361 213.5 391.166666667 242.5 415.5 c 128
 271.5 439.833333333 307.666666667 452 351 452 c 0
 463.666666667 452 520 404 520 308 c 0
 520 291.333333333 518 273.333333333 514 254 c 0
 506.666666667 222 496.333333333 192 483 164 c 1
 509.666666667 152.666666667 530.333333333 138.666666667 545 122 c 128
 559.666666667 105.333333333 567 86 567 64 c 0
 567 54.6666666667 566.333333333 47.6666666667 565 43 c 0
 555.666666667 -1 532.333333333 -34.3333333333 495 -57 c 128
 457.666666667 -79.6666666667 411 -91 355 -91 c 0
 333 -91 312.833333333 -89.1666666667 294.5 -85.5 c 128
 276.166666667 -81.8333333333 257.666666667 -76 239 -68 c 1
 196.333333333 -83.3333333333 155 -91 115 -91 c 0
 79.6666666667 -91 51.3333333333 -84 30 -70 c 128
 8.66666666667 -56 -2 -35.3333333333 -2 -8 c 0
 -2 -0.666666666667 -0.5 10.1666666667 2.5 24.5 c 128
 5.5 38.8333333333 13.3333333333 54 26 70 c 128
 38.6666666667 86 56.3333333333 101.333333333 79 116 c 1
 71.6666666667 136 66.3333333333 157.166666667 63 179.5 c 128
 59.6666666667 201.833333333 58 223.666666667 58 245 c 0
 58 267 58.5 282.333333333 59.5 291 c 128
 60.5 299.666666667 62.6666666667 311 66 325 c 0
 87.3333333333 425 137 503.666666667 215 561 c 0
 287 614.333333333 370 641 464 641 c 0
 550.666666667 641 618.333333333 617 667 569 c 128
 715.666666667 521 740 452.666666667 740 364 c 0
 740 346 739 327.5 737 308.5 c 128
 735 289.5 731.666666667 268.666666667 727 246 c 0
323 317 m 0
 325 326.333333333 326 334.666666667 326 342 c 0
 326 366 319.333333333 381 306 387 c 1
 290.666666667 389.666666667 276.833333333 384.5 264.5 371.5 c 128
 252.166666667 358.5 244 342.666666667 240 324 c 0
 238.666666667 316 238 310.333333333 238 307 c 0
 238 295 241.166666667 285.5 247.5 278.5 c 128
 253.833333333 271.5 261.666666667 268 271 268 c 0
 284.333333333 268 295.833333333 273 305.5 283 c 128
 315.166666667 293 321 304.333333333 323 317 c 0
480 45 m 0
 484 67.6666666667 474.333333333 87.6666666667 451 105 c 1
 411.666666667 47.6666666667 364.333333333 2 309 -32 c 1
 318.333333333 -34.6666666667 327.333333333 -36.3333333333 336 -37 c 128
 344.666666667 -37.6666666667 354.666666667 -38 366 -38 c 0
 397.333333333 -38 422.833333333 -30.1666666667 442.5 -14.5 c 128
 462.166666667 1.16666666667 474.666666667 21 480 45 c 0
381 135 m 1
 363.666666667 139 345 141 325 141 c 0
 296.333333333 141 267.333333333 137.333333333 238 130 c 128
 208.666666667 122.666666667 179.333333333 112 150 98 c 1
 153.333333333 91.3333333333 156.666666667 85.1666666667 160 79.5 c 128
 163.333333333 73.8333333333 168 67.6666666667 174 61 c 0
 184.666666667 47 194.833333333 35.1666666667 204.5 25.5 c 128
 214.166666667 15.8333333333 226 6.66666666667 240 -2 c 1
 266 12.6666666667 291.5 32.1666666667 316.5 56.5 c 128
 341.5 80.8333333333 363 107 381 135 c 1
177 -30 m 1
 164.333333333 -18.6666666667 156.666666667 -12 154 -10 c 0
 140.666666667 2.66666666667 129.333333333 15.6666666667 120 29 c 2
 99 70 l 1
 71.6666666667 51.3333333333 56 32.3333333333 52 13 c 0
 48.6666666667 -2.33333333333 53.6666666667 -14.6666666667 67 -24 c 128
 80.3333333333 -33.3333333333 98.6666666667 -38 122 -38 c 0
 140 -38 158.333333333 -35.3333333333 177 -30 c 1
EndSplineSet
EndChar

StartChar: u0B88
Encoding: 44 2952 44
Width: 515
Flags: HW
AnchorPoint: "V" 240 453 basechar 0
AnchorPoint: "N" 240 -3 basechar 0
LayerCount: 2
Fore
SplineSet
466 224 m 0
 462.666666667 210 455 197.833333333 443 187.5 c 128
 431 177.166666667 418 172 404 172 c 0
 392 172 382 176 374 184 c 128
 366 192 362 202 362 214 c 0
 362 218 362.833333333 224.166666667 364.5 232.5 c 128
 366.166666667 240.833333333 373.166666667 250.333333333 385.5 261 c 128
 397.833333333 271.666666667 411.333333333 277 426 277 c 0
 438.666666667 277 448.666666667 273 456 265 c 128
 463.333333333 257 467 246.666666667 467 234 c 0
 467 229.333333333 466.666666667 226 466 224 c 0
473 399 m 1
 376 399 l 1
 290 -3 l 1
 200 -3 l 1
 286 399 l 1
 134 399 l 1
 48 -3 l 1
 -4 -3 l 1
 93 452 l 1
 484 452 l 1
 473 399 l 1
224 224 m 0
 220.666666667 210 213 197.833333333 201 187.5 c 128
 189 177.166666667 176 172 162 172 c 0
 149.333333333 172 139 176 131 184 c 128
 123 192 119 202 119 214 c 0
 119 218 119.333333333 221.333333333 120 224 c 0
 123.333333333 238 131.166666667 250.333333333 143.5 261 c 128
 155.833333333 271.666666667 169.333333333 277 184 277 c 0
 196.666666667 277 206.666666667 273 214 265 c 128
 221.333333333 257 225 246.666666667 225 234 c 0
 225 229.333333333 224.666666667 226 224 224 c 0
EndSplineSet
EndChar

StartChar: u0B89
Encoding: 45 2953 45
Width: 797
Flags: HW
AnchorPoint: "V" 384.5 453 basechar 0
AnchorPoint: "N" 384.5 -3 basechar 0
LayerCount: 2
Fore
SplineSet
718 -3 m 2
 82 -3 l 2
 57.3333333333 -3 38.6666666667 2.5 26 13.5 c 128
 13.3333333333 24.5 7 38.3333333333 7 55 c 0
 7 76.3333333333 16.6666666667 95.6666666667 36 113 c 128
 55.3333333333 130.333333333 81 139 113 139 c 2
 235 139 l 2
 262.333333333 139 287.333333333 152 310 178 c 0
 330 200.666666667 343 226.666666667 349 256 c 0
 353 275.333333333 355 292.666666667 355 308 c 0
 355 336.666666667 346.5 359 329.5 375 c 128
 312.5 391 285.666666667 399 249 399 c 0
 229 399 209 395 189 387 c 128
 169 379 152 368.333333333 138 355 c 1
 155.333333333 364.333333333 173.333333333 369 192 369 c 0
 216.666666667 369 236.166666667 360.833333333 250.5 344.5 c 128
 264.833333333 328.166666667 272 307.666666667 272 283 c 0
 272 275 271 266.333333333 269 257 c 0
 261.666666667 223 246 196.333333333 222 177 c 128
 198 157.666666667 169.333333333 148 136 148 c 0
 107.333333333 148 86.5 156.333333333 73.5 173 c 128
 60.5 189.666666667 54 212.333333333 54 241 c 0
 54 249 54.5 257.833333333 55.5 267.5 c 128
 56.5 277.166666667 58.3333333333 288 61 300 c 0
 69.6666666667 340 92.6666666667 374.666666667 130 404 c 0
 170.666666667 436 218.666666667 452 274 452 c 256
 329.333333333 452 371.333333333 439.333333333 400 414 c 128
 428.666666667 388.666666667 443 354.333333333 443 311 c 0
 443 295 441 278 437 260 c 0
 424.333333333 201.333333333 399.833333333 157 363.5 127 c 128
 327.166666667 97 280.333333333 82 223 82 c 2
 127 82 l 2
 105 82 94 74.6666666667 94 60 c 0
 94 49.3333333333 102 44 118 44 c 2
 728 44 l 2
 738.666666667 44 747 42 753 38 c 128
 759 34 762 29.3333333333 762 24 c 0
 762 17.3333333333 758 11.1666666667 750 5.5 c 128
 742 -0.166666666667 731.333333333 -3 718 -3 c 2
191 273 m 0
 191 282.333333333 187.833333333 290 181.5 296 c 128
 175.166666667 302 167.333333333 305 158 305 c 0
 140 305 123.333333333 296.333333333 108 279 c 1
 106 269.666666667 105 261.333333333 105 254 c 0
 105 240.666666667 108 229.833333333 114 221.5 c 128
 120 213.166666667 128.666666667 209 140 209 c 0
 155.333333333 209 167.666666667 215.833333333 177 229.5 c 128
 186.333333333 243.166666667 191 257.666666667 191 273 c 0
EndSplineSet
EndChar

StartChar: u0B8A
Encoding: 46 2954 46
Width: 1285
Flags: HW
AnchorPoint: "V" 646 453 basechar 0
AnchorPoint: "N" 646 -3 basechar 0
LayerCount: 2
Fore
SplineSet
1274 399 m 1
 1177 399 l 1
 1104 56 l 1
 1013 56 l 1
 1086 399 l 1
 993 399 l 1
 920 56 l 1
 829 56 l 1
 883 310 l 2
 884.333333333 318 885 323.333333333 885 326 c 0
 885 348.666666667 875.166666667 366.5 855.5 379.5 c 128
 835.833333333 392.5 808.333333333 399 773 399 c 0
 735.666666667 399 700 391.333333333 666 376 c 0
 636 362.666666667 613 346.333333333 597 327 c 1
 619.666666667 338.333333333 645.666666667 344 675 344 c 0
 707 344 732.333333333 334.666666667 751 316 c 128
 769.666666667 297.333333333 779 272 779 240 c 0
 779 226.666666667 777.666666667 214.666666667 775 204 c 0
 765 158.666666667 747.666666667 122.666666667 723 96 c 128
 698.333333333 69.3333333333 667.333333333 56 630 56 c 0
 592 56 562.333333333 67.5 541 90.5 c 128
 519.666666667 113.5 509 146.333333333 509 189 c 0
 509 207 511.666666667 228.666666667 517 254 c 0
 530.333333333 315.333333333 560.666666667 363.666666667 608 399 c 128
 655.333333333 434.333333333 711 452 775 452 c 0
 822.333333333 452 859.5 447.333333333 886.5 438 c 128
 913.5 428.666666667 933 416.666666667 945 402 c 1
 956 452 l 1
 1285 452 l 1
 1274 399 l 1
1144 -3 m 2
 82 -3 l 2
 57.3333333333 -3 38.6666666667 2.5 26 13.5 c 128
 13.3333333333 24.5 7 38.3333333333 7 55 c 0
 7 76.3333333333 16.6666666667 95.6666666667 36 113 c 128
 55.3333333333 130.333333333 81 139 113 139 c 2
 235 139 l 2
 262.333333333 139 287.333333333 152 310 178 c 0
 330 200.666666667 343 226.666666667 349 256 c 0
 353 275.333333333 355 292.666666667 355 308 c 0
 355 336.666666667 346.5 359 329.5 375 c 128
 312.5 391 285.666666667 399 249 399 c 0
 229 399 209 395 189 387 c 128
 169 379 152 368.333333333 138 355 c 1
 155.333333333 364.333333333 173.333333333 369 192 369 c 0
 216.666666667 369 236.166666667 360.833333333 250.5 344.5 c 128
 264.833333333 328.166666667 272 307.666666667 272 283 c 0
 272 275 271 266.333333333 269 257 c 0
 261.666666667 223 246 196.333333333 222 177 c 128
 198 157.666666667 169.333333333 148 136 148 c 0
 107.333333333 148 86.5 156.333333333 73.5 173 c 128
 60.5 189.666666667 54 212.333333333 54 241 c 0
 54 249 54.5 257.833333333 55.5 267.5 c 128
 56.5 277.166666667 58.3333333333 288 61 300 c 0
 69.6666666667 340 92.6666666667 374.666666667 130 404 c 0
 170.666666667 436 218.666666667 452 274 452 c 256
 329.333333333 452 371.333333333 439.333333333 400 414 c 128
 428.666666667 388.666666667 443 354.333333333 443 311 c 0
 443 295 441 278 437 260 c 0
 424.333333333 201.333333333 399.833333333 157 363.5 127 c 128
 327.166666667 97 280.333333333 82 223 82 c 2
 127 82 l 2
 105 82 94 74.6666666667 94 60 c 0
 94 49.3333333333 102 44 118 44 c 2
 1154 44 l 2
 1165.33333333 44 1173.83333333 42.1666666667 1179.5 38.5 c 128
 1185.16666667 34.8333333333 1188 30 1188 24 c 0
 1188 17.3333333333 1184 11.1666666667 1176 5.5 c 128
 1168 -0.166666666667 1157.33333333 -3 1144 -3 c 2
682 205 m 0
 682.666666667 208.333333333 683 213.333333333 683 220 c 0
 683 236 678.5 249.833333333 669.5 261.5 c 128
 660.5 273.166666667 649 279 635 279 c 0
 619.666666667 279 605.5 274.833333333 592.5 266.5 c 128
 579.5 258.166666667 570.333333333 248.333333333 565 237 c 0
 563 227.666666667 562 218.333333333 562 209 c 0
 562 189 566 171.5 574 156.5 c 128
 582 141.5 594.333333333 134 611 134 c 0
 629 134 644.166666667 140.833333333 656.5 154.5 c 128
 668.833333333 168.166666667 677.333333333 185 682 205 c 0
191 273 m 0
 191 282.333333333 187.833333333 290 181.5 296 c 128
 175.166666667 302 167.333333333 305 158 305 c 0
 140 305 123.333333333 296.333333333 108 279 c 1
 106 269.666666667 105 261.333333333 105 254 c 0
 105 240.666666667 108 229.833333333 114 221.5 c 128
 120 213.166666667 128.666666667 209 140 209 c 0
 155.333333333 209 167.666666667 215.833333333 177 229.5 c 128
 186.333333333 243.166666667 191 257.666666667 191 273 c 0
EndSplineSet
EndChar

StartChar: u0B8E
Encoding: 47 2958 47
Width: 636
Flags: HW
AnchorPoint: "V" 334 453 basechar 0
AnchorPoint: "N" 334 -3 basechar 0
LayerCount: 2
Fore
SplineSet
625 399 m 1
 527 399 l 1
 441 -3 l 1
 350 -3 l 1
 436 399 l 1
 307 399 l 2
 258.333333333 399 216 386 180 360 c 0
 150 338.666666667 127.666666667 311.666666667 113 279 c 1
 139 294.333333333 167.333333333 302 198 302 c 0
 232.666666667 302 259.666666667 292 279 272 c 128
 298.333333333 252 308 225.333333333 308 192 c 0
 308 181 308 181 308 170 c 0
 306 162.666666667 304.666666667 157.666666667 304 155 c 0
 293.333333333 106.333333333 275.166666667 67.8333333333 249.5 39.5 c 128
 223.833333333 11.1666666667 191.333333333 -3 152 -3 c 0
 72 -3 32 42 32 132 c 0
 32 154.666666667 35 180 41 208 c 0
 57 283.333333333 89.1666666667 342.833333333 137.5 386.5 c 128
 185.833333333 430.166666667 243 452 309 452 c 2
 636 452 l 1
 625 399 l 1
213 154 m 0
 214.333333333 162 215 167.666666667 215 171 c 0
 215 189 210.166666667 204.5 200.5 217.5 c 128
 190.833333333 230.5 178.666666667 237 164 237 c 0
 147.333333333 237 132.333333333 232.166666667 119 222.5 c 128
 105.666666667 212.833333333 95.6666666667 201.333333333 89 188 c 1
 85.6666666667 171.333333333 84 157 84 145 c 0
 84 121.666666667 88.3333333333 103.833333333 97 91.5 c 128
 105.666666667 79.1666666667 119.666666667 73 139 73 c 0
 157.666666667 73 174 81.6666666667 188 99 c 0
 199.333333333 113 207.666666667 131.333333333 213 154 c 0
EndSplineSet
EndChar

StartChar: u0B8F
Encoding: 48 2959 48
Width: 636
Flags: HW
AnchorPoint: "V" 334 453 basechar 0
AnchorPoint: "N" 334 -139 basechar 0
LayerCount: 2
Fore
SplineSet
625 399 m 1
 527 399 l 1
 441 2 l 1
 247 -137 l 1
 162 -139 l 1
 353 10 l 1
 436 399 l 1
 307 399 l 2
 258.333333333 399 216 386 180 360 c 0
 150 338.666666667 127.666666667 311.666666667 113 279 c 1
 139 294.333333333 167.333333333 302 198 302 c 0
 232.666666667 302 259.666666667 292 279 272 c 128
 298.333333333 252 308 225.333333333 308 192 c 0
 308 181 308 181 308 170 c 0
 306 162.666666667 304.666666667 157.666666667 304 155 c 0
 293.333333333 106.333333333 275.166666667 67.8333333333 249.5 39.5 c 128
 223.833333333 11.1666666667 191.333333333 -3 152 -3 c 0
 72 -3 32 42 32 132 c 0
 32 154.666666667 35 180 41 208 c 0
 57 283.333333333 89.1666666667 342.833333333 137.5 386.5 c 128
 185.833333333 430.166666667 243 452 309 452 c 2
 636 452 l 1
 625 399 l 1
213 154 m 0
 214.333333333 162 215 167.666666667 215 171 c 0
 215 189 210.166666667 204.5 200.5 217.5 c 128
 190.833333333 230.5 178.666666667 237 164 237 c 0
 147.333333333 237 132.333333333 232.166666667 119 222.5 c 128
 105.666666667 212.833333333 95.6666666667 201.333333333 89 188 c 1
 85.6666666667 171.333333333 84 157 84 145 c 0
 84 121.666666667 88.3333333333 103.833333333 97 91.5 c 128
 105.666666667 79.1666666667 119.666666667 73 139 73 c 0
 157.666666667 73 174 81.6666666667 188 99 c 0
 199.333333333 113 207.666666667 131.333333333 213 154 c 0
EndSplineSet
EndChar

StartChar: u0B90
Encoding: 49 2960 49
Width: 644
Flags: HW
AnchorPoint: "V" 311 453 basechar 0
AnchorPoint: "N" 311 -174 basechar 0
LayerCount: 2
Fore
SplineSet
609 289 m 0
 602.333333333 257 590 226.666666667 572 198 c 0
 550.666666667 163.333333333 525.333333333 139 496 125 c 0
 458.666666667 107.666666667 402.166666667 97 326.5 93 c 128
 250.833333333 89 199.333333333 82 172 72 c 0
 158 68 144.333333333 59 131 45 c 0
 114.333333333 27 103.333333333 5.33333333333 98 -20 c 0
 96.6666666667 -25.3333333333 95.6666666667 -31.5 95 -38.5 c 128
 94.3333333333 -45.5 94 -51.6666666667 94 -57 c 0
 94 -77 98.1666666667 -92.6666666667 106.5 -104 c 128
 114.833333333 -115.333333333 128.333333333 -121 147 -121 c 256
 165.666666667 -121 184.666666667 -112.833333333 204 -96.5 c 128
 223.333333333 -80.1666666667 235 -64 239 -48 c 2
 254 23 l 1
 340 23 l 1
 325 -46 l 2
 324.333333333 -49.3333333333 324 -54 324 -60 c 0
 324 -77.3333333333 329.166666667 -92.1666666667 339.5 -104.5 c 128
 349.833333333 -116.833333333 365.666666667 -123 387 -123 c 0
 413.666666667 -123 433.666666667 -112.5 447 -91.5 c 128
 460.333333333 -70.5 467 -46 467 -18 c 0
 467 6 462 26.3333333333 452 43 c 1
 519 71 l 1
 524.333333333 60.3333333333 528 49.6666666667 530 39 c 128
 532 28.3333333333 533 16 533 2 c 0
 533 -43.3333333333 519.333333333 -83 492 -117 c 0
 461.333333333 -155 420.666666667 -174 370 -174 c 0
 344 -174 323.166666667 -169.833333333 307.5 -161.5 c 128
 291.833333333 -153.166666667 280.333333333 -142.333333333 273 -129 c 1
 258.333333333 -142.333333333 240 -153.166666667 218 -161.5 c 128
 196 -169.833333333 172.333333333 -174 147 -174 c 0
 99.6666666667 -174 64.5 -164.166666667 41.5 -144.5 c 128
 18.5 -124.833333333 7 -97.3333333333 7 -62 c 0
 7 -50.6666666667 8.66666666667 -36.6666666667 12 -20 c 0
 19.3333333333 16 34 45.6666666667 56 69 c 0
 74.6666666667 88.3333333333 98 103 126 113 c 0
 165.333333333 127 238 138 344 146 c 0
 388.666666667 149.333333333 423.666666667 156.666666667 449 168 c 0
 469 176.666666667 487 197.333333333 503 230 c 0
 513 250.666666667 520.666666667 273 526 297 c 0
 528.666666667 307.666666667 530 319.666666667 530 333 c 0
 530 353 525 369 515 381 c 128
 505 393 489.666666667 399 469 399 c 0
 452.333333333 399 437.666666667 390.666666667 425 374 c 0
 415 361.333333333 408.666666667 348.333333333 406 335 c 2
 379 205 l 1
 293 205 l 1
 319 330 l 2
 319.666666667 332.666666667 320 336.666666667 320 342 c 0
 320 356.666666667 315.333333333 369 306 379 c 0
 293.333333333 392.333333333 274.333333333 399 249 399 c 0
 229 399 209 395 189 387 c 128
 169 379 152 368.333333333 138 355 c 1
 155.333333333 364.333333333 173.333333333 369 192 369 c 0
 216.666666667 369 236.166666667 360.833333333 250.5 344.5 c 128
 264.833333333 328.166666667 272 307.666666667 272 283 c 0
 272 275 271 266.333333333 269 257 c 0
 261.666666667 223 246 196.333333333 222 177 c 128
 198 157.666666667 169.333333333 148 136 148 c 0
 107.333333333 148 86.5 156.333333333 73.5 173 c 128
 60.5 189.666666667 54 212.333333333 54 241 c 0
 54 249 54.5 257.833333333 55.5 267.5 c 128
 56.5 277.166666667 58.3333333333 288 61 300 c 0
 69.6666666667 341.333333333 92.3333333333 376.333333333 129 405 c 0
 169 436.333333333 217.333333333 452 274 452 c 0
 307.333333333 452 333 448 351 440 c 128
 369 432 381.333333333 421 388 407 c 1
 399.333333333 420.333333333 411.666666667 430.666666667 425 438 c 0
 443 447.333333333 464.333333333 452 489 452 c 0
 573 452 615 414.666666667 615 340 c 0
 615 324 613 307 609 289 c 0
191 273 m 0
 191 282.333333333 187.833333333 290 181.5 296 c 128
 175.166666667 302 167.333333333 305 158 305 c 0
 140 305 123.333333333 296.333333333 108 279 c 1
 106 269.666666667 105 261.333333333 105 254 c 0
 105 240.666666667 108 229.833333333 114 221.5 c 128
 120 213.166666667 128.666666667 209 140 209 c 0
 155.333333333 209 167.666666667 215.833333333 177 229.5 c 128
 186.333333333 243.166666667 191 257.666666667 191 273 c 0
EndSplineSet
EndChar

StartChar: u0B92
Encoding: 50 2962 50
Width: 664
Flags: HW
AnchorPoint: "V" 328 453 basechar 0
AnchorPoint: "N" 328 -246 basechar 0
LayerCount: 2
Fore
SplineSet
613 212 m 0
 602.333333333 161.333333333 582.833333333 121.833333333 554.5 93.5 c 128
 526.166666667 65.1666666667 493 51 455 51 c 0
 413 51 388.666666667 67.6666666667 382 101 c 1
 381.333333333 99 381 96.8333333333 381 94.5 c 128
 381 91 381 91 381 90 c 0
 381 70 389.666666667 55.6666666667 407 47 c 0
 421 40.3333333333 442 37 470 37 c 2
 553 37 l 1
 541 -18 l 1
 477 -18 l 2
 455 -18 436 -32 420 -60 c 0
 405.333333333 -88.6666666667 391 -117.666666667 377 -147 c 1
 358.333333333 -179 335 -203.5 307 -220.5 c 128
 279 -237.5 241.666666667 -246 195 -246 c 0
 147.666666667 -246 111 -235.666666667 85 -215 c 128
 59 -194.333333333 46 -167.666666667 46 -135 c 0
 46 -127 47 -119 49 -111 c 0
 56.3333333333 -76.3333333333 71.3333333333 -48 94 -26 c 128
 116.666666667 -4 144.333333333 7 177 7 c 1
 182 -51 l 1
 138 -51 111.333333333 -71 102 -111 c 0
 101.333333333 -113.666666667 101 -117.666666667 101 -123 c 0
 101 -143.666666667 110.666666667 -160.666666667 130 -174 c 128
 149.333333333 -187.333333333 177.333333333 -194 214 -194 c 0
 240.666666667 -194 262.333333333 -186 279 -170 c 0
 290.333333333 -159.333333333 307 -126.666666667 329 -72 c 0
 336.333333333 -54.6666666667 343.833333333 -40.1666666667 351.5 -28.5 c 128
 359.166666667 -16.8333333333 369 -7 381 1 c 1
 367 8.33333333333 356.5 18.5 349.5 31.5 c 128
 342.5 44.5 339 59.6666666667 339 77 c 0
 339 113 351.5 151.5 376.5 192.5 c 128
 401.5 233.5 426.666666667 258.333333333 452 267 c 1
 484 249 l 1
 468.666666667 238.333333333 455.833333333 223 445.5 203 c 128
 435.166666667 183 430 165.333333333 430 150 c 0
 430 130 437.666666667 120 453 120 c 0
 471.666666667 120 486 127.333333333 496 142 c 128
 506 156.666666667 514.333333333 179.333333333 521 210 c 0
 521.666666667 215.333333333 522.5 220.666666667 523.5 226 c 128
 524.5 231.333333333 525 237.666666667 525 245 c 0
 525 290.333333333 508.166666667 327.333333333 474.5 356 c 128
 440.833333333 384.666666667 400.666666667 399 354 399 c 0
 303.333333333 399 258 390.333333333 218 373 c 128
 178 355.666666667 146.333333333 328.666666667 123 292 c 1
 143 302 164.666666667 307 188 307 c 0
 220 307 245 298.333333333 263 281 c 128
 281 263.666666667 290 240.666666667 290 212 c 0
 290 204 289 195.333333333 287 186 c 0
 278.333333333 146 262 114.333333333 238 91 c 128
 214 67.6666666667 184 56 148 56 c 256
 112 56 84.6666666667 66.8333333333 66 88.5 c 128
 47.3333333333 110.166666667 38 138.666666667 38 174 c 0
 38 186.666666667 39.6666666667 200.666666667 43 216 c 0
 58.3333333333 288.666666667 93 345.333333333 147 386 c 0
 205 430 280.666666667 452 374 452 c 0
 456 452 518.333333333 433.333333333 561 396 c 0
 599 362.666666667 618 318.333333333 618 263 c 0
 618 255 617.666666667 246.5 617 237.5 c 128
 616.333333333 228.5 615 220 613 212 c 0
195 184 m 0
 196.333333333 192 197 198.333333333 197 203 c 0
 197 217 193.833333333 228.333333333 187.5 237 c 128
 181.166666667 245.666666667 171.333333333 250 158 250 c 0
 144 250 131.333333333 246.666666667 120 240 c 128
 108.666666667 233.333333333 100 224 94 212 c 0
 92.6666666667 204 92 197.333333333 92 192 c 0
 92 174 96.1666666667 158.333333333 104.5 145 c 128
 112.833333333 131.666666667 125.333333333 125 142 125 c 0
 155.333333333 125 166.666666667 130.666666667 176 142 c 128
 185.333333333 153.333333333 191.666666667 167.333333333 195 184 c 0
EndSplineSet
EndChar

StartChar: u0B93
Encoding: 51 2963 51
Width: 664
Flags: HW
AnchorPoint: "V" 328 453 basechar 0
AnchorPoint: "N" 328 -246 basechar 0
LayerCount: 2
Fore
SplineSet
613 212 m 0
 602.333333333 161.333333333 582.833333333 121.833333333 554.5 93.5 c 128
 526.166666667 65.1666666667 493 51 455 51 c 0
 432.333333333 51 415.166666667 55.5 403.5 64.5 c 128
 391.833333333 73.5 385 86 383 102 c 1
 382.333333333 99.3333333333 382 96.6666666667 382 94 c 128
 382 90 382 90 382 88 c 0
 382 68.6666666667 389.666666667 55.3333333333 405 48 c 128
 420.333333333 40.6666666667 442 37 470 37 c 2
 553 37 l 1
 541 -18 l 1
 477 -18 l 2
 455 -18 436 -32 420 -60 c 0
 405.333333333 -88.6666666667 391 -117.666666667 377 -147 c 1
 358.333333333 -179 335 -203.5 307 -220.5 c 128
 279 -237.5 241.666666667 -246 195 -246 c 0
 147.666666667 -246 111 -236 85 -216 c 128
 59 -196 46 -169.666666667 46 -137 c 0
 46 -129 47 -120.333333333 49 -111 c 0
 56.3333333333 -77 71.5 -49.3333333333 94.5 -28 c 128
 117.5 -6.66666666667 146 4 180 4 c 0
 211.333333333 4 234.833333333 -2.5 250.5 -15.5 c 128
 266.166666667 -28.5 274 -45.3333333333 274 -66 c 0
 274 -69.3333333333 273.333333333 -74.3333333333 272 -81 c 0
 268.666666667 -96.3333333333 262.666666667 -110.666666667 254 -124 c 128
 245.333333333 -137.333333333 232.666666667 -150.333333333 216 -163 c 1
 171 -135 l 1
 183 -124.333333333 191.833333333 -115.166666667 197.5 -107.5 c 128
 203.166666667 -99.8333333333 206.666666667 -92.3333333333 208 -85 c 0
 210 -75.6666666667 207.333333333 -67.6666666667 200 -61 c 128
 192.666666667 -54.3333333333 182.333333333 -51 169 -51 c 0
 133.666666667 -51 111.333333333 -71 102 -111 c 0
 101.333333333 -113.666666667 101 -117.666666667 101 -123 c 0
 101 -143.666666667 110.666666667 -160.666666667 130 -174 c 128
 149.333333333 -187.333333333 177.333333333 -194 214 -194 c 0
 250 -194 277.666666667 -178.333333333 297 -147 c 1
 315 -105.666666667 328.333333333 -75.3333333333 337 -56 c 0
 348.333333333 -29.3333333333 363 -10.3333333333 381 1 c 1
 367 8.33333333333 356.5 18.5 349.5 31.5 c 128
 342.5 44.5 339 59.6666666667 339 77 c 0
 339 113 351.5 151.5 376.5 192.5 c 128
 401.5 233.5 426.666666667 258.333333333 452 267 c 1
 484 249 l 1
 468.666666667 238.333333333 455.833333333 223 445.5 203 c 128
 435.166666667 183 430 165.333333333 430 150 c 0
 430 130 437.666666667 120 453 120 c 0
 471.666666667 120 486 127.333333333 496 142 c 128
 506 156.666666667 514.333333333 179.333333333 521 210 c 0
 521.666666667 215.333333333 522.5 220.666666667 523.5 226 c 128
 524.5 231.333333333 525 237.666666667 525 245 c 0
 525 290.333333333 508.166666667 327.333333333 474.5 356 c 128
 440.833333333 384.666666667 400.666666667 399 354 399 c 0
 303.333333333 399 258 390.333333333 218 373 c 128
 178 355.666666667 146.333333333 328.666666667 123 292 c 1
 143 302 164.666666667 307 188 307 c 0
 220 307 245 298.333333333 263 281 c 128
 281 263.666666667 290 240.666666667 290 212 c 0
 290 204 289 195.333333333 287 186 c 0
 278.333333333 146 262 114.333333333 238 91 c 128
 214 67.6666666667 184 56 148 56 c 256
 112 56 84.6666666667 66.8333333333 66 88.5 c 128
 47.3333333333 110.166666667 38 138.666666667 38 174 c 0
 38 186.666666667 39.6666666667 200.666666667 43 216 c 0
 58.3333333333 288.666666667 93 345.333333333 147 386 c 0
 205 430 280.666666667 452 374 452 c 0
 456 452 518.333333333 433.333333333 561 396 c 0
 599 362.666666667 618 318.333333333 618 263 c 0
 618 255 617.666666667 246.5 617 237.5 c 128
 616.333333333 228.5 615 220 613 212 c 0
195 184 m 0
 196.333333333 192 197 198.333333333 197 203 c 0
 197 217 193.833333333 228.333333333 187.5 237 c 128
 181.166666667 245.666666667 171.333333333 250 158 250 c 0
 144 250 131.333333333 246.666666667 120 240 c 128
 108.666666667 233.333333333 100 224 94 212 c 0
 92.6666666667 204 92 197.333333333 92 192 c 0
 92 174 96.1666666667 158.333333333 104.5 145 c 128
 112.833333333 131.666666667 125.333333333 125 142 125 c 0
 155.333333333 125 166.666666667 130.666666667 176 142 c 128
 185.333333333 153.333333333 191.666666667 167.333333333 195 184 c 0
EndSplineSet
EndChar

StartChar: u0B95
Encoding: 53 2965 53
Width: 616
Flags: HW
AnchorPoint: "V" 363.5 453 basechar 0
AnchorPoint: "N" 363.5 -3 basechar 0
LayerCount: 2
Fore
SplineSet
546 124 m 0
 537.333333333 82.6666666667 519 51.1666666667 491 29.5 c 128
 463 7.83333333333 429.666666667 -3 391 -3 c 0
 360.333333333 -3 337.333333333 1 322 9 c 128
 306.666666667 17 297 27.6666666667 293 41 c 1
 275.666666667 29 255 18.6666666667 231 10 c 128
 207 1.33333333333 181.666666667 -3 155 -3 c 0
 113.666666667 -3 81.3333333333 5.83333333333 58 23.5 c 128
 34.6666666667 41.1666666667 23 68.3333333333 23 105 c 0
 23 117.666666667 24.3333333333 130.333333333 27 143 c 0
 34.3333333333 178.333333333 51.6666666667 208 79 232 c 0
 100.333333333 250.666666667 121 261.666666667 141 265 c 1
 181 452 l 1
 514 452 l 1
 503 399 l 1
 406 399 l 1
 378 267 l 1
 432.666666667 267 472.666666667 261.333333333 498 250 c 0
 533.333333333 234 551 205.333333333 551 164 c 0
 551 154 549.333333333 140.666666667 546 124 c 0
288 267 m 1
 316 399 l 1
 222 399 l 1
 194 267 l 1
 288 267 l 1
459 121 m 0
 461.666666667 132.333333333 463 143.666666667 463 155 c 0
 463 180.333333333 453.666666667 197.333333333 435 206 c 0
 421.666666667 212 399 215 367 215 c 1
 344 109 l 2
 342 99.6666666667 341 91.6666666667 341 85 c 0
 341 61 355.333333333 49 384 49 c 0
 400 49 415.166666667 55.1666666667 429.5 67.5 c 128
 443.833333333 79.8333333333 453.666666667 97.6666666667 459 121 c 0
253 105 m 2
 277 215 l 1
 159 215 l 2
 139 215 120.666666667 206.333333333 104 189 c 0
 91.3333333333 175.666666667 82.3333333333 157.333333333 77 134 c 0
 75 126 74 118.333333333 74 111 c 0
 74 69.6666666667 101 49 155 49 c 0
 172.333333333 49 192.333333333 55 215 67 c 128
 237.666666667 79 250.333333333 91.6666666667 253 105 c 2
EndSplineSet
EndChar

StartChar: u0B95_u0BBF
Encoding: 54 -1 54
Width: 722
Flags: HW
AnchorPoint: "V" 363.5 706.906 basechar 0
AnchorPoint: "N" 363.5 -3 basechar 0
LayerCount: 2
Fore
SplineSet
625 -3 m 1
 578 -3 l 1
 673 444 l 2
 675 455.333333333 676 466 676 476 c 0
 676 520.666666667 656 557 616 585 c 128
 576 613 524.333333333 627 461 627 c 0
 367 627 292.333333333 609 237 573 c 0
 185.666666667 539.666666667 153.666666667 492.666666667 141 432 c 0
 137 412.666666667 135 392.666666667 135 372 c 0
 135 342.666666667 139.666666667 318.666666667 149 300 c 1
 181 452 l 1
 514 452 l 1
 503 399 l 1
 406 399 l 1
 378 267 l 1
 432.666666667 267 472.666666667 261.333333333 498 250 c 0
 533.333333333 234 551 205.333333333 551 164 c 0
 551 154 549.333333333 140.666666667 546 124 c 0
 537.333333333 82.6666666667 519 51.1666666667 491 29.5 c 128
 463 7.83333333333 429.666666667 -3 391 -3 c 0
 360.333333333 -3 337.333333333 1 322 9 c 128
 306.666666667 17 297 27.6666666667 293 41 c 1
 275.666666667 29 255 18.6666666667 231 10 c 128
 207 1.33333333333 181.666666667 -3 155 -3 c 0
 113.666666667 -3 81.3333333333 5.83333333333 58 23.5 c 128
 34.6666666667 41.1666666667 23 68.3333333333 23 105 c 0
 23 117.666666667 24.3333333333 130.333333333 27 143 c 0
 33 170.333333333 44.6666666667 194.333333333 62 215 c 0
 76 231 92.6666666667 244.333333333 112 255 c 1
 101.333333333 268.333333333 93.3333333333 284.166666667 88 302.5 c 128
 82.6666666667 320.833333333 80 340 80 360 c 0
 80 381.333333333 82.6666666667 403.666666667 88 427 c 0
 106 511 145 578.666666667 205 630 c 0
 275 689.333333333 366.666666667 719 480 719 c 0
 564 719 626.5 702.666666667 667.5 670 c 128
 708.5 637.333333333 729 589 729 525 c 0
 729 497 725.666666667 467.666666667 719 437 c 2
 625 -3 l 1
288 267 m 1
 316 399 l 1
 222 399 l 1
 194 267 l 1
 288 267 l 1
459 121 m 0
 461.666666667 132.333333333 463 143.666666667 463 155 c 0
 463 180.333333333 453.666666667 197.333333333 435 206 c 0
 421.666666667 212 399 215 367 215 c 1
 344 109 l 2
 342 99.6666666667 341 91.6666666667 341 85 c 0
 341 61 355.333333333 49 384 49 c 0
 400 49 415.166666667 55.1666666667 429.5 67.5 c 128
 443.833333333 79.8333333333 453.666666667 97.6666666667 459 121 c 0
253 105 m 2
 277 215 l 1
 159 215 l 2
 139 215 120.666666667 206.333333333 104 189 c 0
 91.3333333333 175.666666667 82.3333333333 157.333333333 77 134 c 0
 75 126 74 118.333333333 74 111 c 0
 74 69.6666666667 101 49 155 49 c 0
 172.333333333 49 192.333333333 55 215 67 c 128
 237.666666667 79 250.333333333 91.6666666667 253 105 c 2
EndSplineSet
EndChar

StartChar: u0B95_u0BC0
Encoding: 55 -1 55
Width: 616
Flags: HW
AnchorPoint: "V" 363.5 726.625 basechar 0
AnchorPoint: "N" 363.5 -3 basechar 0
LayerCount: 2
Fore
SplineSet
546 124 m 0
 537.333333333 82.6666666667 519 51.1666666667 491 29.5 c 128
 463 7.83333333333 429.666666667 -3 391 -3 c 0
 360.333333333 -3 337.333333333 1 322 9 c 128
 306.666666667 17 297 27.6666666667 293 41 c 1
 275.666666667 29 255 18.6666666667 231 10 c 128
 207 1.33333333333 181.666666667 -3 155 -3 c 0
 113.666666667 -3 81.3333333333 5.83333333333 58 23.5 c 128
 34.6666666667 41.1666666667 23 68.3333333333 23 105 c 0
 23 117.666666667 24.3333333333 130.333333333 27 143 c 0
 33 170.333333333 44.6666666667 194.333333333 62 215 c 0
 76 231 92.6666666667 244.333333333 112 255 c 1
 101.333333333 268.333333333 93.3333333333 284.166666667 88 302.5 c 128
 82.6666666667 320.833333333 80 340 80 360 c 0
 80 381.333333333 82.6666666667 403.666666667 88 427 c 0
 108 520.333333333 154.166666667 596.166666667 226.5 654.5 c 128
 298.833333333 712.833333333 382 742 476 742 c 0
 520 742 555.666666667 735 583 721 c 0
 619.666666667 702.333333333 638 673 638 633 c 0
 638 623 637 612.333333333 635 601 c 0
 627.666666667 569 610.666666667 541.833333333 584 519.5 c 128
 557.333333333 497.166666667 526.333333333 486 491 486 c 0
 461.666666667 486 439 493.666666667 423 509 c 128
 407 524.333333333 399 543.666666667 399 567 c 0
 399 577 400.166666667 587 402.5 597 c 128
 404.833333333 607 409.833333333 618.666666667 417.5 632 c 128
 425.166666667 645.333333333 435 656.666666667 447 666 c 1
 433 667 l 1
 363 667 298.666666667 641.333333333 240 590 c 0
 186.666666667 543.333333333 153.666666667 490.666666667 141 432 c 0
 137 412.666666667 135 392.666666667 135 372 c 0
 135 342.666666667 139.666666667 318.666666667 149 300 c 1
 181 452 l 1
 514 452 l 1
 503 399 l 1
 406 399 l 1
 378 267 l 1
 432.666666667 267 472.666666667 261.333333333 498 250 c 0
 533.333333333 234 551 205.333333333 551 164 c 0
 551 154 549.333333333 140.666666667 546 124 c 0
557 589 m 0
 557.666666667 591.666666667 558 594.333333333 558 597 c 128
 558 601 558 601 558 603 c 0
 558 616.333333333 554 627.333333333 546 636 c 128
 538 644.666666667 527 649 513 649 c 1
 497.666666667 645.666666667 484.333333333 638.666666667 473 628 c 128
 461.666666667 617.333333333 454.333333333 604 451 588 c 0
 450.333333333 585.333333333 450 581.666666667 450 577 c 0
 450 565 453.666666667 555 461 547 c 128
 468.333333333 539 478.666666667 535 492 535 c 0
 507.333333333 535 521.166666667 540.166666667 533.5 550.5 c 128
 545.833333333 560.833333333 553.666666667 573.666666667 557 589 c 0
288 267 m 1
 316 399 l 1
 222 399 l 1
 194 267 l 1
 288 267 l 1
459 121 m 0
 461.666666667 132.333333333 463 143.666666667 463 155 c 0
 463 180.333333333 453.666666667 197.333333333 435 206 c 0
 421.666666667 212 399 215 367 215 c 1
 344 109 l 2
 342 99.6666666667 341 91.6666666667 341 85 c 0
 341 61 355.333333333 49 384 49 c 0
 400 49 415.166666667 55.1666666667 429.5 67.5 c 128
 443.833333333 79.8333333333 453.666666667 97.6666666667 459 121 c 0
253 105 m 2
 277 215 l 1
 159 215 l 2
 139 215 120.666666667 206.333333333 104 189 c 0
 91.3333333333 175.666666667 82.3333333333 157.333333333 77 134 c 0
 75 126 74 118.333333333 74 111 c 0
 74 69.6666666667 101 49 155 49 c 0
 172.333333333 49 192.333333333 55 215 67 c 128
 237.666666667 79 250.333333333 91.6666666667 253 105 c 2
EndSplineSet
EndChar

StartChar: u0B95_u0BC1
Encoding: 56 -1 56
Width: 776
Flags: HW
AnchorPoint: "V" 363.5 453 basechar 0
AnchorPoint: "N" 363.5 -3 basechar 0
LayerCount: 2
Fore
SplineSet
703 106 m 0
 683 12.6666666667 647 -57.6666666667 595 -105 c 0
 527 -167 426.333333333 -198 293 -198 c 0
 200.333333333 -198 131.166666667 -176.5 85.5 -133.5 c 128
 39.8333333333 -90.5 17 -30.3333333333 17 47 c 0
 17 79 21 113.666666667 29 151 c 0
 42.3333333333 215 64.1666666667 273.833333333 94.5 327.5 c 128
 124.833333333 381.166666667 160.666666667 423.666666667 202 455 c 1
 231 425 l 1
 192.333333333 393 160 352 134 302 c 0
 110.666666667 256.666666667 93 205.666666667 81 149 c 0
 74.3333333333 119.666666667 71 90.6666666667 71 62 c 0
 71 -2.66666666667 90 -53.3333333333 128 -90 c 128
 166 -126.666666667 222.333333333 -145 297 -145 c 0
 399 -145 476 -118.666666667 528 -66 c 0
 566.666666667 -26.6666666667 594 30.3333333333 610 105 c 0
 613.333333333 120.333333333 615 133 615 143 c 0
 615 166.333333333 607.666666667 184.166666667 593 196.5 c 128
 578.333333333 208.833333333 554.666666667 215 522 215 c 1
 499 109 l 2
 493.666666667 85 474.333333333 61.3333333333 441 38 c 0
 401.666666667 10.6666666667 358.333333333 -3 311 -3 c 0
 269 -3 237 5.33333333333 215 22 c 0
 190.333333333 40.6666666667 178 68 178 104 c 0
 178 113 178 113 178 119.5 c 128
 178 123.833333333 179.333333333 131.666666667 182 143 c 0
 189.333333333 177.666666667 206.666666667 207 234 231 c 0
 255.333333333 249.666666667 276 261 296 265 c 1
 336 452 l 1
 670 452 l 1
 659 399 l 1
 561 399 l 1
 533 267 l 1
 591 267 634.666666667 258.5 664 241.5 c 128
 693.333333333 224.5 708 195 708 153 c 0
 708 146.333333333 707.666666667 139.166666667 707 131.5 c 128
 706.333333333 123.833333333 705 115.333333333 703 106 c 0
443 267 m 1
 471 399 l 1
 377 399 l 1
 349 267 l 1
 443 267 l 1
408 105 m 2
 432 215 l 1
 314 215 l 2
 299.333333333 215 285 209.666666667 271 199 c 0
 251 184.333333333 238 162.666666667 232 134 c 0
 230 126 229 118.333333333 229 111 c 0
 229 69.6666666667 256 49 310 49 c 0
 327.333333333 49 347.333333333 55 370 67 c 128
 392.666666667 79 405.333333333 91.6666666667 408 105 c 2
EndSplineSet
EndChar

StartChar: u0B95_u0BC2
Encoding: 57 -1 57
Width: 871
VWidth: 348
Flags: HW
AnchorPoint: "V" 363.5 459.333 basechar 0
AnchorPoint: "N" 363.5 -3 basechar 0
LayerCount: 2
Fore
SplineSet
149.971679688 217.633789062 m 0
 131.487304688 217.633789062 84.751953125 200.1953125 70.80078125 133.928710938 c 0
 59.6396484375 80.9150390625 75.3349609375 45.689453125 145.088867188 45.689453125 c 0
 184.500976562 45.689453125 233.329101562 79.5205078125 239.2578125 104.283203125 c 0
 263.323242188 217.633789062 l 0
 149.971679688 217.633789062 l 0
274.483398438 269.950195312 m 0
 303.780273438 407.017578125 l 0
 212.750976562 407.017578125 l 0
 183.802734375 269.950195312 l 0
 274.483398438 269.950195312 l 0
407.366210938 43.248046875 m 0
 424.456054688 43.248046875 453.404296875 56.849609375 468.75 128.697265625 c 0
 477.120117188 168.45703125 458.287109375 197.75390625 442.940429688 206.124023438 c 0
 420.619140625 189.732421875 396.903320312 175.083984375 382.952148438 109.86328125 c 0
 370.396484375 51.26953125 395.159179688 43.248046875 407.366210938 43.248046875 c 0
455.147460938 269.950195312 m 0
 477.120117188 281.458984375 517.578125 298.897460938 563.96484375 298.897460938 c 0
 721.610351562 298.897460938 714.983398438 189.732421875 706.961914062 151.3671875 c 0
 696.846679688 103.584960938 663.365234375 67.662109375 631.278320312 43.248046875 c 0
 763.811523438 43.248046875 l 0
 752.650390625 -9.068359375 l 0
 491.768554688 -9.068359375 l 0
 502.232421875 39.759765625 l 0
 507.115234375 42.201171875 l 0
 596.400390625 89.2861328125 615.583007812 126.255859375 620.1171875 147.181640625 c 0
 633.021484375 207.51953125 606.514648438 240.653320312 561.174804688 240.653320312 c 0
 540.946289062 240.653320312 518.973632812 239.606445312 503.975585938 234.723632812 c 0
 520.716796875 214.495117188 547.223632812 184.849609375 532.2265625 115.094726562 c 0
 519.322265625 54.7568359375 466.30859375 -9.4169921875 407.71484375 -9.4169921875 c 0
 368.65234375 -9.4169921875 313.895507812 13.2529296875 333.426757812 104.631835938 c 0
 345.982421875 161.1328125 369.698242188 197.405273438 386.090820312 216.587890625 c 0
 349.12109375 216.587890625 l 0
 325.752929688 106.375976562 l 0
 312.848632812 45.3408203125 222.16796875 -7.6728515625 144.391601562 -7.6728515625 c 0
 54.408203125 -7.6728515625 2.44140625 41.1552734375 23.716796875 141.950195312 c 0
 41.1552734375 224.260742188 104.98046875 261.23046875 135.323242188 267.508789062 c 0
 175.78125 459.333007812 l 0
 494.209960938 459.333007812 l 0
 483.049804688 407.017578125 l 0
 389.927734375 407.017578125 l 0
 360.630859375 269.950195312 l 0
 455.147460938 269.950195312 l 0
EndSplineSet
EndChar

StartChar: u0B95_u0BC2.old
Encoding: 58 -1 58
Width: 926
Flags: HW
AnchorPoint: "V" 363.5 453 basechar 0
AnchorPoint: "N" 363.5 -3 basechar 0
LayerCount: 2
Fore
SplineSet
829 -3 m 1
 555 -3 l 1
 567 45 l 1
 595.666666667 60.3333333333 617 73.3333333333 631 84 c 0
 657.666666667 104.666666667 673.333333333 126.333333333 678 149 c 0
 678.666666667 151.666666667 679 154.333333333 679 157 c 128
 679 161 679 161 679 163 c 0
 679 179 673.5 191.833333333 662.5 201.5 c 128
 651.5 211.166666667 637 216 619 216 c 0
 596.333333333 216 577 213 561 207 c 128
 545 201 534.333333333 192.333333333 529 181 c 1
 490 -3 l 1
 398 -3 l 1
 445 215 l 1
 367 215 l 1
 344 109 l 2
 338 80.3333333333 315.166666667 54.5 275.5 31.5 c 128
 235.833333333 8.5 195.666666667 -3 155 -3 c 0
 113.666666667 -3 81.3333333333 5.83333333333 58 23.5 c 128
 34.6666666667 41.1666666667 23 68.3333333333 23 105 c 0
 23 117.666666667 24.3333333333 130.333333333 27 143 c 0
 34.3333333333 178.333333333 51.6666666667 208 79 232 c 0
 100.333333333 250.666666667 121 261.666666667 141 265 c 1
 181 452 l 1
 514 452 l 1
 503 399 l 1
 406 399 l 1
 378 267 l 1
 489 267 l 2
 495 267 501.666666667 265.166666667 509 261.5 c 128
 516.333333333 257.833333333 521.666666667 252.333333333 525 245 c 1
 539 254.333333333 556.666666667 261.833333333 578 267.5 c 128
 599.333333333 273.166666667 625.666666667 276 657 276 c 0
 692.333333333 276 722.166666667 267.833333333 746.5 251.5 c 128
 770.833333333 235.166666667 783 210.666666667 783 178 c 0
 783 171.333333333 782 163.333333333 780 154 c 0
 775.333333333 133.333333333 765.833333333 114 751.5 96 c 128
 737.166666667 78 720.666666667 62.3333333333 702 49 c 1
 840 49 l 1
 829 -3 l 1
288 267 m 1
 316 399 l 1
 222 399 l 1
 194 267 l 1
 288 267 l 1
253 105 m 2
 277 215 l 1
 159 215 l 2
 139 215 120.666666667 206.333333333 104 189 c 0
 91.3333333333 175.666666667 82.3333333333 157.333333333 77 134 c 0
 75 126 74 118.333333333 74 111 c 0
 74 69.6666666667 101 49 155 49 c 0
 172.333333333 49 192.333333333 55 215 67 c 128
 237.666666667 79 250.333333333 91.6666666667 253 105 c 2
EndSplineSet
EndChar

StartChar: u0B95_u0BCD
Encoding: 59 -1 59
Width: 616
Flags: HW
AnchorPoint: "N" 363.5 -3 basechar 0
LayerCount: 2
Fore
SplineSet
430 586 m 0
 426 568 416.166666667 552.5 400.5 539.5 c 128
 384.833333333 526.5 368 520 350 520 c 0
 334 520 321 525 311 535 c 128
 301 545 296 557.666666667 296 573 c 0
 296 575 297.166666667 582 299.5 594 c 128
 301.833333333 606 311 618.666666667 327 632 c 128
 343 645.333333333 360 652 378 652 c 0
 394 652 406.833333333 646.833333333 416.5 636.5 c 128
 426.166666667 626.166666667 431 613.333333333 431 598 c 0
 431 592.666666667 430.666666667 588.666666667 430 586 c 0
546 124 m 0
 537.333333333 82.6666666667 519 51.1666666667 491 29.5 c 128
 463 7.83333333333 429.666666667 -3 391 -3 c 0
 360.333333333 -3 337.333333333 1 322 9 c 128
 306.666666667 17 297 27.6666666667 293 41 c 1
 275.666666667 29 255 18.6666666667 231 10 c 128
 207 1.33333333333 181.666666667 -3 155 -3 c 0
 113.666666667 -3 81.3333333333 5.83333333333 58 23.5 c 128
 34.6666666667 41.1666666667 23 68.3333333333 23 105 c 0
 23 117.666666667 24.3333333333 130.333333333 27 143 c 0
 34.3333333333 178.333333333 51.6666666667 208 79 232 c 0
 100.333333333 250.666666667 121 261.666666667 141 265 c 1
 181 452 l 1
 514 452 l 1
 503 399 l 1
 406 399 l 1
 378 267 l 1
 432.666666667 267 472.666666667 261.333333333 498 250 c 0
 533.333333333 234 551 205.333333333 551 164 c 0
 551 154 549.333333333 140.666666667 546 124 c 0
288 267 m 1
 316 399 l 1
 222 399 l 1
 194 267 l 1
 288 267 l 1
459 121 m 0
 461.666666667 132.333333333 463 143.666666667 463 155 c 0
 463 180.333333333 453.666666667 197.333333333 435 206 c 0
 421.666666667 212 399 215 367 215 c 1
 344 109 l 2
 342 99.6666666667 341 91.6666666667 341 85 c 0
 341 61 355.333333333 49 384 49 c 0
 400 49 415.166666667 55.1666666667 429.5 67.5 c 128
 443.833333333 79.8333333333 453.666666667 97.6666666667 459 121 c 0
253 105 m 2
 277 215 l 1
 159 215 l 2
 139 215 120.666666667 206.333333333 104 189 c 0
 91.3333333333 175.666666667 82.3333333333 157.333333333 77 134 c 0
 75 126 74 118.333333333 74 111 c 0
 74 69.6666666667 101 49 155 49 c 0
 172.333333333 49 192.333333333 55 215 67 c 128
 237.666666667 79 250.333333333 91.6666666667 253 105 c 2
EndSplineSet
EndChar

StartChar: u0B99
Encoding: 60 2969 60
Width: 693
Flags: HW
AnchorPoint: "V" 428.5 453 basechar 0
AnchorPoint: "N" 428.5 -3 basechar 0
LayerCount: 2
Fore
SplineSet
596 -3 m 1
 141 -3 l 1
 151 44 l 1
 270 44 l 1
 296 53.3333333333 317 69.1666666667 333 91.5 c 128
 349 113.833333333 360.333333333 139.333333333 367 168 c 0
 368.333333333 177.333333333 369 184 369 188 c 0
 369 204.666666667 364.666666667 217.666666667 356 227 c 128
 347.333333333 236.333333333 336.333333333 241 323 241 c 0
 302.333333333 241 287 230.333333333 277 209 c 1
 259 123 l 1
 168 123 l 1
 227 399 l 1
 134 399 l 1
 48 -3 l 1
 -4 -3 l 1
 93 452 l 1
 426 452 l 1
 415 399 l 1
 318 399 l 1
 294 286 l 1
 312.666666667 297.333333333 332.666666667 303 354 303 c 0
 382 303 405.333333333 294.333333333 424 277 c 0
 445.333333333 257 456 230.666666667 456 198 c 0
 456 192.666666667 455.5 186.666666667 454.5 180 c 128
 453.5 173.333333333 452.666666667 168 452 164 c 0
 446 135.333333333 436.666666667 111.166666667 424 91.5 c 128
 411.333333333 71.8333333333 396.333333333 56 379 44 c 1
 519 44 l 1
 606 452 l 1
 693 452 l 1
 596 -3 l 1
EndSplineSet
EndChar

StartChar: u0B99_u0BBF
Encoding: 61 -1 61
Width: 786
Flags: HW
AnchorPoint: "V" 428.5 453 basechar 0
AnchorPoint: "N" 428.5 -3 basechar 0
LayerCount: 2
Fore
SplineSet
689 -3 m 1
 641 -3 l 1
 747 496 l 2
 751 513.333333333 753 529 753 543 c 0
 753 593 723.333333333 618 664 618 c 0
 635.333333333 618 609.5 609.333333333 586.5 592 c 128
 563.5 574.666666667 548.666666667 550.333333333 542 519 c 0
 540 509 539 500.333333333 539 493 c 0
 539 475 543.5 461.166666667 552.5 451.5 c 128
 561.5 441.833333333 573.666666667 437 589 437 c 1
 592 452 l 1
 678 452 l 1
 581 -3 l 1
 141 -3 l 1
 151 44 l 1
 270 44 l 1
 296 53.3333333333 317 69.1666666667 333 91.5 c 128
 349 113.833333333 360.333333333 139.333333333 367 168 c 0
 368.333333333 177.333333333 369 184 369 188 c 0
 369 204.666666667 364.666666667 217.666666667 356 227 c 128
 347.333333333 236.333333333 336.333333333 241 323 241 c 0
 302.333333333 241 287 230.333333333 277 209 c 1
 259 123 l 1
 168 123 l 1
 227 399 l 1
 134 399 l 1
 48 -3 l 1
 -4 -3 l 1
 93 452 l 1
 426 452 l 1
 415 399 l 1
 318 399 l 1
 294 286 l 1
 312.666666667 297.333333333 332.666666667 303 354 303 c 0
 382 303 405.333333333 294.333333333 424 277 c 0
 445.333333333 257 456 230.666666667 456 198 c 0
 456 192.666666667 455.5 186.666666667 454.5 180 c 128
 453.5 173.333333333 452.666666667 168 452 164 c 0
 446 135.333333333 436.666666667 111.166666667 424 91.5 c 128
 411.333333333 71.8333333333 396.333333333 56 379 44 c 1
 505 44 l 1
 578 384 l 1
 549.333333333 384 526.333333333 392.666666667 509 410 c 128
 491.666666667 427.333333333 483 452.666666667 483 486 c 0
 483 492.666666667 483.333333333 500 484 508 c 128
 484.666666667 516 486 524 488 532 c 0
 500 587.333333333 523.166666667 629.833333333 557.5 659.5 c 128
 591.833333333 689.166666667 634 704 684 704 c 0
 726.666666667 704 757.833333333 693.833333333 777.5 673.5 c 128
 797.166666667 653.166666667 807 623.333333333 807 584 c 0
 807 560.666666667 804 535 798 507 c 2
 689 -3 l 1
EndSplineSet
EndChar

StartChar: u0B99_u0BC0
Encoding: 62 -1 62
Width: 783
Flags: HW
AnchorPoint: "V" 428.5 453 basechar 0
AnchorPoint: "N" 428.5 -3 basechar 0
LayerCount: 2
Fore
SplineSet
919 578 m 0
 911.666666667 545.333333333 894.833333333 518.166666667 868.5 496.5 c 128
 842.166666667 474.833333333 811 464 775 464 c 0
 745 464 722 471.333333333 706 486 c 128
 690 500.666666667 682 519.666666667 682 543 c 0
 682 551 683 559 685 567 c 0
 691 597 705.666666667 622.666666667 729 644 c 1
 716 644 l 2
 683.333333333 644 653.666666667 631.333333333 627 606 c 128
 600.333333333 580.666666667 583.666666667 552.333333333 577 521 c 0
 573.666666667 504.333333333 572 491.333333333 572 482 c 0
 572 450.666666667 581.333333333 431.333333333 600 424 c 1
 606 452 l 1
 698 452 l 1
 601 -3 l 1
 141 -3 l 1
 151 44 l 1
 270 44 l 1
 296 53.3333333333 317 69.1666666667 333 91.5 c 128
 349 113.833333333 360.333333333 139.333333333 367 168 c 0
 368.333333333 177.333333333 369 184 369 188 c 0
 369 204.666666667 364.666666667 217.666666667 356 227 c 128
 347.333333333 236.333333333 336.333333333 241 323 241 c 0
 302.333333333 241 287 230.333333333 277 209 c 1
 259 123 l 1
 168 123 l 1
 227 399 l 1
 134 399 l 1
 48 -3 l 1
 -4 -3 l 1
 93 452 l 1
 426 452 l 1
 415 399 l 1
 318 399 l 1
 294 286 l 1
 312.666666667 297.333333333 332.666666667 303 354 303 c 0
 382 303 405.333333333 294.333333333 424 277 c 0
 445.333333333 257 456 230.666666667 456 198 c 0
 456 192.666666667 455.5 186.666666667 454.5 180 c 128
 453.5 173.333333333 452.666666667 168 452 164 c 0
 446 135.333333333 436.666666667 111.166666667 424 91.5 c 128
 411.333333333 71.8333333333 396.333333333 56 379 44 c 1
 519 44 l 1
 591 381 l 1
 570.333333333 384.333333333 553.333333333 394.333333333 540 411 c 0
 524.666666667 430.333333333 517 455.333333333 517 486 c 0
 517 492.666666667 517.333333333 500.166666667 518 508.5 c 128
 518.666666667 516.833333333 520 525 522 533 c 0
 535.333333333 597 568.333333333 645.666666667 621 679 c 0
 663.666666667 706.333333333 709.666666667 720 759 720 c 0
 802.333333333 720 838.333333333 712.666666667 867 698 c 0
 903.666666667 679.333333333 922 650 922 610 c 0
 922 600 921 589.333333333 919 578 c 0
841 567 m 0
 841.666666667 569.666666667 842 573.666666667 842 579 c 0
 842 592.333333333 838 603.333333333 830 612 c 128
 822 620.666666667 810.666666667 625 796 625 c 1
 782 622.333333333 769 615.333333333 757 604 c 128
 745 592.666666667 738.166666667 582.833333333 736.5 574.5 c 128
 734.833333333 566.166666667 734 559.333333333 734 554 c 0
 734 541.333333333 737.5 531.166666667 744.5 523.5 c 128
 751.5 515.833333333 761.666666667 512 775 512 c 0
 789.666666667 512 803.5 517.166666667 816.5 527.5 c 128
 829.5 537.833333333 837.666666667 551 841 567 c 0
EndSplineSet
EndChar

StartChar: u0B99_u0BC1
Encoding: 63 -1 63
Width: 693
Flags: HW
AnchorPoint: "V" 428.5 453 basechar 0
AnchorPoint: "N" 428.5 -3 basechar 0
LayerCount: 2
Fore
SplineSet
569 -134 m 1
 482 -134 l 1
 509 -3 l 1
 141 -3 l 1
 151 44 l 1
 270 44 l 1
 296 53.3333333333 317 69.1666666667 333 91.5 c 128
 349 113.833333333 360.333333333 139.333333333 367 168 c 0
 368.333333333 177.333333333 369 184 369 188 c 0
 369 204.666666667 364.666666667 217.666666667 356 227 c 128
 347.333333333 236.333333333 336.333333333 241 323 241 c 0
 302.333333333 241 287 230.333333333 277 209 c 1
 259 123 l 1
 168 123 l 1
 227 399 l 1
 134 399 l 1
 48 -3 l 1
 -4 -3 l 1
 93 452 l 1
 426 452 l 1
 415 399 l 1
 318 399 l 1
 294 286 l 1
 312.666666667 297.333333333 332.666666667 303 354 303 c 0
 382 303 405.333333333 294.333333333 424 277 c 0
 445.333333333 257 456 230.666666667 456 198 c 0
 456 192.666666667 455.5 186.666666667 454.5 180 c 128
 453.5 173.333333333 452.666666667 168 452 164 c 0
 446 135.333333333 436.666666667 111.166666667 424 91.5 c 128
 411.333333333 71.8333333333 396.333333333 56 379 44 c 1
 519 44 l 1
 606 452 l 1
 693 452 l 1
 569 -134 l 1
EndSplineSet
EndChar

StartChar: u0B99_u0BC2
Encoding: 64 -1 64
Width: 911
Flags: HW
AnchorPoint: "V" 428.5 453 basechar 0
AnchorPoint: "N" 428.5 -3 basechar 0
LayerCount: 2
Fore
SplineSet
838 106 m 0
 814.666666667 -3.33333333333 762 -88 680 -148 c 0
 591.333333333 -213.333333333 472.333333333 -246 323 -246 c 0
 266.333333333 -246 222.666666667 -237 192 -219 c 128
 161.333333333 -201 146 -175.666666667 146 -143 c 0
 146 -133 146.666666667 -125.333333333 148 -120 c 0
 164 -50 208.333333333 -15 281 -15 c 0
 311 -15 333.833333333 -22.1666666667 349.5 -36.5 c 128
 365.166666667 -50.8333333333 373 -70 373 -94 c 0
 373 -102 371.833333333 -111.833333333 369.5 -123.5 c 128
 367.166666667 -135.166666667 361.666666667 -147.166666667 353 -159.5 c 128
 344.333333333 -171.833333333 333 -183 319 -193 c 1
 337 -195 l 1
 456.333333333 -195 553.333333333 -163 628 -99 c 0
 690 -45.6666666667 729.666666667 22.3333333333 747 105 c 0
 749 113.666666667 750.166666667 119.666666667 750.5 123 c 128
 750.833333333 126.333333333 751 132 751 140 c 0
 751 160.666666667 747 177 739 189 c 0
 729 204.333333333 713.333333333 212 692 212 c 0
 678 212 667 210.5 659 207.5 c 128
 651 204.5 643.666666667 198.333333333 637 189 c 1
 574 -110 l 1
 487 -110 l 1
 509 -3 l 1
 141 -3 l 1
 151 44 l 1
 270 44 l 1
 296 53.3333333333 317 69.1666666667 333 91.5 c 128
 349 113.833333333 360.333333333 139.333333333 367 168 c 0
 368.333333333 177.333333333 369 184 369 188 c 0
 369 204.666666667 364.666666667 217.666666667 356 227 c 128
 347.333333333 236.333333333 336.333333333 241 323 241 c 0
 302.333333333 241 287 230.333333333 277 209 c 1
 259 123 l 1
 168 123 l 1
 227 399 l 1
 134 399 l 1
 48 -3 l 1
 -4 -3 l 1
 93 452 l 1
 426 452 l 1
 415 399 l 1
 318 399 l 1
 294 286 l 1
 312.666666667 297.333333333 332.666666667 303 354 303 c 0
 382 303 405.333333333 294.333333333 424 277 c 0
 445.333333333 257 456 230.666666667 456 198 c 0
 456 192.666666667 455.5 186.666666667 454.5 180 c 128
 453.5 173.333333333 452.666666667 168 452 164 c 0
 446 135.333333333 436.666666667 111.166666667 424 91.5 c 128
 411.333333333 71.8333333333 396.333333333 56 379 44 c 1
 519 44 l 1
 606 452 l 1
 693 452 l 1
 651 256 l 1
 672.333333333 270 695.666666667 277 721 277 c 0
 761.666666667 277 792.666666667 263.666666667 814 237 c 0
 832.666666667 213.666666667 842 184 842 148 c 0
 842 132.666666667 840.666666667 118.666666667 838 106 c 0
305 -118 m 0
 306.333333333 -111.333333333 307 -106.333333333 307 -103 c 0
 307 -76.3333333333 293.666666667 -63 267 -63 c 0
 251.666666667 -63 237.333333333 -68.5 224 -79.5 c 128
 210.666666667 -90.5 202.833333333 -101.5 200.5 -112.5 c 128
 198.166666667 -123.5 197 -130.333333333 197 -133 c 0
 197 -145.666666667 201.166666667 -156.166666667 209.5 -164.5 c 128
 217.833333333 -172.833333333 229 -177 243 -177 c 0
 277.666666667 -170.333333333 298.333333333 -150.666666667 305 -118 c 0
EndSplineSet
EndChar

StartChar: u0B99_u0BCD
Encoding: 65 -1 65
Width: 693
Flags: HW
AnchorPoint: "N" 428.5 -3 basechar 0
LayerCount: 2
Fore
SplineSet
495 586 m 0
 491 568.666666667 481 553.333333333 465 540 c 128
 449 526.666666667 432.333333333 520 415 520 c 0
 399 520 386 525 376 535 c 128
 366 545 361 557.666666667 361 573 c 0
 361 579 361.333333333 583.333333333 362 586 c 0
 365.333333333 604 375 619.5 391 632.5 c 128
 407 645.5 424.333333333 652 443 652 c 0
 458.333333333 652 471 647 481 637 c 128
 491 627 496 614 496 598 c 0
 496 592.666666667 495.666666667 588.666666667 495 586 c 0
596 -3 m 1
 141 -3 l 1
 151 44 l 1
 270 44 l 1
 296 53.3333333333 317 69.1666666667 333 91.5 c 128
 349 113.833333333 360.333333333 139.333333333 367 168 c 0
 368.333333333 177.333333333 369 184 369 188 c 0
 369 204.666666667 364.666666667 217.666666667 356 227 c 128
 347.333333333 236.333333333 336.333333333 241 323 241 c 0
 302.333333333 241 287 230.333333333 277 209 c 1
 259 123 l 1
 168 123 l 1
 227 399 l 1
 134 399 l 1
 48 -3 l 1
 -4 -3 l 1
 93 452 l 1
 426 452 l 1
 415 399 l 1
 318 399 l 1
 294 286 l 1
 312.666666667 297.333333333 332.666666667 303 354 303 c 0
 382 303 405.333333333 294.333333333 424 277 c 0
 445.333333333 257 456 230.666666667 456 198 c 0
 456 192.666666667 455.5 186.666666667 454.5 180 c 128
 453.5 173.333333333 452.666666667 168 452 164 c 0
 446 135.333333333 436.666666667 111.166666667 424 91.5 c 128
 411.333333333 71.8333333333 396.333333333 56 379 44 c 1
 519 44 l 1
 606 452 l 1
 693 452 l 1
 596 -3 l 1
EndSplineSet
EndChar

StartChar: u0B99_u0BCD.alt
Encoding: 66 -1 66
Width: 693
Flags: HW
AnchorPoint: "N" 428.5 -3 basechar 0
LayerCount: 2
Fore
SplineSet
532 583 m 0
 526 554.333333333 510.666666667 529.666666667 486 509 c 128
 461.333333333 488.333333333 434.666666667 478 406 478 c 0
 381.333333333 478 361 486 345 502 c 128
 329 518 321 538 321 562 c 0
 321 566.666666667 321.666666667 573.666666667 323 583 c 0
 329 611.666666667 344.5 636.166666667 369.5 656.5 c 128
 394.5 676.833333333 421.333333333 687 450 687 c 0
 474.666666667 687 494.833333333 679.166666667 510.5 663.5 c 128
 526.166666667 647.833333333 534 628 534 604 c 0
 534 594.666666667 533.333333333 587.666666667 532 583 c 0
596 -3 m 1
 141 -3 l 1
 151 44 l 1
 270 44 l 1
 296 53.3333333333 317 69.1666666667 333 91.5 c 128
 349 113.833333333 360.333333333 139.333333333 367 168 c 0
 368.333333333 177.333333333 369 184 369 188 c 0
 369 204.666666667 364.666666667 217.666666667 356 227 c 128
 347.333333333 236.333333333 336.333333333 241 323 241 c 0
 302.333333333 241 287 230.333333333 277 209 c 1
 259 123 l 1
 168 123 l 1
 227 399 l 1
 134 399 l 1
 48 -3 l 1
 -4 -3 l 1
 93 452 l 1
 426 452 l 1
 415 399 l 1
 318 399 l 1
 294 286 l 1
 312.666666667 297.333333333 332.666666667 303 354 303 c 0
 382 303 405.333333333 294.333333333 424 277 c 0
 445.333333333 257 456 230.666666667 456 198 c 0
 456 192.666666667 455.5 186.666666667 454.5 180 c 128
 453.5 173.333333333 452.666666667 168 452 164 c 0
 446 135.333333333 436.666666667 111.166666667 424 91.5 c 128
 411.333333333 71.8333333333 396.333333333 56 379 44 c 1
 519 44 l 1
 606 452 l 1
 693 452 l 1
 596 -3 l 1
489 586 m 0
 489.666666667 588.666666667 490 592.333333333 490 597 c 0
 490 610.333333333 485.333333333 621.666666667 476 631 c 128
 466.666666667 640.333333333 455 645 441 645 c 0
 424.333333333 645 409 639.333333333 395 628 c 128
 381 616.666666667 372.333333333 602.666666667 369 586 c 0
 368.333333333 583.333333333 368 579.333333333 368 574 c 0
 368 560.666666667 372.333333333 549.333333333 381 540 c 128
 389.666666667 530.666666667 401.333333333 526 416 526 c 0
 432 526 447.333333333 532 462 544 c 128
 476.666666667 556 485.666666667 570 489 586 c 0
EndSplineSet
EndChar

StartChar: u0B95_u0BB7
Encoding: 67 -1 67
Width: 1464
Flags: HW
AnchorPoint: "V" 363.5 453 basechar 0
AnchorPoint: "N" 363.5 -3 basechar 0
LayerCount: 2
Fore
SplineSet
1391 106 m 0
 1384.33333333 75.3333333333 1370.66666667 50.3333333333 1350 31 c 0
 1325.33333333 8.33333333333 1293.33333333 -3 1254 -3 c 2
 1203 -3 l 1
 1159 -212 l 1
 1072 -212 l 1
 1116 -3 l 1
 689 -3 l 1
 730.333333333 31 762.5 65.1666666667 785.5 99.5 c 128
 808.5 133.833333333 824 169 832 205 c 0
 836 224.333333333 838 242.666666667 838 260 c 0
 838 302 826.666666667 335.666666667 804 361 c 128
 781.333333333 386.333333333 749.666666667 399 709 399 c 0
 657 399 611.666666667 384 573 354 c 0
 542.333333333 330 521 301 509 267 c 1
 601 267 l 2
 635.666666667 267 662.666666667 260.833333333 682 248.5 c 128
 701.333333333 236.166666667 711 215.666666667 711 187 c 0
 711 182.333333333 710.5 176.833333333 709.5 170.5 c 128
 708.5 164.166666667 707.666666667 159 707 155 c 0
 697 107.666666667 678.166666667 69.5 650.5 40.5 c 128
 622.833333333 11.5 590.333333333 -3 553 -3 c 0
 513 -3 483.333333333 8.33333333333 464 31 c 128
 444.666666667 53.6666666667 435 86.6666666667 435 130 c 0
 435 152 438.333333333 180.333333333 445 215 c 1
 367 215 l 1
 344 109 l 2
 338 80.3333333333 315.166666667 54.5 275.5 31.5 c 128
 235.833333333 8.5 195.666666667 -3 155 -3 c 0
 113.666666667 -3 81.3333333333 5.83333333333 58 23.5 c 128
 34.6666666667 41.1666666667 23 68.3333333333 23 105 c 0
 23 117.666666667 24.3333333333 130.333333333 27 143 c 0
 34.3333333333 178.333333333 51.6666666667 208 79 232 c 0
 100.333333333 250.666666667 121 261.666666667 141 265 c 1
 181 452 l 1
 514 452 l 1
 503 399 l 1
 406 399 l 1
 378 267 l 1
 461 267 l 1
 483.666666667 325 517.5 370.333333333 562.5 403 c 128
 607.5 435.666666667 660.666666667 452 722 452 c 0
 792 452 844.333333333 435 879 401 c 0
 910.333333333 370.333333333 926 328 926 274 c 0
 926 254.666666667 923 231 917 203 c 128
 911 175 902.333333333 150 891 128 c 0
 877.666666667 101.333333333 858.333333333 75 833 49 c 1
 1127 49 l 1
 1156 185 l 1
 1113.33333333 193.666666667 1080.33333333 206 1057 222 c 0
 1027 242.666666667 1012 269 1012 301 c 0
 1012 307.666666667 1013 315.666666667 1015 325 c 0
 1023 364.333333333 1040.33333333 395.333333333 1067 418 c 128
 1093.66666667 440.666666667 1128 452 1170 452 c 0
 1207.33333333 452 1235.33333333 445.166666667 1254 431.5 c 128
 1272.66666667 417.833333333 1282 399.666666667 1282 377 c 0
 1282 373 1281.33333333 367 1280 359 c 2
 1252 225 l 1
 1293.33333333 217 1325.66666667 205.666666667 1349 191 c 0
 1378.33333333 172.333333333 1393 149.666666667 1393 123 c 0
 1393 119.666666667 1392.33333333 114 1391 106 c 0
1168 239 m 1
 1191 348 l 2
 1194.33333333 363.333333333 1191 375.166666667 1181 383.5 c 128
 1171 391.833333333 1156 396 1136 396 c 0
 1116.66666667 396 1100.83333333 389.833333333 1088.5 377.5 c 128
 1076.16666667 365.166666667 1067.66666667 347.666666667 1063 325 c 0
 1062.33333333 322.333333333 1062 318.333333333 1062 313 c 0
 1062 294.333333333 1073.33333333 278.333333333 1096 265 c 0
 1114.66666667 254.333333333 1138.66666667 245.666666667 1168 239 c 1
1333 110 m 0
 1336.33333333 125.333333333 1329.66666667 137.666666667 1313 147 c 128
 1296.33333333 156.333333333 1272 164 1240 170 c 1
 1214 49 l 1
 1266 49 l 2
 1286 49 1301.16666667 54.5 1311.5 65.5 c 128
 1321.83333333 76.5 1329 91.3333333333 1333 110 c 0
616 154 m 0
 617.333333333 162 618 167.333333333 618 170 c 0
 618 200 598.333333333 215 559 215 c 2
 497 215 l 1
 494.333333333 201 492 184.333333333 490 165 c 128
 488 145.666666667 487.333333333 132 488 124 c 0
 492.666666667 90 510.333333333 73 541 73 c 0
 559.666666667 73 575.666666667 81.1666666667 589 97.5 c 128
 602.333333333 113.833333333 611.333333333 132.666666667 616 154 c 0
288 267 m 1
 316 399 l 1
 222 399 l 1
 194 267 l 1
 288 267 l 1
253 105 m 2
 277 215 l 1
 159 215 l 2
 139 215 120.666666667 206.333333333 104 189 c 0
 91.3333333333 175.666666667 82.3333333333 157.333333333 77 134 c 0
 75 126 74 118.333333333 74 111 c 0
 74 69.6666666667 101 49 155 49 c 0
 172.333333333 49 192.333333333 55 215 67 c 128
 237.666666667 79 250.333333333 91.6666666667 253 105 c 2
EndSplineSet
EndChar

StartChar: u0B95_u0BB7_u0BBF
Encoding: 68 -1 68
Width: 1572
Flags: HW
AnchorPoint: "V" 363.5 453 basechar 0
AnchorPoint: "N" 363.5 -3 basechar 0
LayerCount: 2
Fore
SplineSet
1475 -3 m 1
 1427 -3 l 1
 1536 510 l 2
 1536.66666667 515.333333333 1537.5 520.5 1538.5 525.5 c 128
 1539.5 530.5 1540 536 1540 542 c 0
 1540 570.666666667 1530.33333333 592.666666667 1511 608 c 0
 1488.33333333 626 1451.33333333 635 1400 635 c 0
 1296.66666667 635 1235.66666667 591.666666667 1217 505 c 0
 1215.66666667 495.666666667 1215 488.666666667 1215 484 c 0
 1215 476 1215.83333333 468.666666667 1217.5 462 c 128
 1219.16666667 455.333333333 1221.66666667 449.666666667 1225 445 c 1
 1263 433 1282 410.666666667 1282 378 c 0
 1282 370 1281.33333333 363.666666667 1280 359 c 2
 1252 225 l 1
 1293.33333333 217 1325.66666667 205.666666667 1349 191 c 0
 1378.33333333 172.333333333 1393 149.666666667 1393 123 c 0
 1393 119.666666667 1392.33333333 114 1391 106 c 0
 1384.33333333 75.3333333333 1370.66666667 50.3333333333 1350 31 c 0
 1325.33333333 8.33333333333 1293.33333333 -3 1254 -3 c 2
 1203 -3 l 1
 1159 -212 l 1
 1072 -212 l 1
 1116 -3 l 1
 689 -3 l 1
 730.333333333 31 762.5 65.1666666667 785.5 99.5 c 128
 808.5 133.833333333 824 169 832 205 c 0
 836 224.333333333 838 242.666666667 838 260 c 0
 838 302 826.666666667 335.666666667 804 361 c 128
 781.333333333 386.333333333 749.666666667 399 709 399 c 0
 657 399 611.666666667 384 573 354 c 0
 542.333333333 330 521 301 509 267 c 1
 601 267 l 2
 635.666666667 267 662.666666667 260.833333333 682 248.5 c 128
 701.333333333 236.166666667 711 215.666666667 711 187 c 0
 711 182.333333333 710.5 176.833333333 709.5 170.5 c 128
 708.5 164.166666667 707.666666667 159 707 155 c 0
 697 107.666666667 678.166666667 69.5 650.5 40.5 c 128
 622.833333333 11.5 590.333333333 -3 553 -3 c 0
 513 -3 483.333333333 8.33333333333 464 31 c 128
 444.666666667 53.6666666667 435 86.6666666667 435 130 c 0
 435 152 438.333333333 180.333333333 445 215 c 1
 367 215 l 1
 344 109 l 2
 338 80.3333333333 315.166666667 54.5 275.5 31.5 c 128
 235.833333333 8.5 195.666666667 -3 155 -3 c 0
 113.666666667 -3 81.3333333333 5.83333333333 58 23.5 c 128
 34.6666666667 41.1666666667 23 68.3333333333 23 105 c 0
 23 117.666666667 24.3333333333 130.333333333 27 143 c 0
 34.3333333333 178.333333333 51.6666666667 208 79 232 c 0
 100.333333333 250.666666667 121 261.666666667 141 265 c 1
 181 452 l 1
 514 452 l 1
 503 399 l 1
 406 399 l 1
 378 267 l 1
 461 267 l 1
 483.666666667 325 517.5 370.333333333 562.5 403 c 128
 607.5 435.666666667 660.666666667 452 722 452 c 0
 792 452 844.333333333 435 879 401 c 0
 910.333333333 370.333333333 926 328 926 274 c 0
 926 254.666666667 923 231 917 203 c 128
 911 175 902.333333333 150 891 128 c 0
 877.666666667 101.333333333 858.333333333 75 833 49 c 1
 1127 49 l 1
 1156 185 l 1
 1113.33333333 193.666666667 1080.33333333 206 1057 222 c 0
 1027 242.666666667 1012 269 1012 301 c 0
 1012 307.666666667 1013 315.666666667 1015 325 c 0
 1023 364.333333333 1040.33333333 395.333333333 1067 418 c 128
 1093.66666667 440.666666667 1128 452 1170 452 c 1
 1166 461.333333333 1164 474.666666667 1164 492 c 0
 1164 508.666666667 1166 526 1170 544 c 0
 1182 601.333333333 1209.33333333 645 1252 675 c 128
 1294.66666667 705 1350.33333333 720 1419 720 c 0
 1483.66666667 720 1530 705.666666667 1558 677 c 0
 1581.33333333 653 1593 619.666666667 1593 577 c 0
 1593 565 1592.5 555.666666667 1591.5 549 c 128
 1590.5 542.333333333 1588.33333333 529.666666667 1585 511 c 2
 1475 -3 l 1
1168 239 m 1
 1191 348 l 2
 1194.33333333 363.333333333 1191 375.166666667 1181 383.5 c 128
 1171 391.833333333 1156 396 1136 396 c 0
 1116.66666667 396 1100.83333333 389.833333333 1088.5 377.5 c 128
 1076.16666667 365.166666667 1067.66666667 347.666666667 1063 325 c 0
 1062.33333333 322.333333333 1062 318.333333333 1062 313 c 0
 1062 294.333333333 1073.33333333 278.333333333 1096 265 c 0
 1114.66666667 254.333333333 1138.66666667 245.666666667 1168 239 c 1
1333 110 m 0
 1336.33333333 125.333333333 1329.66666667 137.666666667 1313 147 c 128
 1296.33333333 156.333333333 1272 164 1240 170 c 1
 1214 49 l 1
 1266 49 l 2
 1286 49 1301.16666667 54.5 1311.5 65.5 c 128
 1321.83333333 76.5 1329 91.3333333333 1333 110 c 0
616 154 m 0
 617.333333333 162 618 167.333333333 618 170 c 0
 618 200 598.333333333 215 559 215 c 2
 497 215 l 1
 494.333333333 201 492 184.333333333 490 165 c 128
 488 145.666666667 487.333333333 132 488 124 c 0
 492.666666667 90 510.333333333 73 541 73 c 0
 559.666666667 73 575.666666667 81.1666666667 589 97.5 c 128
 602.333333333 113.833333333 611.333333333 132.666666667 616 154 c 0
288 267 m 1
 316 399 l 1
 222 399 l 1
 194 267 l 1
 288 267 l 1
253 105 m 2
 277 215 l 1
 159 215 l 2
 139 215 120.666666667 206.333333333 104 189 c 0
 91.3333333333 175.666666667 82.3333333333 157.333333333 77 134 c 0
 75 126 74 118.333333333 74 111 c 0
 74 69.6666666667 101 49 155 49 c 0
 172.333333333 49 192.333333333 55 215 67 c 128
 237.666666667 79 250.333333333 91.6666666667 253 105 c 2
EndSplineSet
EndChar

StartChar: u0B95_u0BB7_u0BC0
Encoding: 69 -1 69
Width: 1464
Flags: HW
AnchorPoint: "V" 363.5 453 basechar 0
AnchorPoint: "N" 363.5 -3 basechar 0
LayerCount: 2
Fore
SplineSet
1391 106 m 0
 1384.33333333 75.3333333333 1370.66666667 50.3333333333 1350 31 c 0
 1325.33333333 8.33333333333 1293.33333333 -3 1254 -3 c 2
 1203 -3 l 1
 1159 -212 l 1
 1072 -212 l 1
 1116 -3 l 1
 689 -3 l 1
 730.333333333 31 762.5 65.1666666667 785.5 99.5 c 128
 808.5 133.833333333 824 169 832 205 c 0
 836 224.333333333 838 242.666666667 838 260 c 0
 838 302 826.666666667 335.666666667 804 361 c 128
 781.333333333 386.333333333 749.666666667 399 709 399 c 0
 657 399 611.666666667 384 573 354 c 0
 542.333333333 330 521 301 509 267 c 1
 601 267 l 2
 635.666666667 267 662.666666667 260.833333333 682 248.5 c 128
 701.333333333 236.166666667 711 215.666666667 711 187 c 0
 711 182.333333333 710.5 176.833333333 709.5 170.5 c 128
 708.5 164.166666667 707.666666667 159 707 155 c 0
 697 107.666666667 678.166666667 69.5 650.5 40.5 c 128
 622.833333333 11.5 590.333333333 -3 553 -3 c 0
 513 -3 483.333333333 8.33333333333 464 31 c 128
 444.666666667 53.6666666667 435 86.6666666667 435 130 c 0
 435 152 438.333333333 180.333333333 445 215 c 1
 367 215 l 1
 344 109 l 2
 338 80.3333333333 315.166666667 54.5 275.5 31.5 c 128
 235.833333333 8.5 195.666666667 -3 155 -3 c 0
 113.666666667 -3 81.3333333333 5.83333333333 58 23.5 c 128
 34.6666666667 41.1666666667 23 68.3333333333 23 105 c 0
 23 117.666666667 24.3333333333 130.333333333 27 143 c 0
 34.3333333333 178.333333333 51.6666666667 208 79 232 c 0
 100.333333333 250.666666667 121 261.666666667 141 265 c 1
 181 452 l 1
 514 452 l 1
 503 399 l 1
 406 399 l 1
 378 267 l 1
 461 267 l 1
 483.666666667 325 517.5 370.333333333 562.5 403 c 128
 607.5 435.666666667 660.666666667 452 722 452 c 0
 792 452 844.333333333 435 879 401 c 0
 910.333333333 370.333333333 926 328 926 274 c 0
 926 254.666666667 923 231 917 203 c 128
 911 175 902.333333333 150 891 128 c 0
 877.666666667 101.333333333 858.333333333 75 833 49 c 1
 1127 49 l 1
 1156 185 l 1
 1113.33333333 193.666666667 1080.33333333 206 1057 222 c 0
 1027 242.666666667 1012 269 1012 301 c 0
 1012 307.666666667 1013 315.666666667 1015 325 c 0
 1022.33333333 359 1036.33333333 386.666666667 1057 408 c 128
 1077.66666667 429.333333333 1103.33333333 443 1134 449 c 1
 1126 461 1119.33333333 473.833333333 1114 487.5 c 128
 1108.66666667 501.166666667 1106 515.666666667 1106 531 c 0
 1106 538.333333333 1107 546.666666667 1109 556 c 0
 1123 620 1154.66666667 668.666666667 1204 702 c 0
 1244 728.666666667 1287.66666667 742 1335 742 c 0
 1380.33333333 742 1416.66666667 735 1444 721 c 0
 1480.66666667 702.333333333 1499 673 1499 633 c 0
 1499 623 1498 612.333333333 1496 601 c 0
 1488.66666667 569 1471.66666667 541.833333333 1445 519.5 c 128
 1418.33333333 497.166666667 1387 486 1351 486 c 0
 1320.33333333 486 1297.33333333 493.666666667 1282 509 c 128
 1266.66666667 524.333333333 1259 543.666666667 1259 567 c 0
 1259 577 1260 586.5 1262 595.5 c 128
 1264 604.5 1269.33333333 616.333333333 1278 631 c 128
 1286.66666667 645.666666667 1296 657.333333333 1306 666 c 1
 1293 667 l 2
 1261 667 1232.33333333 654 1207 628 c 0
 1184.33333333 604.666666667 1169.66666667 576.666666667 1163 544 c 0
 1162.33333333 540 1161.83333333 535.666666667 1161.5 531 c 128
 1161.16666667 526.333333333 1161 523 1161 521 c 0
 1161 494.333333333 1169.66666667 471.333333333 1187 452 c 1
 1217 452 1240.33333333 444.833333333 1257 430.5 c 128
 1273.66666667 416.166666667 1282 398.333333333 1282 377 c 0
 1282 373 1281.33333333 367 1280 359 c 2
 1252 225 l 1
 1293.33333333 217 1325.66666667 205.666666667 1349 191 c 0
 1378.33333333 172.333333333 1393 149.666666667 1393 123 c 0
 1393 119.666666667 1392.33333333 114 1391 106 c 0
1417 589 m 0
 1418.33333333 595.666666667 1419 600.666666667 1419 604 c 0
 1419 616.666666667 1415 627.333333333 1407 636 c 128
 1399 644.666666667 1388 649 1374 649 c 1
 1358.66666667 645.666666667 1345.33333333 638.666666667 1334 628 c 128
 1322.66666667 617.333333333 1315.33333333 604 1312 588 c 0
 1311.33333333 585.333333333 1311 581.333333333 1311 576 c 0
 1311 564 1314.5 554.166666667 1321.5 546.5 c 128
 1328.5 538.833333333 1338.66666667 535 1352 535 c 0
 1367.33333333 535 1381.16666667 540.166666667 1393.5 550.5 c 128
 1405.83333333 560.833333333 1413.66666667 573.666666667 1417 589 c 0
1168 239 m 1
 1191 348 l 2
 1194.33333333 363.333333333 1191 375.166666667 1181 383.5 c 128
 1171 391.833333333 1156 396 1136 396 c 0
 1116.66666667 396 1100.83333333 389.833333333 1088.5 377.5 c 128
 1076.16666667 365.166666667 1067.66666667 347.666666667 1063 325 c 0
 1062.33333333 322.333333333 1062 318.333333333 1062 313 c 0
 1062 294.333333333 1073.33333333 278.333333333 1096 265 c 0
 1114.66666667 254.333333333 1138.66666667 245.666666667 1168 239 c 1
1333 110 m 0
 1336.33333333 125.333333333 1329.66666667 137.666666667 1313 147 c 128
 1296.33333333 156.333333333 1272 164 1240 170 c 1
 1214 49 l 1
 1266 49 l 2
 1286 49 1301.16666667 54.5 1311.5 65.5 c 128
 1321.83333333 76.5 1329 91.3333333333 1333 110 c 0
616 154 m 0
 617.333333333 162 618 167.333333333 618 170 c 0
 618 200 598.333333333 215 559 215 c 2
 497 215 l 1
 494.333333333 201 492 184.333333333 490 165 c 128
 488 145.666666667 487.333333333 132 488 124 c 0
 492.666666667 90 510.333333333 73 541 73 c 0
 559.666666667 73 575.666666667 81.1666666667 589 97.5 c 128
 602.333333333 113.833333333 611.333333333 132.666666667 616 154 c 0
288 267 m 1
 316 399 l 1
 222 399 l 1
 194 267 l 1
 288 267 l 1
253 105 m 2
 277 215 l 1
 159 215 l 2
 139 215 120.666666667 206.333333333 104 189 c 0
 91.3333333333 175.666666667 82.3333333333 157.333333333 77 134 c 0
 75 126 74 118.333333333 74 111 c 0
 74 69.6666666667 101 49 155 49 c 0
 172.333333333 49 192.333333333 55 215 67 c 128
 237.666666667 79 250.333333333 91.6666666667 253 105 c 2
EndSplineSet
EndChar

StartChar: u0B95_u0BB7_u0BCD
Encoding: 70 -1 70
Width: 1464
Flags: HW
AnchorPoint: "N" 363.5 -3 basechar 0
LayerCount: 2
Fore
SplineSet
844 586 m 0
 840 568.666666667 830 553.333333333 814 540 c 128
 798 526.666666667 781 520 763 520 c 0
 747.666666667 520 735 525 725 535 c 128
 715 545 710 557.666666667 710 573 c 0
 710 578.333333333 710.333333333 582.666666667 711 586 c 0
 714.333333333 603.333333333 724 618.666666667 740 632 c 128
 756 645.333333333 773 652 791 652 c 0
 807 652 820 646.666666667 830 636 c 128
 840 625.333333333 845 612.333333333 845 597 c 0
 845 592.333333333 844.666666667 588.666666667 844 586 c 0
1391 106 m 0
 1384.33333333 75.3333333333 1370.66666667 50.3333333333 1350 31 c 0
 1325.33333333 8.33333333333 1293.33333333 -3 1254 -3 c 2
 1203 -3 l 1
 1159 -212 l 1
 1072 -212 l 1
 1116 -3 l 1
 689 -3 l 1
 730.333333333 31 762.5 65.1666666667 785.5 99.5 c 128
 808.5 133.833333333 824 169 832 205 c 0
 836 224.333333333 838 242.666666667 838 260 c 0
 838 302 826.666666667 335.666666667 804 361 c 128
 781.333333333 386.333333333 749.666666667 399 709 399 c 0
 657 399 611.666666667 384 573 354 c 0
 542.333333333 330 521 301 509 267 c 1
 601 267 l 2
 635.666666667 267 662.666666667 260.833333333 682 248.5 c 128
 701.333333333 236.166666667 711 215.666666667 711 187 c 0
 711 182.333333333 710.5 176.833333333 709.5 170.5 c 128
 708.5 164.166666667 707.666666667 159 707 155 c 0
 697 107.666666667 678.166666667 69.5 650.5 40.5 c 128
 622.833333333 11.5 590.333333333 -3 553 -3 c 0
 513 -3 483.333333333 8.33333333333 464 31 c 128
 444.666666667 53.6666666667 435 86.6666666667 435 130 c 0
 435 152 438.333333333 180.333333333 445 215 c 1
 367 215 l 1
 344 109 l 2
 338 80.3333333333 315.166666667 54.5 275.5 31.5 c 128
 235.833333333 8.5 195.666666667 -3 155 -3 c 0
 113.666666667 -3 81.3333333333 5.83333333333 58 23.5 c 128
 34.6666666667 41.1666666667 23 68.3333333333 23 105 c 0
 23 117.666666667 24.3333333333 130.333333333 27 143 c 0
 34.3333333333 178.333333333 51.6666666667 208 79 232 c 0
 100.333333333 250.666666667 121 261.666666667 141 265 c 1
 181 452 l 1
 514 452 l 1
 503 399 l 1
 406 399 l 1
 378 267 l 1
 461 267 l 1
 483.666666667 325 517.5 370.333333333 562.5 403 c 128
 607.5 435.666666667 660.666666667 452 722 452 c 0
 792 452 844.333333333 435 879 401 c 0
 910.333333333 370.333333333 926 328 926 274 c 0
 926 254.666666667 923 231 917 203 c 128
 911 175 902.333333333 150 891 128 c 0
 877.666666667 101.333333333 858.333333333 75 833 49 c 1
 1127 49 l 1
 1156 185 l 1
 1113.33333333 193.666666667 1080.33333333 206 1057 222 c 0
 1027 242.666666667 1012 269 1012 301 c 0
 1012 307.666666667 1013 315.666666667 1015 325 c 0
 1023 364.333333333 1040.33333333 395.333333333 1067 418 c 128
 1093.66666667 440.666666667 1128 452 1170 452 c 0
 1207.33333333 452 1235.33333333 445.166666667 1254 431.5 c 128
 1272.66666667 417.833333333 1282 399.666666667 1282 377 c 0
 1282 373 1281.33333333 367 1280 359 c 2
 1252 225 l 1
 1293.33333333 217 1325.66666667 205.666666667 1349 191 c 0
 1378.33333333 172.333333333 1393 149.666666667 1393 123 c 0
 1393 119.666666667 1392.33333333 114 1391 106 c 0
1168 239 m 1
 1191 348 l 2
 1194.33333333 363.333333333 1191 375.166666667 1181 383.5 c 128
 1171 391.833333333 1156 396 1136 396 c 0
 1116.66666667 396 1100.83333333 389.833333333 1088.5 377.5 c 128
 1076.16666667 365.166666667 1067.66666667 347.666666667 1063 325 c 0
 1062.33333333 322.333333333 1062 318.333333333 1062 313 c 0
 1062 294.333333333 1073.33333333 278.333333333 1096 265 c 0
 1114.66666667 254.333333333 1138.66666667 245.666666667 1168 239 c 1
1333 110 m 0
 1336.33333333 125.333333333 1329.66666667 137.666666667 1313 147 c 128
 1296.33333333 156.333333333 1272 164 1240 170 c 1
 1214 49 l 1
 1266 49 l 2
 1286 49 1301.16666667 54.5 1311.5 65.5 c 128
 1321.83333333 76.5 1329 91.3333333333 1333 110 c 0
616 154 m 0
 617.333333333 162 618 167.333333333 618 170 c 0
 618 200 598.333333333 215 559 215 c 2
 497 215 l 1
 494.333333333 201 492 184.333333333 490 165 c 128
 488 145.666666667 487.333333333 132 488 124 c 0
 492.666666667 90 510.333333333 73 541 73 c 0
 559.666666667 73 575.666666667 81.1666666667 589 97.5 c 128
 602.333333333 113.833333333 611.333333333 132.666666667 616 154 c 0
288 267 m 1
 316 399 l 1
 222 399 l 1
 194 267 l 1
 288 267 l 1
253 105 m 2
 277 215 l 1
 159 215 l 2
 139 215 120.666666667 206.333333333 104 189 c 0
 91.3333333333 175.666666667 82.3333333333 157.333333333 77 134 c 0
 75 126 74 118.333333333 74 111 c 0
 74 69.6666666667 101 49 155 49 c 0
 172.333333333 49 192.333333333 55 215 67 c 128
 237.666666667 79 250.333333333 91.6666666667 253 105 c 2
EndSplineSet
EndChar

StartChar: u0B9A
Encoding: 71 2970 71
Width: 515
Flags: HW
AnchorPoint: "V" 363.5 453 basechar 0
AnchorPoint: "N" 363.5 -3 basechar 0
LayerCount: 2
Fore
SplineSet
464 215 m 1
 367 215 l 1
 344 109 l 2
 338 80.3333333333 315.166666667 54.5 275.5 31.5 c 128
 235.833333333 8.5 195.666666667 -3 155 -3 c 0
 113.666666667 -3 81.3333333333 5.83333333333 58 23.5 c 128
 34.6666666667 41.1666666667 23 68.3333333333 23 105 c 0
 23 117.666666667 24.3333333333 130.333333333 27 143 c 0
 34.3333333333 178.333333333 51.6666666667 208 79 232 c 0
 100.333333333 250.666666667 121 261.666666667 141 265 c 1
 181 452 l 1
 514 452 l 1
 503 399 l 1
 406 399 l 1
 378 267 l 1
 475 267 l 1
 464 215 l 1
288 267 m 1
 316 399 l 1
 222 399 l 1
 194 267 l 1
 288 267 l 1
253 105 m 2
 277 215 l 1
 159 215 l 2
 139 215 120.666666667 206.333333333 104 189 c 0
 91.3333333333 175.666666667 82.3333333333 157.333333333 77 134 c 0
 75 126 74 118.333333333 74 111 c 0
 74 69.6666666667 101 49 155 49 c 0
 172.333333333 49 192.333333333 55 215 67 c 128
 237.666666667 79 250.333333333 91.6666666667 253 105 c 2
EndSplineSet
EndChar

StartChar: u0B9A_u0BBF
Encoding: 72 -1 72
Width: 626
Flags: HW
AnchorPoint: "V" 363.5 714.573 basechar 0
AnchorPoint: "N" 363.5 -3 basechar 0
LayerCount: 2
Fore
SplineSet
529 -3 m 1
 480 -3 l 1
 575 444 l 2
 577.666666667 455.333333333 579 467.666666667 579 481 c 0
 579 525 562.666666667 560.333333333 530 587 c 128
 497.333333333 613.666666667 455 627 403 627 c 0
 327.666666667 627 267 608 221 570 c 0
 180.333333333 536 153.666666667 490 141 432 c 0
 137 412.666666667 135 392.666666667 135 372 c 0
 135 342.666666667 139.666666667 318.666666667 149 300 c 1
 181 452 l 1
 514 452 l 1
 503 399 l 1
 406 399 l 1
 378 267 l 1
 475 267 l 1
 464 215 l 1
 367 215 l 1
 344 109 l 2
 338 80.3333333333 315.166666667 54.5 275.5 31.5 c 128
 235.833333333 8.5 195.666666667 -3 155 -3 c 0
 113.666666667 -3 81.3333333333 5.83333333333 58 23.5 c 128
 34.6666666667 41.1666666667 23 68.3333333333 23 105 c 0
 23 117.666666667 24.3333333333 130.333333333 27 143 c 0
 33 170.333333333 44.6666666667 194.333333333 62 215 c 0
 76 231 92.6666666667 244.333333333 112 255 c 1
 101.333333333 268.333333333 93.3333333333 284.166666667 88 302.5 c 128
 82.6666666667 320.833333333 80 340 80 360 c 0
 80 381.333333333 82.6666666667 403.666666667 88 427 c 0
 104.666666667 506.333333333 138.666666667 572.333333333 190 625 c 0
 251.333333333 687.666666667 328.666666667 719 422 719 c 0
 490 719 542.166666667 702.5 578.5 669.5 c 128
 614.833333333 636.5 633 588.333333333 633 525 c 0
 633 509.666666667 632.333333333 495.833333333 631 483.5 c 128
 629.666666667 471.166666667 627 455.666666667 623 437 c 2
 529 -3 l 1
288 267 m 1
 316 399 l 1
 222 399 l 1
 194 267 l 1
 288 267 l 1
253 105 m 2
 277 215 l 1
 159 215 l 2
 139 215 120.666666667 206.333333333 104 189 c 0
 91.3333333333 175.666666667 82.3333333333 157.333333333 77 134 c 0
 75 126 74 118.333333333 74 111 c 0
 74 69.6666666667 101 49 155 49 c 0
 172.333333333 49 192.333333333 55 215 67 c 128
 237.666666667 79 250.333333333 91.6666666667 253 105 c 2
EndSplineSet
EndChar

StartChar: u0B9A_u0BC0
Encoding: 73 -1 73
Width: 514
Flags: HW
AnchorPoint: "V" 363.5 726.625 basechar 0
AnchorPoint: "N" 363.5 -3 basechar 0
LayerCount: 2
Fore
SplineSet
635 601 m 0
 627.666666667 569 610.666666667 541.833333333 584 519.5 c 128
 557.333333333 497.166666667 526.333333333 486 491 486 c 0
 461.666666667 486 439 493.666666667 423 509 c 128
 407 524.333333333 399 543.666666667 399 567 c 0
 399 577 400.166666667 587 402.5 597 c 128
 404.833333333 607 409.833333333 618.666666667 417.5 632 c 128
 425.166666667 645.333333333 435 656.666666667 447 666 c 1
 433 667 l 1
 363 667 298.666666667 641.333333333 240 590 c 0
 186.666666667 543.333333333 153.666666667 490.666666667 141 432 c 0
 137 412.666666667 135 392.666666667 135 372 c 0
 135 342.666666667 139.666666667 318.666666667 149 300 c 1
 181 452 l 1
 513 452 l 1
 502 399 l 1
 406 399 l 1
 378 267 l 1
 474 267 l 1
 463 215 l 1
 367 215 l 1
 344 109 l 2
 338 80.3333333333 315.166666667 54.5 275.5 31.5 c 128
 235.833333333 8.5 195.666666667 -3 155 -3 c 0
 113.666666667 -3 81.3333333333 5.83333333333 58 23.5 c 128
 34.6666666667 41.1666666667 23 68.3333333333 23 105 c 0
 23 117.666666667 24.3333333333 130.333333333 27 143 c 0
 33 170.333333333 44.6666666667 194.333333333 62 215 c 0
 76 231 92.6666666667 244.333333333 112 255 c 1
 101.333333333 268.333333333 93.3333333333 284.166666667 88 302.5 c 128
 82.6666666667 320.833333333 80 340 80 360 c 0
 80 381.333333333 82.6666666667 403.666666667 88 427 c 0
 108 520.333333333 154.166666667 596.166666667 226.5 654.5 c 128
 298.833333333 712.833333333 382 742 476 742 c 0
 520 742 555.666666667 735 583 721 c 0
 619.666666667 702.333333333 638 673 638 633 c 0
 638 623 637 612.333333333 635 601 c 0
557 589 m 0
 557.666666667 591.666666667 558 594.333333333 558 597 c 128
 558 601 558 601 558 603 c 0
 558 616.333333333 554 627.333333333 546 636 c 128
 538 644.666666667 527 649 513 649 c 1
 497.666666667 645.666666667 484.333333333 638.666666667 473 628 c 128
 461.666666667 617.333333333 454.333333333 604 451 588 c 0
 450.333333333 585.333333333 450 581.666666667 450 577 c 0
 450 565 453.666666667 555 461 547 c 128
 468.333333333 539 478.666666667 535 492 535 c 0
 507.333333333 535 521.166666667 540.166666667 533.5 550.5 c 128
 545.833333333 560.833333333 553.666666667 573.666666667 557 589 c 0
288 267 m 1
 316 399 l 1
 222 399 l 1
 194 267 l 1
 288 267 l 1
253 105 m 2
 277 215 l 1
 159 215 l 2
 139 215 120.666666667 206.333333333 104 189 c 0
 91.3333333333 175.666666667 82.3333333333 157.333333333 77 134 c 0
 75 126 74 118.333333333 74 111 c 0
 74 69.6666666667 101 49 155 49 c 0
 172.333333333 49 192.333333333 55 215 67 c 128
 237.666666667 79 250.333333333 91.6666666667 253 105 c 2
EndSplineSet
EndChar

StartChar: u0B9A_u0BC1
Encoding: 74 -1 74
Width: 674
Flags: HW
AnchorPoint: "V" 363.5 453 basechar 0
AnchorPoint: "N" 363.5 -3 basechar 0
LayerCount: 2
Fore
SplineSet
624 215 m 1
 537 215 l 1
 490 -3 l 1
 398 -3 l 1
 445 215 l 1
 367 215 l 1
 344 109 l 2
 338 80.3333333333 315.166666667 54.5 275.5 31.5 c 128
 235.833333333 8.5 195.666666667 -3 155 -3 c 0
 113.666666667 -3 81.3333333333 5.83333333333 58 23.5 c 128
 34.6666666667 41.1666666667 23 68.3333333333 23 105 c 0
 23 117.666666667 24.3333333333 130.333333333 27 143 c 0
 34.3333333333 178.333333333 51.6666666667 208 79 232 c 0
 100.333333333 250.666666667 121 261.666666667 141 265 c 1
 181 452 l 1
 514 452 l 1
 503 399 l 1
 406 399 l 1
 378 267 l 1
 635 267 l 1
 624 215 l 1
288 267 m 1
 316 399 l 1
 222 399 l 1
 194 267 l 1
 288 267 l 1
253 105 m 2
 277 215 l 1
 159 215 l 2
 139 215 120.666666667 206.333333333 104 189 c 0
 91.3333333333 175.666666667 82.3333333333 157.333333333 77 134 c 0
 75 126 74 118.333333333 74 111 c 0
 74 69.6666666667 101 49 155 49 c 0
 172.333333333 49 192.333333333 55 215 67 c 128
 237.666666667 79 250.333333333 91.6666666667 253 105 c 2
EndSplineSet
EndChar

StartChar: u0B9A_u0BC2
Encoding: 75 -1 75
Width: 766
Flags: HW
AnchorPoint: "V" 363.5 453 basechar 0
AnchorPoint: "N" 363.5 -3 basechar 0
LayerCount: 2
Fore
SplineSet
675 22 m 0
 658.333333333 -57.3333333333 614 -121.833333333 542 -171.5 c 128
 470 -221.166666667 387 -246 293 -246 c 0
 214.333333333 -246 153.666666667 -235.833333333 111 -215.5 c 128
 68.3333333333 -195.166666667 47 -166.666666667 47 -130 c 0
 47 -126.666666667 47.6666666667 -120.333333333 49 -111 c 0
 55.6666666667 -81.6666666667 73.5 -58.8333333333 102.5 -42.5 c 128
 131.5 -26.1666666667 164.666666667 -18 202 -18 c 0
 228.666666667 -18 253.5 -22.8333333333 276.5 -32.5 c 128
 299.5 -42.1666666667 318.666666667 -55.3333333333 334 -72 c 1
 308 -105 l 1
 292.666666667 -90.3333333333 274.5 -79.5 253.5 -72.5 c 128
 232.5 -65.5 211.333333333 -62 190 -62 c 0
 137.333333333 -62 107.666666667 -78 101 -110 c 0
 100.333333333 -112.666666667 100 -117 100 -123 c 0
 100 -148.333333333 118.333333333 -167 155 -179 c 0
 185.666666667 -189 226 -194 276 -194 c 0
 352 -194 420 -172 480 -128 c 0
 536.666666667 -86.6666666667 571 -38 583 18 c 0
 585.666666667 30.6666666667 587.166666667 38.6666666667 587.5 42 c 128
 587.833333333 45.3333333333 588 51.3333333333 588 60 c 0
 588 82.6666666667 583.333333333 99.6666666667 574 111 c 128
 564.666666667 122.333333333 552.666666667 128 538 128 c 0
 530 128 523 126 517 122 c 1
 490 -3 l 1
 398 -3 l 1
 445 215 l 1
 367 215 l 1
 344 109 l 2
 338 80.3333333333 315.166666667 54.5 275.5 31.5 c 128
 235.833333333 8.5 195.666666667 -3 155 -3 c 0
 113.666666667 -3 81.3333333333 5.83333333333 58 23.5 c 128
 34.6666666667 41.1666666667 23 68.3333333333 23 105 c 0
 23 117.666666667 24.3333333333 130.333333333 27 143 c 0
 34.3333333333 178.333333333 51.6666666667 208 79 232 c 0
 100.333333333 250.666666667 121 261.666666667 141 265 c 1
 181 452 l 1
 514 452 l 1
 503 399 l 1
 406 399 l 1
 378 267 l 1
 635 267 l 1
 624 215 l 1
 537 215 l 1
 529 178 l 1
 544.333333333 186.666666667 561.333333333 191 580 191 c 0
 609.333333333 191 633.5 180.833333333 652.5 160.5 c 128
 671.5 140.166666667 681 111 681 73 c 0
 681 58.3333333333 679 41.3333333333 675 22 c 0
288 267 m 1
 316 399 l 1
 222 399 l 1
 194 267 l 1
 288 267 l 1
253 105 m 2
 277 215 l 1
 159 215 l 2
 139 215 120.666666667 206.333333333 104 189 c 0
 91.3333333333 175.666666667 82.3333333333 157.333333333 77 134 c 0
 75 126 74 118.333333333 74 111 c 0
 74 69.6666666667 101 49 155 49 c 0
 172.333333333 49 192.333333333 55 215 67 c 128
 237.666666667 79 250.333333333 91.6666666667 253 105 c 2
EndSplineSet
EndChar

StartChar: u0B9A_u0BCD
Encoding: 76 -1 76
Width: 515
Flags: HW
AnchorPoint: "N" 363.5 -3 basechar 0
LayerCount: 2
Fore
SplineSet
430 586 m 0
 426 568 416.166666667 552.5 400.5 539.5 c 128
 384.833333333 526.5 368 520 350 520 c 0
 334 520 321 525 311 535 c 128
 301 545 296 557.666666667 296 573 c 0
 296 575 297.166666667 582 299.5 594 c 128
 301.833333333 606 311 618.666666667 327 632 c 128
 343 645.333333333 360 652 378 652 c 0
 394 652 406.833333333 646.833333333 416.5 636.5 c 128
 426.166666667 626.166666667 431 613.333333333 431 598 c 0
 431 592.666666667 430.666666667 588.666666667 430 586 c 0
464 215 m 1
 367 215 l 1
 344 109 l 2
 338 80.3333333333 315.166666667 54.5 275.5 31.5 c 128
 235.833333333 8.5 195.666666667 -3 155 -3 c 0
 113.666666667 -3 81.3333333333 5.83333333333 58 23.5 c 128
 34.6666666667 41.1666666667 23 68.3333333333 23 105 c 0
 23 117.666666667 24.3333333333 130.333333333 27 143 c 0
 34.3333333333 178.333333333 51.6666666667 208 79 232 c 0
 100.333333333 250.666666667 121 261.666666667 141 265 c 1
 181 452 l 1
 514 452 l 1
 503 399 l 1
 406 399 l 1
 378 267 l 1
 475 267 l 1
 464 215 l 1
288 267 m 1
 316 399 l 1
 222 399 l 1
 194 267 l 1
 288 267 l 1
253 105 m 2
 277 215 l 1
 159 215 l 2
 139 215 120.666666667 206.333333333 104 189 c 0
 91.3333333333 175.666666667 82.3333333333 157.333333333 77 134 c 0
 75 126 74 118.333333333 74 111 c 0
 74 69.6666666667 101 49 155 49 c 0
 172.333333333 49 192.333333333 55 215 67 c 128
 237.666666667 79 250.333333333 91.6666666667 253 105 c 2
EndSplineSet
EndChar

StartChar: u0B9C
Encoding: 77 2972 77
Width: 644
Flags: HW
AnchorPoint: "V" 408.5 453 basechar 0
AnchorPoint: "N" 408.5 -159.73 basechar 0
LayerCount: 2
Fore
SplineSet
609 289 m 0
 602.333333333 255.666666667 589.666666667 223.666666667 571 193 c 0
 548.333333333 155 522.333333333 129 493 115 c 0
 455.666666667 97.6666666667 399.333333333 87 324 83 c 128
 248.666666667 79 197.333333333 72 170 62 c 0
 156 58 143 50.3333333333 131 39 c 0
 113.666666667 23 103 5 99 -15 c 128
 95 -35 93 -50.3333333333 93 -61 c 0
 93 -77 96.6666666667 -89.3333333333 104 -98 c 128
 111.333333333 -106.666666667 123.333333333 -111 140 -111 c 0
 164 -111 186.333333333 -105 207 -93 c 0
 219 -85.6666666667 245.833333333 -61.6666666667 287.5 -21 c 128
 329.166666667 19.6666666667 354.333333333 42.3333333333 363 47 c 0
 384.333333333 57.6666666667 411 63 443 63 c 0
 508.333333333 63 541 37.3333333333 541 -14 c 0
 541 -22.6666666667 540 -32 538 -42 c 0
 530.666666667 -75.3333333333 515.333333333 -102.333333333 492 -123 c 0
 464.666666667 -147 430.333333333 -159 389 -159 c 0
 375.666666667 -159 362.833333333 -157.5 350.5 -154.5 c 128
 338.166666667 -151.5 326.333333333 -146.333333333 315 -139 c 1
 338 -97 l 1
 345.333333333 -99.6666666667 354 -101.833333333 364 -103.5 c 128
 374 -105.166666667 383 -106 391 -106 c 0
 407 -106 420 -101 430 -91 c 128
 440 -81 446.333333333 -69.1666666667 449 -55.5 c 128
 451.666666667 -41.8333333333 453 -31.6666666667 453 -25 c 0
 453 -3.66666666667 438 7 408 7 c 0
 394 7 376 -3.66666666667 354 -25 c 0
 339.333333333 -40.3333333333 328.666666667 -51.3333333333 322 -58 c 0
 286 -94.6666666667 260 -118.666666667 244 -130 c 0
 210 -154 175 -166 139 -166 c 0
 93 -166 59.3333333333 -157.666666667 38 -141 c 128
 16.6666666667 -124.333333333 6 -99.6666666667 6 -67 c 0
 6 -53 8 -37.3333333333 12 -20 c 0
 19.3333333333 16 33.6666666667 44 55 64 c 0
 71.6666666667 80 94.6666666667 93 124 103 c 0
 163.333333333 117 236 128 342 136 c 0
 386.666666667 139.333333333 421.666666667 146.666666667 447 158 c 0
 463 164.666666667 478.166666667 180.5 492.5 205.5 c 128
 506.833333333 230.5 518 261 526 297 c 0
 528.666666667 307.666666667 530 319.666666667 530 333 c 0
 530 353 525 369 515 381 c 128
 505 393 489.666666667 399 469 399 c 0
 452.333333333 399 437.666666667 390.666666667 425 374 c 0
 415 361.333333333 408.666666667 348.333333333 406 335 c 2
 379 205 l 1
 293 205 l 1
 319 330 l 2
 319.666666667 332.666666667 320 336.666666667 320 342 c 0
 320 356.666666667 315.333333333 369 306 379 c 0
 293.333333333 392.333333333 274.333333333 399 249 399 c 0
 229 399 209 395 189 387 c 128
 169 379 152 368.333333333 138 355 c 1
 155.333333333 364.333333333 173.333333333 369 192 369 c 0
 216.666666667 369 236.166666667 360.833333333 250.5 344.5 c 128
 264.833333333 328.166666667 272 307.666666667 272 283 c 0
 272 275 271 266.333333333 269 257 c 0
 261.666666667 223 246 196.333333333 222 177 c 128
 198 157.666666667 169.333333333 148 136 148 c 0
 107.333333333 148 86.5 156.333333333 73.5 173 c 128
 60.5 189.666666667 54 212.333333333 54 241 c 0
 54 249 54.5 257.833333333 55.5 267.5 c 128
 56.5 277.166666667 58.3333333333 288 61 300 c 0
 69.6666666667 341.333333333 92.3333333333 376.333333333 129 405 c 0
 169 436.333333333 217.333333333 452 274 452 c 0
 307.333333333 452 333 448 351 440 c 128
 369 432 381.333333333 421 388 407 c 1
 399.333333333 420.333333333 411.666666667 430.666666667 425 438 c 0
 443 447.333333333 464.333333333 452 489 452 c 0
 573 452 615 414.666666667 615 340 c 0
 615 324 613 307 609 289 c 0
191 273 m 0
 191 282.333333333 187.833333333 290 181.5 296 c 128
 175.166666667 302 167.333333333 305 158 305 c 0
 140 305 123.333333333 296.333333333 108 279 c 1
 106 269.666666667 105 261.333333333 105 254 c 0
 105 240.666666667 108 229.833333333 114 221.5 c 128
 120 213.166666667 128.666666667 209 140 209 c 0
 155.333333333 209 167.666666667 215.833333333 177 229.5 c 128
 186.333333333 243.166666667 191 257.666666667 191 273 c 0
EndSplineSet
EndChar

StartChar: u0B9C_u0BBF
Encoding: 78 -1 78
Width: 771
Flags: HW
AnchorPoint: "V" 408.5 453 basechar 0
AnchorPoint: "N" 408.5 -159.73 basechar 0
LayerCount: 2
Fore
SplineSet
674 -3 m 1
 626 -3 l 1
 735 510 l 2
 736.333333333 515.333333333 737.333333333 522.833333333 738 532.5 c 128
 738.666666667 542.166666667 739 547.333333333 739 548 c 0
 739 574 732.666666667 594.333333333 720 609 c 0
 704.666666667 626.333333333 680.666666667 635 648 635 c 0
 610 635 578.833333333 623.666666667 554.5 601 c 128
 530.166666667 578.333333333 513.333333333 546.333333333 504 505 c 0
 502.666666667 495.666666667 502 489 502 485 c 0
 502 471 504.666666667 460 510 452 c 1
 580 444 615 406.666666667 615 340 c 0
 615 324 613 307 609 289 c 0
 602.333333333 255.666666667 589.666666667 223.666666667 571 193 c 0
 548.333333333 155 522.333333333 129 493 115 c 0
 455.666666667 97.6666666667 399.333333333 87 324 83 c 128
 248.666666667 79 197.333333333 72 170 62 c 0
 156 58 143 50.3333333333 131 39 c 0
 113.666666667 23 103 5 99 -15 c 128
 95 -35 93 -50.3333333333 93 -61 c 0
 93 -77 96.6666666667 -89.3333333333 104 -98 c 128
 111.333333333 -106.666666667 123.333333333 -111 140 -111 c 0
 164 -111 186.333333333 -105 207 -93 c 0
 219 -85.6666666667 245.833333333 -61.6666666667 287.5 -21 c 128
 329.166666667 19.6666666667 354.333333333 42.3333333333 363 47 c 0
 384.333333333 57.6666666667 411 63 443 63 c 0
 508.333333333 63 541 37.3333333333 541 -14 c 0
 541 -22.6666666667 540 -32 538 -42 c 0
 530.666666667 -75.3333333333 515.333333333 -102.333333333 492 -123 c 0
 464.666666667 -147 430.333333333 -159 389 -159 c 0
 375.666666667 -159 362.833333333 -157.5 350.5 -154.5 c 128
 338.166666667 -151.5 326.333333333 -146.333333333 315 -139 c 1
 338 -97 l 1
 345.333333333 -99.6666666667 354 -101.833333333 364 -103.5 c 128
 374 -105.166666667 383 -106 391 -106 c 0
 407 -106 420 -101 430 -91 c 128
 440 -81 446.333333333 -69.1666666667 449 -55.5 c 128
 451.666666667 -41.8333333333 453 -31.6666666667 453 -25 c 0
 453 -3.66666666667 438 7 408 7 c 0
 394 7 376 -3.66666666667 354 -25 c 0
 339.333333333 -40.3333333333 328.666666667 -51.3333333333 322 -58 c 0
 286 -94.6666666667 260 -118.666666667 244 -130 c 0
 210 -154 175 -166 139 -166 c 0
 93 -166 59.3333333333 -157.666666667 38 -141 c 128
 16.6666666667 -124.333333333 6 -99.6666666667 6 -67 c 0
 6 -53 8 -37.3333333333 12 -20 c 0
 19.3333333333 16 33.6666666667 44 55 64 c 0
 71.6666666667 80 94.6666666667 93 124 103 c 0
 163.333333333 117 236 128 342 136 c 0
 386.666666667 139.333333333 421.666666667 146.666666667 447 158 c 0
 463 164.666666667 478.166666667 180.5 492.5 205.5 c 128
 506.833333333 230.5 518 261 526 297 c 0
 528.666666667 307.666666667 530 319.666666667 530 333 c 0
 530 353 525 369 515 381 c 128
 505 393 489.666666667 399 469 399 c 0
 452.333333333 399 437.666666667 390.666666667 425 374 c 0
 415 361.333333333 408.666666667 348.333333333 406 335 c 2
 379 205 l 1
 293 205 l 1
 319 330 l 2
 319.666666667 332.666666667 320 336.666666667 320 342 c 0
 320 356.666666667 315.333333333 369 306 379 c 0
 293.333333333 392.333333333 274.333333333 399 249 399 c 0
 229 399 209 395 189 387 c 128
 169 379 152 368.333333333 138 355 c 1
 155.333333333 364.333333333 173.333333333 369 192 369 c 0
 216.666666667 369 236.166666667 360.833333333 250.5 344.5 c 128
 264.833333333 328.166666667 272 307.666666667 272 283 c 0
 272 275 271 266.333333333 269 257 c 0
 261.666666667 223 246 196.333333333 222 177 c 128
 198 157.666666667 169.333333333 148 136 148 c 0
 107.333333333 148 86.5 156.333333333 73.5 173 c 128
 60.5 189.666666667 54 212.333333333 54 241 c 0
 54 249 54.5 257.833333333 55.5 267.5 c 128
 56.5 277.166666667 58.3333333333 288 61 300 c 0
 69.6666666667 341.333333333 92.3333333333 376.333333333 129 405 c 0
 169 436.333333333 217.333333333 452 274 452 c 0
 307.333333333 452 333 448 351 440 c 128
 369 432 381.333333333 421 388 407 c 1
 396.666666667 417 405.333333333 425 414 431 c 0
 426 439 439.666666667 444.333333333 455 447 c 1
 453.666666667 456.333333333 452.666666667 463.5 452 468.5 c 128
 451.333333333 473.5 451 481 451 491 c 0
 451 507 453 524.666666667 457 544 c 0
 467.666666667 594.666666667 489.666666667 635.666666667 523 667 c 0
 561 702.333333333 609 720 667 720 c 0
 713.666666667 720 747.333333333 706.666666667 768 680 c 0
 784.666666667 658.666666667 793 628.666666667 793 590 c 0
 793 574 792.333333333 561.166666667 791 551.5 c 128
 789.666666667 541.833333333 787.333333333 528.333333333 784 511 c 2
 674 -3 l 1
191 273 m 0
 191 282.333333333 187.833333333 290 181.5 296 c 128
 175.166666667 302 167.333333333 305 158 305 c 0
 140 305 123.333333333 296.333333333 108 279 c 1
 106 269.666666667 105 261.333333333 105 254 c 0
 105 240.666666667 108 229.833333333 114 221.5 c 128
 120 213.166666667 128.666666667 209 140 209 c 0
 155.333333333 209 167.666666667 215.833333333 177 229.5 c 128
 186.333333333 243.166666667 191 257.666666667 191 273 c 0
EndSplineSet
EndChar

StartChar: u0B9C_u0BC0
Encoding: 79 -1 79
Width: 676
Flags: HW
AnchorPoint: "V" 408.5 453 basechar 0
AnchorPoint: "N" 408.5 -159.73 basechar 0
LayerCount: 2
Fore
SplineSet
818 601 m 0
 810.666666667 568.333333333 793.666666667 541 767 519 c 128
 740.333333333 497 708.666666667 486 672 486 c 0
 642 486 619.333333333 493.666666667 604 509 c 128
 588.666666667 524.333333333 581 543.666666667 581 567 c 0
 581 577 582.166666667 586.833333333 584.5 596.5 c 128
 586.833333333 606.166666667 591.833333333 617.833333333 599.5 631.5 c 128
 607.166666667 645.166666667 616.666666667 656.666666667 628 666 c 1
 614 667 l 2
 582 667 553.333333333 654 528 628 c 0
 505.333333333 604.666666667 490.666666667 576.666666667 484 544 c 0
 482 536 481 528.333333333 481 521 c 0
 481 507.666666667 483.333333333 495.5 488 484.5 c 128
 492.666666667 473.5 499 462.666666667 507 452 c 1
 579 444.666666667 615 406.666666667 615 338 c 0
 615 323.333333333 613 307 609 289 c 0
 602.333333333 255.666666667 589.666666667 223.666666667 571 193 c 0
 548.333333333 155 522.333333333 129 493 115 c 0
 455.666666667 97.6666666667 399.333333333 87 324 83 c 128
 248.666666667 79 197.333333333 72 170 62 c 0
 156 58 143 50.3333333333 131 39 c 0
 113.666666667 23 103 5 99 -15 c 128
 95 -35 93 -50.3333333333 93 -61 c 0
 93 -77 96.6666666667 -89.3333333333 104 -98 c 128
 111.333333333 -106.666666667 123.333333333 -111 140 -111 c 0
 164 -111 186.333333333 -105 207 -93 c 0
 219 -85.6666666667 245.833333333 -61.6666666667 287.5 -21 c 128
 329.166666667 19.6666666667 354.333333333 42.3333333333 363 47 c 0
 384.333333333 57.6666666667 411 63 443 63 c 0
 508.333333333 63 541 37.3333333333 541 -14 c 0
 541 -22.6666666667 540 -32 538 -42 c 0
 530.666666667 -75.3333333333 515.333333333 -102.333333333 492 -123 c 0
 464.666666667 -147 430.333333333 -159 389 -159 c 0
 375.666666667 -159 362.833333333 -157.5 350.5 -154.5 c 128
 338.166666667 -151.5 326.333333333 -146.333333333 315 -139 c 1
 338 -97 l 1
 345.333333333 -99.6666666667 354 -101.833333333 364 -103.5 c 128
 374 -105.166666667 383 -106 391 -106 c 0
 407 -106 420 -101 430 -91 c 128
 440 -81 446.333333333 -69.1666666667 449 -55.5 c 128
 451.666666667 -41.8333333333 453 -31.6666666667 453 -25 c 0
 453 -3.66666666667 438 7 408 7 c 0
 394 7 376 -3.66666666667 354 -25 c 0
 339.333333333 -40.3333333333 328.666666667 -51.3333333333 322 -58 c 0
 286 -94.6666666667 260 -118.666666667 244 -130 c 0
 210 -154 175 -166 139 -166 c 0
 93 -166 59.3333333333 -157.666666667 38 -141 c 128
 16.6666666667 -124.333333333 6 -99.6666666667 6 -67 c 0
 6 -53 8 -37.3333333333 12 -20 c 0
 19.3333333333 16 33.6666666667 44 55 64 c 0
 71.6666666667 80 94.6666666667 93 124 103 c 0
 163.333333333 117 236 128 342 136 c 0
 386.666666667 139.333333333 421.666666667 146.666666667 447 158 c 0
 463 164.666666667 478.166666667 180.5 492.5 205.5 c 128
 506.833333333 230.5 518 261 526 297 c 0
 528.666666667 307.666666667 530 319.666666667 530 333 c 0
 530 353 525 369 515 381 c 128
 505 393 489.666666667 399 469 399 c 0
 452.333333333 399 437.666666667 390.666666667 425 374 c 0
 415 361.333333333 408.666666667 348.333333333 406 335 c 2
 379 205 l 1
 293 205 l 1
 319 330 l 2
 319.666666667 332.666666667 320 336.666666667 320 342 c 0
 320 356.666666667 315.333333333 369 306 379 c 0
 293.333333333 392.333333333 274.333333333 399 249 399 c 0
 229 399 209 395 189 387 c 128
 169 379 152 368.333333333 138 355 c 1
 155.333333333 364.333333333 173.333333333 369 192 369 c 0
 216.666666667 369 236.166666667 360.833333333 250.5 344.5 c 128
 264.833333333 328.166666667 272 307.666666667 272 283 c 0
 272 275 271 266.333333333 269 257 c 0
 261.666666667 223 246 196.333333333 222 177 c 128
 198 157.666666667 169.333333333 148 136 148 c 0
 107.333333333 148 86.5 156.333333333 73.5 173 c 128
 60.5 189.666666667 54 212.333333333 54 241 c 0
 54 249 54.5 257.833333333 55.5 267.5 c 128
 56.5 277.166666667 58.3333333333 288 61 300 c 0
 69.6666666667 341.333333333 92.3333333333 376.333333333 129 405 c 0
 169 436.333333333 217.333333333 452 274 452 c 0
 307.333333333 452 333 448 351 440 c 128
 369 432 381.333333333 421 388 407 c 1
 396 416.333333333 405.333333333 424.5 416 431.5 c 128
 426.666666667 438.5 439.666666667 443.666666667 455 447 c 1
 447 459.666666667 440.333333333 473 435 487 c 128
 429.666666667 501 427 515.666666667 427 531 c 0
 427 538.333333333 428 546.666666667 430 556 c 0
 444 620.666666667 475.333333333 669.333333333 524 702 c 0
 564 728.666666667 608.333333333 742 657 742 c 0
 702.333333333 742 738.666666667 735 766 721 c 0
 802.666666667 702.333333333 821 673 821 633 c 0
 821 623 820 612.333333333 818 601 c 0
738 589 m 0
 739.333333333 595.666666667 740 600.666666667 740 604 c 0
 740 616.666666667 736 627.333333333 728 636 c 128
 720 644.666666667 709 649 695 649 c 1
 661 642.333333333 640 622 632 588 c 0
 631.333333333 585.333333333 631 581.666666667 631 577 c 0
 631 565 634.666666667 555 642 547 c 128
 649.333333333 539 659.666666667 535 673 535 c 0
 688.333333333 535 702.166666667 540.166666667 714.5 550.5 c 128
 726.833333333 560.833333333 734.666666667 573.666666667 738 589 c 0
191 273 m 0
 191 282.333333333 187.833333333 290 181.5 296 c 128
 175.166666667 302 167.333333333 305 158 305 c 0
 140 305 123.333333333 296.333333333 108 279 c 1
 106 269.666666667 105 261.333333333 105 254 c 0
 105 240.666666667 108 229.833333333 114 221.5 c 128
 120 213.166666667 128.666666667 209 140 209 c 0
 155.333333333 209 167.666666667 215.833333333 177 229.5 c 128
 186.333333333 243.166666667 191 257.666666667 191 273 c 0
EndSplineSet
EndChar

StartChar: u0B9C_u0BCD
Encoding: 80 -1 80
Width: 644
Flags: HW
AnchorPoint: "N" 408.5 -159.73 basechar 0
LayerCount: 2
Fore
SplineSet
475 586 m 0
 471 568 461.166666667 552.5 445.5 539.5 c 128
 429.833333333 526.5 413 520 395 520 c 0
 379 520 366 525 356 535 c 128
 346 545 341 557.666666667 341 573 c 0
 341 579 341.333333333 583.333333333 342 586 c 0
 345.333333333 604 355 619.5 371 632.5 c 128
 387 645.5 404.333333333 652 423 652 c 0
 439 652 451.833333333 646.833333333 461.5 636.5 c 128
 471.166666667 626.166666667 476 613.333333333 476 598 c 0
 476 592.666666667 475.666666667 588.666666667 475 586 c 0
609 289 m 0
 602.333333333 255.666666667 589.666666667 223.666666667 571 193 c 0
 548.333333333 155 522.333333333 129 493 115 c 0
 455.666666667 97.6666666667 399.333333333 87 324 83 c 128
 248.666666667 79 197.333333333 72 170 62 c 0
 156 58 143 50.3333333333 131 39 c 0
 113.666666667 23 103 5 99 -15 c 128
 95 -35 93 -50.3333333333 93 -61 c 0
 93 -77 96.6666666667 -89.3333333333 104 -98 c 128
 111.333333333 -106.666666667 123.333333333 -111 140 -111 c 0
 164 -111 186.333333333 -105 207 -93 c 0
 219 -85.6666666667 245.833333333 -61.6666666667 287.5 -21 c 128
 329.166666667 19.6666666667 354.333333333 42.3333333333 363 47 c 0
 384.333333333 57.6666666667 411 63 443 63 c 0
 508.333333333 63 541 37.3333333333 541 -14 c 0
 541 -22.6666666667 540 -32 538 -42 c 0
 530.666666667 -75.3333333333 515.333333333 -102.333333333 492 -123 c 0
 464.666666667 -147 430.333333333 -159 389 -159 c 0
 375.666666667 -159 362.833333333 -157.5 350.5 -154.5 c 128
 338.166666667 -151.5 326.333333333 -146.333333333 315 -139 c 1
 338 -97 l 1
 345.333333333 -99.6666666667 354 -101.833333333 364 -103.5 c 128
 374 -105.166666667 383 -106 391 -106 c 0
 407 -106 420 -101 430 -91 c 128
 440 -81 446.333333333 -69.1666666667 449 -55.5 c 128
 451.666666667 -41.8333333333 453 -31.6666666667 453 -25 c 0
 453 -3.66666666667 438 7 408 7 c 0
 394 7 376 -3.66666666667 354 -25 c 0
 339.333333333 -40.3333333333 328.666666667 -51.3333333333 322 -58 c 0
 286 -94.6666666667 260 -118.666666667 244 -130 c 0
 210 -154 175 -166 139 -166 c 0
 93 -166 59.3333333333 -157.666666667 38 -141 c 128
 16.6666666667 -124.333333333 6 -99.6666666667 6 -67 c 0
 6 -53 8 -37.3333333333 12 -20 c 0
 19.3333333333 16 33.6666666667 44 55 64 c 0
 71.6666666667 80 94.6666666667 93 124 103 c 0
 163.333333333 117 236 128 342 136 c 0
 386.666666667 139.333333333 421.666666667 146.666666667 447 158 c 0
 463 164.666666667 478.166666667 180.5 492.5 205.5 c 128
 506.833333333 230.5 518 261 526 297 c 0
 528.666666667 307.666666667 530 319.666666667 530 333 c 0
 530 353 525 369 515 381 c 128
 505 393 489.666666667 399 469 399 c 0
 452.333333333 399 437.666666667 390.666666667 425 374 c 0
 415 361.333333333 408.666666667 348.333333333 406 335 c 2
 379 205 l 1
 293 205 l 1
 319 330 l 2
 319.666666667 332.666666667 320 336.666666667 320 342 c 0
 320 356.666666667 315.333333333 369 306 379 c 0
 293.333333333 392.333333333 274.333333333 399 249 399 c 0
 229 399 209 395 189 387 c 128
 169 379 152 368.333333333 138 355 c 1
 155.333333333 364.333333333 173.333333333 369 192 369 c 0
 216.666666667 369 236.166666667 360.833333333 250.5 344.5 c 128
 264.833333333 328.166666667 272 307.666666667 272 283 c 0
 272 275 271 266.333333333 269 257 c 0
 261.666666667 223 246 196.333333333 222 177 c 128
 198 157.666666667 169.333333333 148 136 148 c 0
 107.333333333 148 86.5 156.333333333 73.5 173 c 128
 60.5 189.666666667 54 212.333333333 54 241 c 0
 54 249 54.5 257.833333333 55.5 267.5 c 128
 56.5 277.166666667 58.3333333333 288 61 300 c 0
 69.6666666667 341.333333333 92.3333333333 376.333333333 129 405 c 0
 169 436.333333333 217.333333333 452 274 452 c 0
 307.333333333 452 333 448 351 440 c 128
 369 432 381.333333333 421 388 407 c 1
 399.333333333 420.333333333 411.666666667 430.666666667 425 438 c 0
 443 447.333333333 464.333333333 452 489 452 c 0
 573 452 615 414.666666667 615 340 c 0
 615 324 613 307 609 289 c 0
191 273 m 0
 191 282.333333333 187.833333333 290 181.5 296 c 128
 175.166666667 302 167.333333333 305 158 305 c 0
 140 305 123.333333333 296.333333333 108 279 c 1
 106 269.666666667 105 261.333333333 105 254 c 0
 105 240.666666667 108 229.833333333 114 221.5 c 128
 120 213.166666667 128.666666667 209 140 209 c 0
 155.333333333 209 167.666666667 215.833333333 177 229.5 c 128
 186.333333333 243.166666667 191 257.666666667 191 273 c 0
EndSplineSet
EndChar

StartChar: u0B9E
Encoding: 81 2974 81
Width: 872
Flags: HW
AnchorPoint: "V" 583 453 basechar 0
AnchorPoint: "N" 583 -197.854 basechar 0
LayerCount: 2
Fore
SplineSet
799 106 m 0
 779.666666667 16.6666666667 735 -54.3333333333 665 -107 c 0
 584.333333333 -167.666666667 476.666666667 -198 342 -198 c 0
 238 -198 158.166666667 -175.166666667 102.5 -129.5 c 128
 46.8333333333 -83.8333333333 19 -20 19 62 c 0
 19 92 22.3333333333 121.666666667 29 151 c 0
 42.3333333333 215 64.1666666667 273.833333333 94.5 327.5 c 128
 124.833333333 381.166666667 160.666666667 423.666666667 202 455 c 1
 231 425 l 1
 192.333333333 393 160 352 134 302 c 0
 110.666666667 256.666666667 93 205.666666667 81 149 c 0
 75.6666666667 123.666666667 73 101 73 81 c 0
 73 11.6666666667 97.3333333333 -43.3333333333 146 -84 c 128
 194.666666667 -124.666666667 261.333333333 -145 346 -145 c 0
 450 -145 535 -118.666666667 601 -66 c 0
 657.666666667 -20.6666666667 693.333333333 36.3333333333 708 105 c 0
 709.333333333 113 710.333333333 118.833333333 711 122.5 c 128
 711.666666667 126.166666667 712 131.666666667 712 139 c 0
 712 159.666666667 708 176.333333333 700 189 c 0
 690 204.333333333 674.333333333 212 653 212 c 0
 639 212 628 210.5 620 207.5 c 128
 612 204.5 604.666666667 198.333333333 598 189 c 1
 557 -3 l 1
 465 -3 l 1
 551 399 l 1
 424 399 l 2
 374.666666667 399 332 386 296 360 c 0
 266 338.666666667 243.666666667 311.333333333 229 278 c 1
 241.666666667 286 255 292 269 296 c 128
 283 300 298.333333333 302 315 302 c 0
 349 302 375.833333333 292.166666667 395.5 272.5 c 128
 415.166666667 252.833333333 425 226 425 192 c 0
 425 181 425 181 425 170 c 0
 423 162.666666667 421.666666667 157.666666667 421 155 c 0
 410.333333333 106.333333333 392.166666667 67.8333333333 366.5 39.5 c 128
 340.833333333 11.1666666667 308 -3 268 -3 c 0
 188 -3 148 42.3333333333 148 133 c 0
 148 155.666666667 151 180.666666667 157 208 c 0
 173 283.333333333 205.166666667 342.833333333 253.5 386.5 c 128
 301.833333333 430.166666667 359.333333333 452 426 452 c 2
 752 452 l 1
 741 399 l 1
 643 399 l 1
 612 256 l 1
 633.333333333 270 656.666666667 277 682 277 c 0
 722.666666667 277 753.666666667 263.666666667 775 237 c 0
 793.666666667 213.666666667 803 183.666666667 803 147 c 0
 803 131 801.666666667 117.333333333 799 106 c 0
329 154 m 0
 330.333333333 162 331 167.666666667 331 171 c 0
 331 188.333333333 326.333333333 203.666666667 317 217 c 128
 307.666666667 230.333333333 295.333333333 237 280 237 c 0
 263.333333333 237 248.333333333 232.333333333 235 223 c 128
 221.666666667 213.666666667 212 202 206 188 c 0
 204 176.666666667 202.666666667 168.833333333 202 164.5 c 128
 201.333333333 160.166666667 201 153.333333333 201 144 c 0
 201 122.666666667 205.5 105.5 214.5 92.5 c 128
 223.5 79.5 237 73 255 73 c 0
 273.666666667 73 290 81.6666666667 304 99 c 0
 315.333333333 113 323.666666667 131.333333333 329 154 c 0
EndSplineSet
EndChar

StartChar: u0B9E_u0BBF
Encoding: 82 -1 82
Width: 965
Flags: HW
AnchorPoint: "V" 583 453 basechar 0
AnchorPoint: "N" 583 -197.854 basechar 0
LayerCount: 2
Fore
SplineSet
868 -3 m 1
 821 -3 l 1
 930 510 l 2
 933.333333333 524.666666667 935 537.666666667 935 549 c 0
 935 575 927 595 911 609 c 0
 891 626.333333333 858.333333333 635 813 635 c 0
 764.333333333 635 725.666666667 623.833333333 697 601.5 c 128
 668.333333333 579.166666667 649.333333333 547 640 505 c 0
 638 495.666666667 637 488 637 482 c 0
 637 472.666666667 639.666666667 462.666666667 645 452 c 1
 752 452 l 1
 741 399 l 1
 643 399 l 1
 616 272 l 1
 639.333333333 286 662.666666667 293 686 293 c 0
 690 293 696 292.333333333 704 291 c 0
 729.333333333 287 749.666666667 273.666666667 765 251 c 128
 780.333333333 228.333333333 788 197 788 157 c 0
 788 134.333333333 785 109 779 81 c 0
 761.666666667 -0.333333333333 717 -65.6666666667 645 -115 c 0
 564.333333333 -170.333333333 460 -198 332 -198 c 0
 240.666666667 -198 165.833333333 -173.666666667 107.5 -125 c 128
 49.1666666667 -76.3333333333 20 -10 20 74 c 0
 20 98 23 123.666666667 29 151 c 0
 42.3333333333 215 64.1666666667 273.833333333 94.5 327.5 c 128
 124.833333333 381.166666667 160.666666667 423.666666667 202 455 c 1
 231 425 l 1
 192.333333333 393 160 352 134 302 c 0
 110.666666667 256.666666667 93 205.666666667 81 149 c 0
 79 139 77.3333333333 128.833333333 76 118.5 c 128
 74.6666666667 108.166666667 74 98.3333333333 74 89 c 0
 74 18.3333333333 99.8333333333 -38.3333333333 151.5 -81 c 128
 203.166666667 -123.666666667 268 -145 346 -145 c 0
 447.333333333 -145 529.666666667 -120 593 -70 c 0
 647.666666667 -27.3333333333 681.666666667 26 695 90 c 0
 699 110 701 127.666666667 701 143 c 0
 701 181 690 207 668 221 c 0
 660.666666667 225 653.333333333 227 646 227 c 0
 630.666666667 227 616 220.666666667 602 208 c 1
 557 -3 l 1
 465 -3 l 1
 551 399 l 1
 424 399 l 2
 374.666666667 399 332 386 296 360 c 0
 266 338.666666667 243.666666667 311.333333333 229 278 c 1
 241.666666667 286 255 292 269 296 c 128
 283 300 298.333333333 302 315 302 c 0
 349 302 375.833333333 292.166666667 395.5 272.5 c 128
 415.166666667 252.833333333 425 226 425 192 c 0
 425 181 425 181 425 170 c 0
 423 162.666666667 421.666666667 157.666666667 421 155 c 0
 410.333333333 106.333333333 392.166666667 67.8333333333 366.5 39.5 c 128
 340.833333333 11.1666666667 308 -3 268 -3 c 0
 188 -3 148 42.3333333333 148 133 c 0
 148 155.666666667 151 180.666666667 157 208 c 0
 173 283.333333333 205.166666667 342.833333333 253.5 386.5 c 128
 301.833333333 430.166666667 359.333333333 452 426 452 c 2
 591 452 l 1
 587.666666667 466.666666667 586 481.666666667 586 497 c 0
 586 510.333333333 588 526 592 544 c 0
 604 600.666666667 630 644.166666667 670 674.5 c 128
 710 704.833333333 764 720 832 720 c 0
 892 720 934.333333333 707.333333333 959 682 c 0
 979 662 989 632.333333333 989 593 c 0
 989 583.666666667 988.333333333 573.666666667 987 563 c 128
 985.666666667 552.333333333 982.666666667 535 978 511 c 2
 868 -3 l 1
329 154 m 0
 330.333333333 162 331 167.666666667 331 171 c 0
 331 188.333333333 326.333333333 203.666666667 317 217 c 128
 307.666666667 230.333333333 295.333333333 237 280 237 c 0
 263.333333333 237 248.333333333 232.333333333 235 223 c 128
 221.666666667 213.666666667 212 202 206 188 c 0
 204 176.666666667 202.666666667 168.833333333 202 164.5 c 128
 201.333333333 160.166666667 201 153.333333333 201 144 c 0
 201 122.666666667 205.5 105.5 214.5 92.5 c 128
 223.5 79.5 237 73 255 73 c 0
 273.666666667 73 290 81.6666666667 304 99 c 0
 315.333333333 113 323.666666667 131.333333333 329 154 c 0
EndSplineSet
EndChar

StartChar: u0B9E_u0BC0
Encoding: 83 -1 83
Width: 872
Flags: HW
AnchorPoint: "V" 583 666.175 basechar 0
AnchorPoint: "N" 583 -197.854 basechar 0
LayerCount: 2
Fore
SplineSet
917 601 m 0
 909.666666667 569 892.666666667 541.833333333 866 519.5 c 128
 839.333333333 497.166666667 807.666666667 486 771 486 c 0
 741.666666667 486 719.333333333 493.666666667 704 509 c 128
 688.666666667 524.333333333 681 543.333333333 681 566 c 0
 681 576 681.666666667 583.666666667 683 589 c 0
 689.666666667 619.666666667 704.333333333 645.333333333 727 666 c 1
 715 667 l 2
 683 667 654.833333333 654.5 630.5 629.5 c 128
 606.166666667 604.5 590.666666667 576 584 544 c 0
 582 534.666666667 581 526.333333333 581 519 c 0
 581 505 582.833333333 492.833333333 586.5 482.5 c 128
 590.166666667 472.166666667 596.333333333 462 605 452 c 1
 752 452 l 1
 741 399 l 1
 643 399 l 1
 612 256 l 1
 633.333333333 270 656.666666667 277 682 277 c 0
 722.666666667 277 753.666666667 263.666666667 775 237 c 0
 793.666666667 213.666666667 803 183.666666667 803 147 c 0
 803 131 801.666666667 117.333333333 799 106 c 0
 779.666666667 16.6666666667 735 -54.3333333333 665 -107 c 0
 584.333333333 -167.666666667 476.666666667 -198 342 -198 c 0
 238 -198 158.166666667 -175.166666667 102.5 -129.5 c 128
 46.8333333333 -83.8333333333 19 -20 19 62 c 0
 19 92 22.3333333333 121.666666667 29 151 c 0
 42.3333333333 215 64.1666666667 273.833333333 94.5 327.5 c 128
 124.833333333 381.166666667 160.666666667 423.666666667 202 455 c 1
 231 425 l 1
 192.333333333 393 160 352 134 302 c 0
 110.666666667 256.666666667 93 205.666666667 81 149 c 0
 75.6666666667 123.666666667 73 101 73 81 c 0
 73 11.6666666667 97.3333333333 -43.3333333333 146 -84 c 128
 194.666666667 -124.666666667 261.333333333 -145 346 -145 c 0
 450 -145 535 -118.666666667 601 -66 c 0
 657.666666667 -20.6666666667 693.333333333 36.3333333333 708 105 c 0
 709.333333333 113 710.333333333 118.833333333 711 122.5 c 128
 711.666666667 126.166666667 712 131.666666667 712 139 c 0
 712 159.666666667 708 176.333333333 700 189 c 0
 690 204.333333333 674.333333333 212 653 212 c 0
 639 212 628 210.5 620 207.5 c 128
 612 204.5 604.666666667 198.333333333 598 189 c 1
 557 -3 l 1
 465 -3 l 1
 551 399 l 1
 424 399 l 2
 374.666666667 399 332 386 296 360 c 0
 266 338.666666667 243.666666667 311.333333333 229 278 c 1
 241.666666667 286 255 292 269 296 c 128
 283 300 298.333333333 302 315 302 c 0
 349 302 375.833333333 292.166666667 395.5 272.5 c 128
 415.166666667 252.833333333 425 226 425 192 c 0
 425 181 425 181 425 170 c 0
 423 162.666666667 421.666666667 157.666666667 421 155 c 0
 410.333333333 106.333333333 392.166666667 67.8333333333 366.5 39.5 c 128
 340.833333333 11.1666666667 308 -3 268 -3 c 0
 188 -3 148 42.3333333333 148 133 c 0
 148 155.666666667 151 180.666666667 157 208 c 0
 173 283.333333333 205.166666667 342.833333333 253.5 386.5 c 128
 301.833333333 430.166666667 359.333333333 452 426 452 c 2
 551 452 l 1
 544.333333333 461.333333333 538.666666667 472.833333333 534 486.5 c 128
 529.333333333 500.166666667 527 514.333333333 527 529 c 0
 527 537.666666667 528 546.666666667 530 556 c 0
 544 620.666666667 575.333333333 669.333333333 624 702 c 0
 664 728.666666667 708 742 756 742 c 0
 801.333333333 742 837.666666667 735 865 721 c 0
 901.666666667 702.333333333 920 673 920 633 c 0
 920 623 919 612.333333333 917 601 c 0
839 589 m 0
 839.666666667 591.666666667 840 594.333333333 840 597 c 128
 840 601 840 601 840 603 c 0
 840 616.333333333 836 627.333333333 828 636 c 128
 820 644.666666667 809 649 795 649 c 1
 761.666666667 642.333333333 741 622 733 588 c 0
 732.333333333 585.333333333 732 581.333333333 732 576 c 0
 732 564 735.5 554.166666667 742.5 546.5 c 128
 749.5 538.833333333 759.333333333 535 772 535 c 0
 788 535 802.333333333 540.166666667 815 550.5 c 128
 827.666666667 560.833333333 835.666666667 573.666666667 839 589 c 0
329 154 m 0
 330.333333333 162 331 167.666666667 331 171 c 0
 331 188.333333333 326.333333333 203.666666667 317 217 c 128
 307.666666667 230.333333333 295.333333333 237 280 237 c 0
 263.333333333 237 248.333333333 232.333333333 235 223 c 128
 221.666666667 213.666666667 212 202 206 188 c 0
 204 176.666666667 202.666666667 168.833333333 202 164.5 c 128
 201.333333333 160.166666667 201 153.333333333 201 144 c 0
 201 122.666666667 205.5 105.5 214.5 92.5 c 128
 223.5 79.5 237 73 255 73 c 0
 273.666666667 73 290 81.6666666667 304 99 c 0
 315.333333333 113 323.666666667 131.333333333 329 154 c 0
EndSplineSet
EndChar

StartChar: u0B9E_u0BC1
Encoding: 84 -1 84
Width: 1057
Flags: HW
AnchorPoint: "V" 583 453 basechar 0
AnchorPoint: "N" 583 -197.854 basechar 0
LayerCount: 2
Fore
SplineSet
944 -76 m 1
 712 -76 l 1
 669.333333333 -127.333333333 617.333333333 -167.666666667 556 -197 c 0
 488 -229.666666667 413.333333333 -246 332 -246 c 0
 220.666666667 -246 133.333333333 -224.666666667 70 -182 c 0
 25.3333333333 -152 -2.66666666667 -117 -14 -77 c 0
 -15.3333333333 -73 -16 -69.3333333333 -16 -66 c 0
 -16 -55.3333333333 -11.8333333333 -45.5 -3.5 -36.5 c 128
 4.83333333333 -27.5 17 -23 33 -23 c 2
 650 -23 l 1
 678.666666667 17 698 59.6666666667 708 105 c 0
 709.333333333 113 710.333333333 118.833333333 711 122.5 c 128
 711.666666667 126.166666667 712 131.666666667 712 139 c 0
 712 159.666666667 708 176.333333333 700 189 c 0
 690 204.333333333 674.333333333 212 653 212 c 0
 639 212 628 210.5 620 207.5 c 128
 612 204.5 604.666666667 198.333333333 598 189 c 1
 557 -3 l 1
 465 -3 l 1
 551 399 l 1
 424 399 l 2
 374.666666667 399 332 386 296 360 c 0
 266 338.666666667 243.666666667 311.333333333 229 278 c 1
 241.666666667 286 255 292 269 296 c 128
 283 300 298.333333333 302 315 302 c 0
 349 302 375.833333333 292.166666667 395.5 272.5 c 128
 415.166666667 252.833333333 425 226 425 192 c 0
 425 181 425 181 425 170 c 0
 423 162.666666667 421.666666667 157.666666667 421 155 c 0
 410.333333333 106.333333333 392.166666667 67.8333333333 366.5 39.5 c 128
 340.833333333 11.1666666667 308 -3 268 -3 c 0
 188 -3 148 42.3333333333 148 133 c 0
 148 155.666666667 151 180.666666667 157 208 c 0
 173 283.333333333 205.166666667 342.833333333 253.5 386.5 c 128
 301.833333333 430.166666667 359.333333333 452 426 452 c 2
 752 452 l 1
 741 399 l 1
 643 399 l 1
 612 256 l 1
 633.333333333 270 656.666666667 277 682 277 c 0
 722.666666667 277 753.666666667 263.666666667 775 237 c 0
 793.666666667 213.666666667 803 183.666666667 803 147 c 0
 803 131 801.666666667 117.333333333 799 106 c 0
 788.333333333 56.6666666667 771.333333333 13.6666666667 748 -23 c 1
 865 -23 l 1
 966 452 l 1
 1056 452 l 1
 944 -76 l 1
329 154 m 0
 330.333333333 162 331 167.666666667 331 171 c 0
 331 188.333333333 326.333333333 203.666666667 317 217 c 128
 307.666666667 230.333333333 295.333333333 237 280 237 c 0
 263.333333333 237 248.333333333 232.333333333 235 223 c 128
 221.666666667 213.666666667 212 202 206 188 c 0
 204 176.666666667 202.666666667 168.833333333 202 164.5 c 128
 201.333333333 160.166666667 201 153.333333333 201 144 c 0
 201 122.666666667 205.5 105.5 214.5 92.5 c 128
 223.5 79.5 237 73 255 73 c 0
 273.666666667 73 290 81.6666666667 304 99 c 0
 315.333333333 113 323.666666667 131.333333333 329 154 c 0
609 -76 m 1
 57 -76 l 2
 51.6666666667 -76 48.1666666667 -76.6666666667 46.5 -78 c 128
 44.8333333333 -79.3333333333 44.3333333333 -81 45 -83 c 0
 57 -107 83 -129.333333333 123 -150 c 0
 180.333333333 -179.333333333 251.333333333 -194 336 -194 c 0
 390.666666667 -194 440.833333333 -183.5 486.5 -162.5 c 128
 532.166666667 -141.5 573 -112.666666667 609 -76 c 1
EndSplineSet
EndChar

StartChar: u0B9E_u0BC2
Encoding: 85 -1 85
Width: 1300
Flags: HW
AnchorPoint: "V" 583 453 basechar 0
AnchorPoint: "N" 583 -197.854 basechar 0
LayerCount: 2
Fore
SplineSet
1289 399 m 1
 1191 399 l 1
 1090 -76 l 1
 1000 -76 l 1
 1101 399 l 1
 1006 399 l 1
 905 -76 l 1
 711 -76 l 1
 669 -127.333333333 617.333333333 -167.666666667 556 -197 c 0
 488 -229.666666667 413.333333333 -246 332 -246 c 0
 220.666666667 -246 133.333333333 -224.666666667 70 -182 c 0
 25.3333333333 -152 -2.66666666667 -117 -14 -77 c 0
 -15.3333333333 -73 -16 -69.3333333333 -16 -66 c 0
 -16 -55.3333333333 -11.8333333333 -45.5 -3.5 -36.5 c 128
 4.83333333333 -27.5 17 -23 33 -23 c 2
 650 -23 l 1
 678.666666667 17 698 59.6666666667 708 105 c 0
 709.333333333 113 710.333333333 118.833333333 711 122.5 c 128
 711.666666667 126.166666667 712 131.666666667 712 139 c 0
 712 159.666666667 708 176.333333333 700 189 c 0
 690 204.333333333 674.333333333 212 653 212 c 0
 639 212 628 210.5 620 207.5 c 128
 612 204.5 604.666666667 198.333333333 598 189 c 1
 557 -3 l 1
 465 -3 l 1
 551 399 l 1
 424 399 l 2
 374.666666667 399 332 386 296 360 c 0
 266 338.666666667 243.666666667 311.333333333 229 278 c 1
 241.666666667 286 255 292 269 296 c 128
 283 300 298.333333333 302 315 302 c 0
 349 302 375.833333333 292.166666667 395.5 272.5 c 128
 415.166666667 252.833333333 425 226 425 192 c 0
 425 181 425 181 425 170 c 0
 423 162.666666667 421.666666667 157.666666667 421 155 c 0
 410.333333333 106.333333333 392.166666667 67.8333333333 366.5 39.5 c 128
 340.833333333 11.1666666667 308 -3 268 -3 c 0
 188 -3 148 42.3333333333 148 133 c 0
 148 155.666666667 151 180.666666667 157 208 c 0
 173 283.333333333 205.166666667 342.833333333 253.5 386.5 c 128
 301.833333333 430.166666667 359.333333333 452 426 452 c 2
 752 452 l 1
 741 399 l 1
 643 399 l 1
 612 256 l 1
 633.333333333 270 656.666666667 277 682 277 c 0
 722.666666667 277 753.666666667 263.666666667 775 237 c 0
 793.666666667 213.666666667 803 183.666666667 803 147 c 0
 803 131 801.666666667 117.333333333 799 106 c 0
 793.666666667 81.3333333333 787.166666667 58.6666666667 779.5 38 c 128
 771.833333333 17.3333333333 761.666666667 -3 749 -23 c 1
 865 -23 l 1
 966 452 l 1
 1300 452 l 1
 1289 399 l 1
329 154 m 0
 330.333333333 162 331 167.666666667 331 171 c 0
 331 188.333333333 326.333333333 203.666666667 317 217 c 128
 307.666666667 230.333333333 295.333333333 237 280 237 c 0
 263.333333333 237 248.333333333 232.333333333 235 223 c 128
 221.666666667 213.666666667 212 202 206 188 c 0
 204 176.666666667 202.666666667 168.833333333 202 164.5 c 128
 201.333333333 160.166666667 201 153.333333333 201 144 c 0
 201 122.666666667 205.5 105.5 214.5 92.5 c 128
 223.5 79.5 237 73 255 73 c 0
 273.666666667 73 290 81.6666666667 304 99 c 0
 315.333333333 113 323.666666667 131.333333333 329 154 c 0
609 -76 m 1
 52 -76 l 2
 47.3333333333 -76 44 -76.6666666667 42 -78 c 128
 40 -79.3333333333 39.3333333333 -81 40 -83 c 0
 52.6666666667 -107 79.6666666667 -129.333333333 121 -150 c 0
 179.666666667 -179.333333333 251.333333333 -194 336 -194 c 0
 392 -194 443.666666667 -183 491 -161 c 0
 533 -141.666666667 572.333333333 -113.333333333 609 -76 c 1
EndSplineSet
EndChar

StartChar: u0B9E_u0BCD
Encoding: 86 -1 86
Width: 872
Flags: HW
AnchorPoint: "N" 583 -197.854 basechar 0
LayerCount: 2
Fore
SplineSet
650 586 m 0
 646 568.666666667 636 553.333333333 620 540 c 128
 604 526.666666667 587 520 569 520 c 0
 553 520 540 525 530 535 c 128
 520 545 515 557.666666667 515 573 c 0
 515 575 516.166666667 582 518.5 594 c 128
 520.833333333 606 530 618.666666667 546 632 c 128
 562 645.333333333 579 652 597 652 c 0
 613 652 626 646.666666667 636 636 c 128
 646 625.333333333 651 612.333333333 651 597 c 0
 651 592.333333333 650.666666667 588.666666667 650 586 c 0
799 106 m 0
 779.666666667 16.6666666667 735 -54.3333333333 665 -107 c 0
 584.333333333 -167.666666667 476.666666667 -198 342 -198 c 0
 238 -198 158.166666667 -175.166666667 102.5 -129.5 c 128
 46.8333333333 -83.8333333333 19 -20 19 62 c 0
 19 92 22.3333333333 121.666666667 29 151 c 0
 42.3333333333 215 64.1666666667 273.833333333 94.5 327.5 c 128
 124.833333333 381.166666667 160.666666667 423.666666667 202 455 c 1
 231 425 l 1
 192.333333333 393 160 352 134 302 c 0
 110.666666667 256.666666667 93 205.666666667 81 149 c 0
 75.6666666667 123.666666667 73 101 73 81 c 0
 73 11.6666666667 97.3333333333 -43.3333333333 146 -84 c 128
 194.666666667 -124.666666667 261.333333333 -145 346 -145 c 0
 450 -145 535 -118.666666667 601 -66 c 0
 657.666666667 -20.6666666667 693.333333333 36.3333333333 708 105 c 0
 709.333333333 113 710.333333333 118.833333333 711 122.5 c 128
 711.666666667 126.166666667 712 131.666666667 712 139 c 0
 712 159.666666667 708 176.333333333 700 189 c 0
 690 204.333333333 674.333333333 212 653 212 c 0
 639 212 628 210.5 620 207.5 c 128
 612 204.5 604.666666667 198.333333333 598 189 c 1
 557 -3 l 1
 465 -3 l 1
 551 399 l 1
 424 399 l 2
 374.666666667 399 332 386 296 360 c 0
 266 338.666666667 243.666666667 311.333333333 229 278 c 1
 241.666666667 286 255 292 269 296 c 128
 283 300 298.333333333 302 315 302 c 0
 349 302 375.833333333 292.166666667 395.5 272.5 c 128
 415.166666667 252.833333333 425 226 425 192 c 0
 425 181 425 181 425 170 c 0
 423 162.666666667 421.666666667 157.666666667 421 155 c 0
 410.333333333 106.333333333 392.166666667 67.8333333333 366.5 39.5 c 128
 340.833333333 11.1666666667 308 -3 268 -3 c 0
 188 -3 148 42.3333333333 148 133 c 0
 148 155.666666667 151 180.666666667 157 208 c 0
 173 283.333333333 205.166666667 342.833333333 253.5 386.5 c 128
 301.833333333 430.166666667 359.333333333 452 426 452 c 2
 752 452 l 1
 741 399 l 1
 643 399 l 1
 612 256 l 1
 633.333333333 270 656.666666667 277 682 277 c 0
 722.666666667 277 753.666666667 263.666666667 775 237 c 0
 793.666666667 213.666666667 803 183.666666667 803 147 c 0
 803 131 801.666666667 117.333333333 799 106 c 0
329 154 m 0
 330.333333333 162 331 167.666666667 331 171 c 0
 331 188.333333333 326.333333333 203.666666667 317 217 c 128
 307.666666667 230.333333333 295.333333333 237 280 237 c 0
 263.333333333 237 248.333333333 232.333333333 235 223 c 128
 221.666666667 213.666666667 212 202 206 188 c 0
 204 176.666666667 202.666666667 168.833333333 202 164.5 c 128
 201.333333333 160.166666667 201 153.333333333 201 144 c 0
 201 122.666666667 205.5 105.5 214.5 92.5 c 128
 223.5 79.5 237 73 255 73 c 0
 273.666666667 73 290 81.6666666667 304 99 c 0
 315.333333333 113 323.666666667 131.333333333 329 154 c 0
EndSplineSet
EndChar

StartChar: u0B9F
Encoding: 87 2975 87
Width: 713
Flags: HW
AnchorPoint: "V" 398.5 453 basechar 0
AnchorPoint: "N" 398.5 -3 basechar 0
LayerCount: 2
Fore
SplineSet
616 -3 m 1
 -4 -3 l 1
 93 452 l 1
 179 452 l 1
 93 49 l 1
 627 49 l 1
 616 -3 l 1
EndSplineSet
EndChar

StartChar: u0B9F_u0BBF
Encoding: 88 -1 88
Width: 636
Flags: HW
AnchorPoint: "V" 398.5 453 basechar 0
AnchorPoint: "N" 398.5 -3 basechar 0
LayerCount: 2
Fore
SplineSet
539 -3 m 1
 441 -3 l 1
 397 -212 l 1
 310 -212 l 1
 354 -3 l 1
 -4 -3 l 1
 93 452 l 1
 179 452 l 1
 92 44 l 1
 285 44 l 1
 275 56.6666666667 265.5 72 256.5 90 c 128
 247.5 108 240.333333333 128.166666667 235 150.5 c 128
 229.666666667 172.833333333 227 194.666666667 227 216 c 0
 227 250.666666667 232.333333333 283 243 313 c 0
 256.333333333 349.666666667 276.333333333 380 303 404 c 0
 318.333333333 418 337 429.5 359 438.5 c 128
 381 447.5 403.333333333 452 426 452 c 0
 456 452 478.5 443.833333333 493.5 427.5 c 128
 508.5 411.166666667 516 390 516 364 c 0
 516 354 515 344 513 334 c 2
 451 44 l 1
 549 44 l 1
 539 -3 l 1
366 50 m 1
 427 339 l 2
 427.666666667 341.666666667 428 345.333333333 428 350 c 0
 428 358.666666667 425.166666667 365.5 419.5 370.5 c 128
 413.833333333 375.5 407 378 399 378 c 0
 374.333333333 378 352.666666667 368 334 348 c 0
 318.666666667 333.333333333 306.333333333 313.5 297 288.5 c 128
 287.666666667 263.5 283 238 283 212 c 0
 283 192.666666667 285.333333333 176 290 162 c 0
 298 137.333333333 308.5 115 321.5 95 c 128
 334.5 75 349.333333333 60 366 50 c 1
EndSplineSet
EndChar

StartChar: u0B9F_u0BC0
Encoding: 89 -1 89
Width: 597
Flags: HW
AnchorPoint: "V" 398.5 453 basechar 0
AnchorPoint: "N" 398.5 -3 basechar 0
LayerCount: 2
Fore
SplineSet
544 199 m 0
 537.333333333 166.333333333 520.833333333 139.166666667 494.5 117.5 c 128
 468.166666667 95.8333333333 436.666666667 85 400 85 c 0
 370.666666667 85 348 92.3333333333 332 107 c 128
 316 121.666666667 308 140.666666667 308 164 c 0
 308 172 309 180 311 188 c 0
 316.333333333 217.333333333 331 243.333333333 355 266 c 1
 342 266 l 2
 310 266 281.333333333 253 256 227 c 0
 233.333333333 203.666666667 218.333333333 175.666666667 211 143 c 0
 209 133.666666667 208 125.333333333 208 118 c 0
 208 102 210.5 88 215.5 76 c 128
 220.5 64 228 53.3333333333 238 44 c 1
 509 44 l 1
 499 -3 l 1
 -4 -3 l 1
 93 452 l 1
 179 452 l 1
 92 44 l 1
 182 44 l 1
 173.333333333 56.6666666667 166.666666667 69.5 162 82.5 c 128
 157.333333333 95.5 155 110 155 126 c 0
 155 135.333333333 156 144.666666667 158 154 c 0
 172 218.666666667 203.333333333 267.666666667 252 301 c 0
 291.333333333 327.666666667 335.333333333 341 384 341 c 0
 428 341 464 334 492 320 c 0
 529.333333333 301.333333333 548 272 548 232 c 0
 548 224 548 224 548 217 c 0
 546 209 544.666666667 203 544 199 c 0
466 188 m 0
 467.333333333 194.666666667 468 199.666666667 468 203 c 0
 468 215.666666667 463.833333333 226.166666667 455.5 234.5 c 128
 447.166666667 242.833333333 436 247 422 247 c 0
 406 244.333333333 392.666666667 237.666666667 382 227 c 128
 371.333333333 216.333333333 364.333333333 203.333333333 361 188 c 0
 360.333333333 185.333333333 360 181 360 175 c 0
 360 147.666666667 373.333333333 134 400 134 c 0
 415.333333333 134 429.333333333 139.166666667 442 149.5 c 128
 454.666666667 159.833333333 462.666666667 172.666666667 466 188 c 0
EndSplineSet
EndChar

StartChar: u0B9F_u0BC1
Encoding: 90 -1 90
Width: 739
Flags: HW
AnchorPoint: "V" 398.5 649.713 basechar 0
AnchorPoint: "N" 398.5 -3 basechar 0
LayerCount: 2
Fore
SplineSet
617 -2 m 1
 569 -2 l 1
 593.666666667 50 614 109.666666667 630 177 c 128
 646 244.333333333 654 304.333333333 654 357 c 0
 654 363.666666667 653.833333333 371 653.5 379 c 128
 653.166666667 387 652 396.666666667 650 408 c 0
 639.333333333 462 616.166666667 500.666666667 580.5 524 c 128
 544.833333333 547.333333333 495.333333333 559 432 559 c 0
 348.666666667 559 277.166666667 528.166666667 217.5 466.5 c 128
 157.833333333 404.833333333 117.333333333 323 96 221 c 0
 84.6666666667 168.333333333 79 120.333333333 79 77 c 0
 79 15 91 -32.6666666667 115 -66 c 0
 141.666666667 -103.333333333 183.666666667 -122 241 -122 c 0
 297.666666667 -122 347 -97.6666666667 389 -49 c 0
 425.666666667 -6.33333333333 450.333333333 45 463 105 c 0
 465 114.333333333 466 124.333333333 466 135 c 0
 466 156.333333333 461.666666667 173.666666667 453 187 c 0
 442.333333333 203.666666667 426 212 404 212 c 0
 389.333333333 212 377.333333333 210.5 368 207.5 c 128
 358.666666667 204.5 351 198.333333333 345 189 c 1
 304 -3 l 1
 213 -3 l 1
 310 452 l 1
 401 452 l 1
 360 257 l 1
 370.666666667 263.666666667 382.166666667 268.666666667 394.5 272 c 128
 406.833333333 275.333333333 419.666666667 277 433 277 c 0
 475 277 507.333333333 263.333333333 530 236 c 0
 549.333333333 212.666666667 559 182.333333333 559 145 c 0
 559 140.333333333 558.833333333 135.333333333 558.5 130 c 128
 558.166666667 124.666666667 557 117.333333333 555 108 c 0
 535.666666667 16.6666666667 498.5 -53.1666666667 443.5 -101.5 c 128
 388.5 -149.833333333 320 -174 238 -174 c 0
 165.333333333 -174 111.333333333 -152 76 -108 c 0
 43.3333333333 -67.3333333333 27 -9.33333333333 27 66 c 0
 27 89.3333333333 28.6666666667 114.833333333 32 142.5 c 128
 35.3333333333 170.166666667 40 199.333333333 46 230 c 0
 73.3333333333 356.666666667 120.333333333 457.333333333 187 532 c 0
 259.666666667 613.333333333 349.333333333 654 456 654 c 0
 530.666666667 654 590.166666667 637 634.5 603 c 128
 678.833333333 569 705.333333333 522.666666667 714 464 c 0
 716 450 717 434.666666667 717 418 c 0
 717 358 707 287.833333333 687 207.5 c 128
 667 127.166666667 643.666666667 57.3333333333 617 -2 c 1
EndSplineSet
EndChar

StartChar: u0B9F_u0BC2
Encoding: 91 -1 91
Width: 759
Flags: HW
AnchorPoint: "V" 398.5 645.711 basechar 0
AnchorPoint: "N" 398.5 -3 basechar 0
LayerCount: 2
Fore
SplineSet
741 373 m 0
 733.666666667 338.333333333 718.666666667 310 696 288 c 0
 670 262.666666667 637.666666667 250 599 250 c 0
 563.666666667 250 537.166666667 257.5 519.5 272.5 c 128
 501.833333333 287.5 493 307.666666667 493 333 c 0
 493 341.666666667 494 350.666666667 496 360 c 0
 502 391.333333333 516.666666667 417 540 437 c 0
 566.666666667 460.333333333 600.333333333 472 641 472 c 1
 627 502.666666667 602 527.666666667 566 547 c 128
 530 566.333333333 488 576 440 576 c 0
 352.666666667 576 278 541.666666667 216 473 c 0
 158 409 118 324.666666667 96 220 c 0
 84.6666666667 167.333333333 79 119 79 75 c 0
 79 13.6666666667 91 -33.6666666667 115 -67 c 0
 142.333333333 -104.333333333 184.333333333 -123 241 -123 c 256
 297.666666667 -123 347 -98.6666666667 389 -50 c 0
 426.333333333 -7.33333333333 451.333333333 44.3333333333 464 105 c 0
 466 113 467 122.666666667 467 134 c 0
 467 154.666666667 462.666666667 172 454 186 c 0
 443.333333333 203.333333333 426.666666667 212 404 212 c 0
 391.333333333 212 380 210.166666667 370 206.5 c 128
 360 202.833333333 351.666666667 196.666666667 345 188 c 1
 304 -3 l 1
 214 -3 l 1
 311 452 l 1
 401 452 l 1
 359 256 l 1
 369.666666667 262.666666667 381.333333333 267.666666667 394 271 c 128
 406.666666667 274.333333333 419.666666667 276 433 276 c 0
 475 276 507.333333333 262.333333333 530 235 c 0
 549.333333333 211.666666667 559 181.333333333 559 144 c 0
 559 129.333333333 557.666666667 116.666666667 555 106 c 0
 535 14 497.666666667 -56 443 -104 c 128
 388.333333333 -152 320 -176 238 -176 c 0
 165.333333333 -176 111.333333333 -154 76 -110 c 0
 43.3333333333 -69.3333333333 27 -10.6666666667 27 66 c 0
 27 88.6666666667 28.6666666667 113.833333333 32 141.5 c 128
 35.3333333333 169.166666667 40 198.333333333 46 229 c 0
 74 360.333333333 123.333333333 462.666666667 194 536 c 0
 268.666666667 613.333333333 361 652 471 652 c 0
 559 652 628 629.333333333 678 584 c 0
 724 542.666666667 747 489.666666667 747 425 c 0
 747 407.666666667 745 390.333333333 741 373 c 0
643 339 m 0
 651.666666667 352.333333333 656 366 656 380 c 0
 656 391.333333333 652.333333333 401.666666667 645 411 c 1
 633.666666667 414.333333333 624.666666667 416 618 416 c 0
 594 416 574 405 558 383 c 0
 550.666666667 373.666666667 547 362.666666667 547 350 c 0
 547 332.666666667 553.333333333 321 566 315 c 0
 571.333333333 312.333333333 578.666666667 311 588 311 c 0
 598.666666667 311 609.333333333 313.5 620 318.5 c 128
 630.666666667 323.5 638.333333333 330.333333333 643 339 c 0
EndSplineSet
EndChar

StartChar: u0B9F_u0BCD
Encoding: 92 -1 92
Width: 713
Flags: HW
AnchorPoint: "N" 398.5 -3 basechar 0
LayerCount: 2
Fore
SplineSet
465 586 m 0
 461 568 451.166666667 552.5 435.5 539.5 c 128
 419.833333333 526.5 403 520 385 520 c 0
 369 520 356 525 346 535 c 128
 336 545 331 557.666666667 331 573 c 0
 331 575 332.166666667 582 334.5 594 c 128
 336.833333333 606 346 618.666666667 362 632 c 128
 378 645.333333333 395 652 413 652 c 0
 429 652 441.833333333 646.833333333 451.5 636.5 c 128
 461.166666667 626.166666667 466 613.333333333 466 598 c 0
 466 592.666666667 465.666666667 588.666666667 465 586 c 0
616 -3 m 1
 -4 -3 l 1
 93 452 l 1
 179 452 l 1
 93 49 l 1
 627 49 l 1
 616 -3 l 1
EndSplineSet
EndChar

StartChar: u0BA3
Encoding: 93 2979 93
Width: 1276
Flags: HW
AnchorPoint: "V" 752.5 453 basechar 0
AnchorPoint: "N" 752.5 -3 basechar 0
LayerCount: 2
Fore
SplineSet
1264 399 m 1
 1167 399 l 1
 1081 -3 l 1
 990 -3 l 1
 1076 399 l 1
 1005 399 l 2
 972.333333333 399 940.333333333 393.666666667 909 383 c 1
 927.666666667 365.666666667 941.5 346 950.5 324 c 128
 959.5 302 964 278.333333333 964 253 c 0
 964 237 962 220.333333333 958 203 c 0
 942.666666667 131 921 78.6666666667 893 46 c 128
 865 13.3333333333 826.666666667 -3 778 -3 c 0
 742 -3 715.5 6.66666666667 698.5 26 c 128
 681.5 45.3333333333 673 73.6666666667 673 111 c 0
 673 131 676.333333333 157.666666667 683 191 c 0
 699 267.666666667 736.333333333 330 795 378 c 1
 781.666666667 384 765.5 389 746.5 393 c 128
 727.5 397 707.333333333 399 686 399 c 0
 650.666666667 399 619 393.666666667 591 383 c 1
 625.666666667 349 643 305.666666667 643 253 c 0
 643 245.666666667 642.666666667 237.5 642 228.5 c 128
 641.333333333 219.5 640 211 638 203 c 0
 622.666666667 131 601 78.6666666667 573 46 c 128
 545 13.3333333333 506.666666667 -3 458 -3 c 0
 421.333333333 -3 394.5 6.83333333333 377.5 26.5 c 128
 360.5 46.1666666667 352 75 352 113 c 0
 352 133 355.666666667 160.333333333 363 195 c 128
 370.333333333 229.666666667 383.5 262.833333333 402.5 294.5 c 128
 421.5 326.166666667 445.333333333 354 474 378 c 1
 460.666666667 384 444.5 389 425.5 393 c 128
 406.5 397 386.333333333 399 365 399 c 0
 314.333333333 399 265 386.666666667 217 362 c 0
 173 339.333333333 140.333333333 312.666666667 119 282 c 1
 143.666666667 295.333333333 170 302 198 302 c 0
 232.666666667 302 259.666666667 292 279 272 c 128
 298.333333333 252 308 225.333333333 308 192 c 0
 308 181 308 181 308 170 c 0
 306 162.666666667 304.666666667 157.666666667 304 155 c 0
 293.333333333 105.666666667 275.333333333 67.6666666667 250 41 c 0
 222 11.6666666667 186 -3 142 -3 c 0
 108.666666667 -3 82.1666666667 9.16666666667 62.5 33.5 c 128
 42.8333333333 57.8333333333 33 92.3333333333 33 137 c 0
 33 156.333333333 35.6666666667 180 41 208 c 0
 57 282.666666667 97.6666666667 342.666666667 163 388 c 0
 224.333333333 430.666666667 293 452 369 452 c 0
 437.666666667 452 495 441 541 419 c 1
 587 441 636.333333333 452 689 452 c 0
 759.666666667 452 817 440.666666667 861 418 c 1
 904.333333333 440.666666667 953.666666667 452 1009 452 c 2
 1275 452 l 1
 1264 399 l 1
868 203 m 0
 870.666666667 214.333333333 872 228 872 244 c 0
 872 262.666666667 869.166666667 280.5 863.5 297.5 c 128
 857.833333333 314.5 849 330 837 344 c 1
 783 305.333333333 749.333333333 254.333333333 736 191 c 0
 730 163.666666667 727 139.666666667 727 119 c 0
 727 72.3333333333 741.333333333 49 770 49 c 0
 795.333333333 49 815.666666667 62.3333333333 831 89 c 0
 844.333333333 111.666666667 856.666666667 149.666666667 868 203 c 0
548 203 m 0
 550.666666667 214.333333333 552 228 552 244 c 0
 552 264 549.166666667 282 543.5 298 c 128
 537.833333333 314 528.666666667 329.333333333 516 344 c 1
 490 326 468.333333333 303.666666667 451 277 c 128
 433.666666667 250.333333333 421.833333333 222.5 415.5 193.5 c 128
 409.166666667 164.5 406 139.666666667 406 119 c 0
 406 72.3333333333 420.333333333 49 449 49 c 0
 475 49 495.666666667 62.3333333333 511 89 c 0
 524.333333333 111.666666667 536.666666667 149.666666667 548 203 c 0
213 154 m 0
 214.333333333 162 215 167.666666667 215 171 c 0
 215 189 210.166666667 204.5 200.5 217.5 c 128
 190.833333333 230.5 178.666666667 237 164 237 c 0
 147.333333333 237 132.333333333 232.166666667 119 222.5 c 128
 105.666666667 212.833333333 95.6666666667 201.333333333 89 188 c 1
 85.6666666667 171.333333333 84 157 84 145 c 0
 84 121.666666667 88.3333333333 103.833333333 97 91.5 c 128
 105.666666667 79.1666666667 119.666666667 73 139 73 c 0
 157.666666667 73 174 81.6666666667 188 99 c 0
 199.333333333 113 207.666666667 131.333333333 213 154 c 0
EndSplineSet
EndChar

StartChar: u0BA3_u0BBE.old
Encoding: 95 -1 95
Width: 1378
Flags: HW
AnchorPoint: "V" 752.5 453 basechar 0
AnchorPoint: "N" 752.5 -3 basechar 0
LayerCount: 2
Fore
SplineSet
1322 189 m 0
 1294 56.3333333333 1218 -48.6666666667 1094 -126 c 0
 966 -206 801 -246 599 -246 c 0
 438.333333333 -246 307.666666667 -223 207 -177 c 0
 83.6666666667 -121 22 -35 22 81 c 0
 22 106.333333333 25 133 31 161 c 0
 44.3333333333 223.666666667 65.8333333333 280.5 95.5 331.5 c 128
 125.166666667 382.5 160.666666667 423.666666667 202 455 c 1
 231 425 l 1
 192.333333333 393 160.833333333 354.666666667 136.5 310 c 128
 112.166666667 265.333333333 94.3333333333 215 83 159 c 0
 78.3333333333 136.333333333 76 114 76 92 c 0
 76 -11.3333333333 136 -87.6666666667 256 -137 c 0
 348.666666667 -175 465.333333333 -194 606 -194 c 0
 770 -194 909.333333333 -157.333333333 1024 -84 c 128
 1138.66666667 -10.6666666667 1208.33333333 84 1233 200 c 0
 1237 219.333333333 1239 237.333333333 1239 254 c 0
 1239 297.333333333 1227.33333333 332.333333333 1204 359 c 128
 1180.66666667 385.666666667 1148.66666667 399 1108 399 c 0
 1080 399 1052.33333333 393.666666667 1025 383 c 1
 1043 366.333333333 1056.5 346.666666667 1065.5 324 c 128
 1074.5 301.333333333 1079 277.333333333 1079 252 c 0
 1079 244 1078.66666667 235.833333333 1078 227.5 c 128
 1077.33333333 219.166666667 1076 211 1074 203 c 0
 1058.66666667 131 1037 78.6666666667 1009 46 c 128
 981 13.3333333333 943 -3 895 -3 c 0
 859 -3 832.5 6.66666666667 815.5 26 c 128
 798.5 45.3333333333 790 73.6666666667 790 111 c 0
 790 131 793.666666667 159 801 195 c 128
 808.333333333 231 821.333333333 264.333333333 840 295 c 128
 858.666666667 325.666666667 882.666666667 353 912 377 c 1
 898.666666667 383.666666667 882.666666667 389 864 393 c 128
 845.333333333 397 824.666666667 399 802 399 c 0
 768 399 736 393.666666667 706 383 c 1
 724 366.333333333 737.5 347 746.5 325 c 128
 755.5 303 760 279.333333333 760 254 c 0
 760 237.333333333 758 220.333333333 754 203 c 0
 738.666666667 131 717 78.6666666667 689 46 c 128
 661 13.3333333333 623 -3 575 -3 c 0
 538.333333333 -3 511.5 6.66666666667 494.5 26 c 128
 477.5 45.3333333333 469 74 469 112 c 0
 469 132.666666667 472.333333333 159 479 191 c 0
 495 267 532 329.333333333 590 378 c 1
 576.666666667 384 560.666666667 389 542 393 c 128
 523.333333333 397 503.333333333 399 482 399 c 0
 430.666666667 399 381 386.666666667 333 362 c 0
 290.333333333 340 258 313.333333333 236 282 c 1
 260.666666667 295.333333333 287 302 315 302 c 0
 349 302 375.833333333 292.166666667 395.5 272.5 c 128
 415.166666667 252.833333333 425 226 425 192 c 0
 425 181 425 181 425 170 c 0
 423 162.666666667 421.666666667 157.666666667 421 155 c 0
 410.333333333 105.666666667 392.333333333 67.6666666667 367 41 c 0
 339 11.6666666667 302.666666667 -3 258 -3 c 0
 224.666666667 -3 198.166666667 9.16666666667 178.5 33.5 c 128
 158.833333333 57.8333333333 149 92.3333333333 149 137 c 0
 149 156.333333333 151.666666667 180 157 208 c 0
 173 282.666666667 213.666666667 342.666666667 279 388 c 0
 340.333333333 430.666666667 409 452 485 452 c 0
 554.333333333 452 611.666666667 441 657 419 c 1
 679 429 702.666666667 437 728 443 c 128
 753.333333333 449 779 452 805 452 c 0
 841 452 872.5 449.166666667 899.5 443.5 c 128
 926.5 437.833333333 951.666666667 429.333333333 975 418 c 1
 1019.66666667 440.666666667 1066.66666667 452 1116 452 c 0
 1184.66666667 452 1238 432.333333333 1276 393 c 0
 1311.33333333 356.333333333 1329 309 1329 251 c 0
 1329 243.666666667 1328.83333333 235.666666667 1328.5 227 c 128
 1328.16666667 218.333333333 1326 205.666666667 1322 189 c 0
985 203 m 0
 987.666666667 214.333333333 989 228 989 244 c 0
 989 264 986.166666667 282 980.5 298 c 128
 974.833333333 314 965.666666667 329.333333333 953 344 c 1
 927 325.333333333 905.166666667 303 887.5 277 c 128
 869.833333333 251 857.833333333 223.333333333 851.5 194 c 128
 845.166666667 164.666666667 842 140 842 120 c 0
 842 72.6666666667 856.666666667 49 886 49 c 0
 912 49 932.666666667 62.3333333333 948 89 c 0
 961.333333333 111.666666667 973.666666667 149.666666667 985 203 c 0
664 203 m 0
 666.666666667 215.666666667 668 229.666666667 668 245 c 0
 668 264.333333333 665.166666667 282.333333333 659.5 299 c 128
 653.833333333 315.666666667 644.666666667 330.666666667 632 344 c 1
 579.333333333 306 546 255 532 191 c 0
 526 163.666666667 523 139.666666667 523 119 c 0
 523 72.3333333333 537.333333333 49 566 49 c 0
 591.333333333 49 611.666666667 62.3333333333 627 89 c 0
 640.333333333 112.333333333 652.666666667 150.333333333 664 203 c 0
329 154 m 0
 330.333333333 162 331 167.666666667 331 171 c 0
 331 188.333333333 326.333333333 203.666666667 317 217 c 128
 307.666666667 230.333333333 295.333333333 237 280 237 c 0
 263.333333333 237 248.333333333 232.333333333 235 223 c 128
 221.666666667 213.666666667 212 202 206 188 c 0
 204 176.666666667 202.666666667 168.833333333 202 164.5 c 128
 201.333333333 160.166666667 201 153.333333333 201 144 c 0
 201 122.666666667 205.5 105.5 214.5 92.5 c 128
 223.5 79.5 237 73 255 73 c 0
 273.666666667 73 290 81.6666666667 304 99 c 0
 315.333333333 113 323.666666667 131.333333333 329 154 c 0
EndSplineSet
EndChar

StartChar: u0BA3_u0BBF
Encoding: 96 -1 96
Width: 1383
Flags: HW
AnchorPoint: "V" 752.5 453 basechar 0
AnchorPoint: "N" 752.5 -3 basechar 0
LayerCount: 2
Fore
SplineSet
1286 -3 m 1
 1237 -3 l 1
 1343 496 l 2
 1347.66666667 515.333333333 1350 533.666666667 1350 551 c 0
 1350 573.666666667 1344.5 590.5 1333.5 601.5 c 128
 1322.5 612.5 1303 618 1275 618 c 0
 1249 618 1225.5 609.166666667 1204.5 591.5 c 128
 1183.5 573.833333333 1169.66666667 549.666666667 1163 519 c 0
 1161.66666667 514.333333333 1161 509.333333333 1161 504 c 128
 1161 496 1161 496 1161 492 c 0
 1161 474 1163.33333333 460.666666667 1168 452 c 1
 1275 452 l 1
 1264 399 l 1
 1167 399 l 1
 1081 -3 l 1
 990 -3 l 1
 1076 399 l 1
 1005 399 l 2
 972.333333333 399 940.333333333 393.666666667 909 383 c 1
 927.666666667 365.666666667 941.5 346 950.5 324 c 128
 959.5 302 964 278.333333333 964 253 c 0
 964 237 962 220.333333333 958 203 c 0
 942.666666667 131 921 78.6666666667 893 46 c 128
 865 13.3333333333 826.666666667 -3 778 -3 c 0
 742 -3 715.5 6.66666666667 698.5 26 c 128
 681.5 45.3333333333 673 73.6666666667 673 111 c 0
 673 131 676.333333333 157.666666667 683 191 c 0
 699 267.666666667 736.333333333 330 795 378 c 1
 781.666666667 384 765.5 389 746.5 393 c 128
 727.5 397 707.333333333 399 686 399 c 0
 650.666666667 399 619 393.666666667 591 383 c 1
 625.666666667 349 643 305.666666667 643 253 c 0
 643 245.666666667 642.666666667 237.5 642 228.5 c 128
 641.333333333 219.5 640 211 638 203 c 0
 622.666666667 131 601 78.6666666667 573 46 c 128
 545 13.3333333333 506.666666667 -3 458 -3 c 0
 421.333333333 -3 394.5 6.83333333333 377.5 26.5 c 128
 360.5 46.1666666667 352 75 352 113 c 0
 352 133 355.666666667 160.333333333 363 195 c 128
 370.333333333 229.666666667 383.5 262.833333333 402.5 294.5 c 128
 421.5 326.166666667 445.333333333 354 474 378 c 1
 460.666666667 384 444.5 389 425.5 393 c 128
 406.5 397 386.333333333 399 365 399 c 0
 314.333333333 399 265 386.666666667 217 362 c 0
 173 339.333333333 140.333333333 312.666666667 119 282 c 1
 143.666666667 295.333333333 170 302 198 302 c 0
 232.666666667 302 259.666666667 292 279 272 c 128
 298.333333333 252 308 225.333333333 308 192 c 0
 308 181 308 181 308 170 c 0
 306 162.666666667 304.666666667 157.666666667 304 155 c 0
 293.333333333 105.666666667 275.333333333 67.6666666667 250 41 c 0
 222 11.6666666667 186 -3 142 -3 c 0
 108.666666667 -3 82.1666666667 9.16666666667 62.5 33.5 c 128
 42.8333333333 57.8333333333 33 92.3333333333 33 137 c 0
 33 156.333333333 35.6666666667 180 41 208 c 0
 57 282.666666667 97.6666666667 342.666666667 163 388 c 0
 224.333333333 430.666666667 293 452 369 452 c 0
 437.666666667 452 495 441 541 419 c 1
 587 441 636.333333333 452 689 452 c 0
 759.666666667 452 817 440.666666667 861 418 c 1
 904.333333333 440.666666667 953.666666667 452 1009 452 c 2
 1115 452 l 1
 1111.66666667 466.666666667 1110 481.666666667 1110 497 c 0
 1110 509 1111 519.666666667 1113 529 c 0
 1125 583.666666667 1146.83333333 626.5 1178.5 657.5 c 128
 1210.16666667 688.5 1249 704 1295 704 c 0
 1333.66666667 704 1361.66666667 694.333333333 1379 675 c 128
 1396.33333333 655.666666667 1405 627.666666667 1405 591 c 0
 1405 569.666666667 1401.66666667 541.666666667 1395 507 c 2
 1286 -3 l 1
868 203 m 0
 870.666666667 214.333333333 872 228 872 244 c 0
 872 262.666666667 869.166666667 280.5 863.5 297.5 c 128
 857.833333333 314.5 849 330 837 344 c 1
 783 305.333333333 749.333333333 254.333333333 736 191 c 0
 730 163.666666667 727 139.666666667 727 119 c 0
 727 72.3333333333 741.333333333 49 770 49 c 0
 795.333333333 49 815.666666667 62.3333333333 831 89 c 0
 844.333333333 111.666666667 856.666666667 149.666666667 868 203 c 0
548 203 m 0
 550.666666667 214.333333333 552 228 552 244 c 0
 552 264 549.166666667 282 543.5 298 c 128
 537.833333333 314 528.666666667 329.333333333 516 344 c 1
 490 326 468.333333333 303.666666667 451 277 c 128
 433.666666667 250.333333333 421.833333333 222.5 415.5 193.5 c 128
 409.166666667 164.5 406 139.666666667 406 119 c 0
 406 72.3333333333 420.333333333 49 449 49 c 0
 475 49 495.666666667 62.3333333333 511 89 c 0
 524.333333333 111.666666667 536.666666667 149.666666667 548 203 c 0
213 154 m 0
 214.333333333 162 215 167.666666667 215 171 c 0
 215 189 210.166666667 204.5 200.5 217.5 c 128
 190.833333333 230.5 178.666666667 237 164 237 c 0
 147.333333333 237 132.333333333 232.166666667 119 222.5 c 128
 105.666666667 212.833333333 95.6666666667 201.333333333 89 188 c 1
 85.6666666667 171.333333333 84 157 84 145 c 0
 84 121.666666667 88.3333333333 103.833333333 97 91.5 c 128
 105.666666667 79.1666666667 119.666666667 73 139 73 c 0
 157.666666667 73 174 81.6666666667 188 99 c 0
 199.333333333 113 207.666666667 131.333333333 213 154 c 0
EndSplineSet
EndChar

